<svg viewBox="0 0 7388 1123" fill="none" xmlns="http://www.w3.org/2000/svg">
<path d="M143.5 257.657C93.5 298.457 26.6667 306.657 0 305.657V1122.5H7387.5V342.157C7138.33 313.771 6637.7 256.3 6628.5 253.5C6619.3 250.7 6555.33 267.836 6524.5 276.754C6288.33 311.336 5809 380.5 5781 380.5C5753 380.5 5710.33 360.379 5692.5 350.318L5068.5 234C5009.33 239.167 4881.8 254.951 4845 276.754C4808.2 298.558 4662.67 329.441 4594.5 342.157L4207 350.318C4164.16 349.22 4066.06 337.691 4016.35 300.361C3966.64 263.03 3877.01 269.069 3838.41 276.754C3817.69 301.276 3760.03 350.318 3695.07 350.318C3630.1 350.318 3411.44 242.717 3310.23 188.917C3288.34 179.767 3227.62 161.688 3159.83 162.566C3145 159.638 3116.05 152.465 3118.87 147.195C3121.7 141.924 3087.57 127.065 3070.15 120.294H3061L3044 114.5C3043.17 114 3040.3 113.9 3035.5 117.5C3030.7 121.1 3021.5 121.771 3017.5 121.657C2981 121.657 2736.5 305.657 2688 305.657C2649.2 305.657 2614 329.99 2601 342.157C2544.2 357.757 2486.17 348.657 2464.5 342.157C2244.9 342.157 2056 183.824 1989 104.657C1957 94.3238 1886.2 73.6572 1859 73.6572C1831.8 73.6572 1798.67 58.3237 1785.5 50.657L1747.5 35L1739 43.5C1736.2 45.1 1734.5 44.1667 1734 43.5C1725.67 32.5 1708.6 10.8001 1707 12.0003C1705.4 13.2005 1703 12.5004 1702 12.0003C1701.33 10.0002 1699.5 6.2 1697.5 7C1695.5 7.8 1693.33 10.6669 1692.5 12.0003C1689.5 18.5 1680.9 27.2003 1666.5 12.0003C1652.1 -3.19971 1639.5 -0.333044 1635 3.00029C1582.67 40.5002 1476.3 114.2 1469.5 109C1462.7 103.8 1449 103.938 1443 104.657C1339.17 186.657 1077.1 348.957 859.5 342.157C641.9 335.357 497 235.334 449 184.5C448 184 444.7 183.3 439.5 184.5C439.5 184.5 435.5 187.5 435 187C418.2 167.8 403 167 397.5 169C377.167 183 332.6 211 317 211C297.5 211 266.5 171.5 236 173.5C211.6 175.1 164.167 230.271 143.5 257.657Z" fill="#1B60A5"/>
</svg>
