<svg width="4000" height="792" viewBox="0 0 4000 792" fill="none" xmlns="http://www.w3.org/2000/svg">
<path d="M543.5 126L469 155.5L400 243H0V792H7394.5V449.5L3957.5 390L3825.5 198.5C3771.84 169.086 3693.16 164.227 3649.82 161.551L3649 161.5L3542.5 239L2953 59.0002L2811 25C2798.17 19.8333 2768.1 12.6 2750.5 25C2732.9 37.4 2664.5 54.8333 2632.5 62C2602.17 66.5001 2532.2 62.6003 2495 11.0002C2455.5 9.50017 2451.5 34 2411 51.5C2378.6 65.5 2331.83 48.9999 2316.5 25C2303.17 14.8333 2266 -14.9998 2242 11.0002C2214.8 22.6004 2183.33 15.8336 2171 11.0002C2152.6 -7.7999 2083.67 16.6669 2065.5 30.5003L2001 72.5003L1340.5 155.5L1282 109.5C1277.5 107.834 1260 123.1 1224 109.5C1188 95.9005 1135 141.5 1135 130.5C1097.5 142.833 1046.5 111.7 1014.5 120.5C1002.1 122.689 991.333 121.412 987.5 120.5C960.5 120.5 936.5 106.5 928 99C904.8 81.7998 881.667 88.1666 873 93.5C864.5 102.833 841.4 123.3 817 130.5C792.6 137.7 761.833 141.167 749.5 142C736.833 142.667 708.2 142.5 695 136.5C681.8 130.5 655.833 101.334 644.5 87.5004C620.9 74.7004 554.667 120.667 543.5 126Z" fill="#2C77BF"/>
</svg>
