<svg viewBox="0 0 7384 1155" fill="none" xmlns="http://www.w3.org/2000/svg">
<path d="M3264.61 132.974C3250.96 141.562 2989 96.8009 2951 106.5L2874.5 82.5L2726 106.5L2632 150L2502 164.5L2367.5 132.974L2288 106.5L2192.5 132.974L2115 164.5L2014 178.5L1964.5 164.5L1857 196.934L1755 217L1665.5 178.5L1541.5 196.934L1371 164.5L1251.5 106.5L1182 45.4999C1147.5 37.1533 968.6 -51.9956 845 45.4999C721.4 142.995 547.833 91.2009 479.5 18.3013H393.5C318.667 -30.6324 135.2 50.6999 0 45.4999V1155H7389V196.934L6321.98 256.326L4773.55 196.934C4632.45 169.666 4323.87 132.891 4289 106.5C4254.13 80.1092 4220.33 81.4595 4198.96 97.6127L4059.49 169.347C3991.27 176.419 3872.71 184.565 3620 132.974C3370.87 82.1152 3331.82 171.204 3264.61 132.974Z" fill="#052B4F"/>
</svg>
