<svg width="7773" height="1515" viewBox="0 0 7773 1515" fill="none" xmlns="http://www.w3.org/2000/svg">
<rect y="1000" width="7773" height="515" fill="#001B33"/>
<g>
<path d="M3828 1000H7828V274L7816 272L7822 282C7813 279 7808 271 7803 264C7801 268 7797 272 7800 276C7803 281 7810 285 7810 292L7819 295C7815 297 7810 303 7805 301L7799 289C7794 292 7789 293 7784 290C7785 286 7787 281 7791 278V268C7783 266 7775 269 7768 269L7766 256C7768 259 7769 262 7772 263L7782 260C7784 252 7777 246 7770 246C7767 241 7764 234 7757 235L7762 232C7757 229 7752 227 7746 226L7745 240L7738 242L7739 251H7732L7739 260L7731 267C7732 271 7735 274 7738 277L7726 279L7727 285C7735 290 7743 293 7752 294C7743 297 7734 292 7724 290C7725 294 7724 300 7729 303C7735 310 7744 313 7752 315C7745 315 7737 316 7730 319C7724 320 7718 317 7713 319L7714 328L7704 312L7701 315L7702 306C7697 309 7691 309 7686 306C7691 305 7696 302 7695 296L7682 295L7688 288C7682 287 7677 286 7672 283L7671 298L7667 296V290L7655 291C7651 287 7650 283 7647 279L7654 271C7648 268 7650 261 7650 255L7642 256L7645 251L7632 247C7630 255 7632 263 7634 270L7638 273C7633 279 7628 286 7619 286C7623 288 7626 291 7630 292H7636L7631 304C7630 314 7624 323 7620 332C7618 338 7614 340 7610 344L7602 340C7604 329 7599 319 7594 310C7585 312 7581 321 7574 326C7573 333 7581 331 7585 330L7575 339L7570 332C7568 338 7570 343 7572 348H7564C7562 353 7558 357 7553 360V365L7558 366L7557 369H7545V375C7538 375 7533 371 7528 367C7536 366 7542 364 7549 361L7550 356H7533C7540 353 7549 351 7552 342C7546 342 7542 345 7537 347H7527L7521 353L7520 339C7526 341 7532 342 7539 342C7539 338 7538 335 7540 331C7544 326 7551 322 7553 315L7539 322V319L7530 321L7539 308L7526 304L7536 289L7525 294C7528 289 7528 283 7528 277L7510 282L7517 290L7502 289L7504 299H7511L7505 306L7493 300L7504 316L7493 313C7497 318 7504 320 7510 323C7509 328 7502 329 7498 332C7494 329 7490 327 7485 326C7485 330 7484 335 7487 339L7500 347C7504 346 7507 345 7511 346L7501 353L7516 348V349L7515 352V353C7505 358 7495 354 7486 350C7488 356 7491 362 7496 365C7489 363 7483 359 7475 362C7480 367 7486 368 7492 367V372L7483 369L7491 380L7477 376C7479 378 7480 381 7483 382C7488 384 7493 384 7495 390L7483 387L7471 396L7473 378L7468 376L7467 382L7466 370L7462 378L7454 376C7459 380 7463 385 7461 391L7455 387L7454 392C7451 390 7449 386 7446 388C7438 390 7432 396 7424 396L7412 399L7425 384H7421L7428 376L7423 370L7429 366V362L7418 368L7422 356L7408 362C7409 357 7411 352 7411 346L7402 336L7400 346L7392 342C7397 346 7401 351 7400 358L7392 353V357L7383 356C7387 362 7389 370 7393 377L7374 372C7378 377 7383 381 7385 388L7371 381C7373 386 7375 391 7379 395L7378 403L7386 410L7371 411C7377 417 7385 423 7387 432C7382 431 7376 430 7373 425C7369 421 7364 419 7359 418L7354 424L7349 420V429C7349 434 7351 441 7344 443C7340 447 7335 445 7332 442L7340 432C7339 428 7340 423 7336 421L7317 423L7316 410L7320 419L7332 415C7331 412 7332 407 7328 406C7321 402 7314 395 7310 387C7306 387 7302 386 7299 384C7297 390 7296 396 7290 399L7291 407L7285 405C7286 409 7288 412 7291 416C7286 418 7282 422 7276 423L7264 425C7273 419 7276 409 7281 401L7277 396L7284 392L7275 387L7272 381L7261 388L7263 372L7255 361L7252 370L7246 367L7254 380L7239 385L7240 400C7230 398 7221 391 7214 383L7218 381L7222 367L7220 359L7209 361L7210 367L7203 365C7204 371 7206 377 7201 382C7206 387 7205 394 7204 401L7187 400V406L7178 409L7188 412L7176 418C7183 427 7192 420 7199 415L7201 426L7188 424C7190 429 7193 433 7197 437C7194 442 7187 440 7182 441L7181 433C7174 429 7167 425 7163 417C7160 411 7153 411 7148 410C7147 416 7145 422 7139 425L7140 432L7134 433L7141 442L7133 448L7136 458L7126 460L7134 471H7125V479L7139 491C7126 494 7113 495 7100 496L7107 485L7096 490L7091 486C7095 484 7098 481 7099 477L7086 475L7093 469L7076 465C7076 470 7076 475 7079 480L7070 477L7078 489C7071 492 7063 492 7056 489L7065 478L7057 481L7059 467L7042 471L7050 477L7039 478L7042 487C7041 490 7040 494 7041 497C7041 501 7044 506 7041 510C7035 517 7026 520 7022 527C7016 536 7016 546 7014 555C7010 563 7000 565 6993 566L6954 577C6950 577 6947 579 6945 580L6953 564L6940 571C6944 563 6949 554 6949 545L6936 546L6941 538L6928 540C6932 534 6943 536 6945 527L6931 531C6937 525 6942 519 6946 512C6939 510 6933 515 6926 516C6931 513 6935 508 6937 501L6917 507L6919 514C6916 508 6911 504 6906 500L6923 504C6919 502 6915 500 6913 496L6925 497L6926 493H6934C6937 488 6939 482 6938 476L6924 484L6912 475C6918 472 6925 469 6930 464L6919 467L6930 451L6919 457L6912 452C6917 450 6922 446 6921 440H6905L6914 432C6908 431 6900 433 6896 427C6895 433 6894 440 6898 445L6886 440L6897 455L6884 459L6893 471L6884 473C6879 470 6874 467 6869 466C6871 473 6878 476 6882 482L6886 493C6892 494 6898 492 6903 490V503C6896 499 6887 500 6880 496C6877 493 6874 493 6870 494C6875 501 6883 504 6890 507H6878C6874 507 6874 512 6872 514L6868 509L6861 508V500L6850 499C6853 495 6855 490 6855 485L6841 487V482H6849V477C6843 472 6838 465 6830 460L6823 472C6818 479 6824 491 6814 495C6811 492 6805 489 6804 484L6795 466C6791 459 6790 450 6787 442L6796 444L6804 437L6794 436L6784 422L6791 424C6788 418 6791 413 6792 407L6791 398L6779 401L6780 408L6772 405L6775 417L6770 422L6775 429L6774 442L6756 440L6758 447L6749 450L6748 453H6754L6756 455L6745 462L6757 465C6760 462 6763 459 6767 458L6771 468L6757 466C6759 471 6763 475 6766 479C6763 484 6755 483 6750 484L6760 488L6742 490L6746 496L6735 495V488L6720 489C6719 482 6718 476 6723 470L6719 466L6721 457H6715C6714 451 6709 450 6704 449C6702 456 6703 462 6706 468L6703 471L6710 472C6706 479 6700 484 6692 486L6708 491C6705 496 6703 502 6702 508C6698 520 6690 530 6683 540C6680 547 6673 544 6668 545C6667 541 6664 538 6660 536L6648 545L6641 541L6650 539L6656 524C6648 527 6639 531 6630 532L6617 527V522C6623 524 6630 529 6637 528C6633 526 6629 523 6624 522L6625 521L6626 518L6627 517C6631 518 6635 519 6637 523L6642 518V517L6639 515L6638 514L6652 513L6657 504L6656 492L6640 501C6634 499 6630 495 6625 491L6624 489C6633 486 6641 483 6647 476L6632 480C6637 473 6643 467 6647 459L6631 467L6623 458L6631 457C6635 454 6634 449 6635 444L6615 446C6617 441 6622 438 6627 435C6620 434 6613 432 6606 433L6603 427C6601 435 6599 444 6604 451L6590 444C6593 454 6603 459 6604 469L6600 466L6587 468L6598 485L6586 487L6570 478C6568 483 6564 486 6559 488V492L6553 491C6553 497 6554 503 6549 507L6555 514L6554 527L6537 526V532L6527 536V527C6535 523 6544 519 6547 511L6542 509L6530 516C6523 519 6515 518 6508 522L6518 510C6517 504 6522 501 6525 498L6519 496C6522 492 6525 489 6526 484L6514 491L6517 479C6513 480 6508 482 6504 485C6505 480 6507 474 6506 469L6498 461L6496 468L6490 467C6493 470 6496 475 6496 480L6482 481C6483 487 6483 493 6488 497L6487 499L6492 504C6485 500 6478 496 6470 494C6473 500 6480 504 6481 511L6468 504L6475 518L6474 526L6482 533L6467 534C6473 540 6480 546 6483 554L6458 549L6464 558C6456 556 6451 548 6446 542L6443 552L6454 568L6462 571L6452 581C6447 577 6445 571 6442 565L6434 569L6428 565L6436 555L6434 545L6426 544V555L6423 546L6413 547L6412 534C6414 537 6415 540 6418 541L6428 538C6428 533 6427 529 6422 528C6416 525 6412 519 6408 514C6406 508 6399 508 6395 506L6392 518L6385 521L6388 529H6381L6387 538L6379 544L6385 553L6375 555C6369 565 6362 575 6358 586C6357 592 6351 592 6346 593L6354 580C6350.32 581.628 6346.65 583.295 6343 585V583H6342C6346 578 6347 572 6346 566L6334 572C6339 565 6347 560 6348 551L6347 550L6345 549H6344L6328 560L6321 558C6328 552 6331 543 6337 537C6342 532 6342 525 6343 519C6338 524 6332 529 6324 529L6323 519C6331 515 6339 511 6343 503L6342 502H6339L6338 501L6326 508C6319 511 6311 510 6304 514L6314 502C6313 496 6318 494 6321 491L6316 488C6318 484 6321 481 6322 476L6310 483L6313 471C6309 472 6304 474 6300 477L6302 465C6304 459 6298 456 6295 453L6292 460L6286 459C6289 462 6292 467 6292 472L6278 473C6279 479 6279 485 6284 489L6283 491L6288 496C6281 492 6274 488 6266 486C6269 492 6276 496 6277 503L6264 496L6271 510L6270 518L6278 525L6263 526C6269 532 6276 538 6279 546L6254 541L6260 550C6252 548 6247 540 6242 534L6239 544L6250 560L6258 563L6248 573C6243 569 6241 563 6238 557L6230 561L6224 557L6232 547C6232 542 6230 538 6228 535L6221 538L6222 547L6219 538L6209 539L6208 526C6210 529 6211 532 6214 533L6224 530C6224 525 6223 521 6218 520C6212 517 6208 511 6204 506C6202 500 6195 500 6191 498L6188 510L6181 513L6184 521H6177L6183 530L6176 536L6180 547H6170C6171 550 6173 553 6176 555C6182 560 6189 561 6196 562C6187 565 6178 560 6169 558C6170 564 6172 571 6178 574C6183 579 6190 579 6196 581L6175 584L6158 585L6163 599H6170L6166 608H6153H6162L6156 594L6144 599L6135 593L6151 584H6143L6150 572L6140 577L6132 571H6140L6143 563H6131L6136 556C6130 556 6125 554 6120 551L6121 566L6114 564L6122 576L6112 578L6116 589L6110 591V590L6108 589H6107L6110 580L6102 576L6108 566L6101 568L6103 556L6088 558L6094 564L6082 565C6082 569 6085 572 6089 574L6084 577L6074 574L6081 582L6076 586L6089 594L6080 598L6069 595L6064 604L6059 603C6063 597 6065 591 6067 585C6055 585 6044 583 6032 581C6043 580 6057 573 6056 560C6048 562 6039 567 6031 562C6041 563 6051 558 6056 550L6046 549L6050 538L6043 533C6046 530 6051 525 6045 522L6044 518C6039 515 6037 509 6035 504H6034L6032 505H6031C6023 507 6020 516 6014 520C6011 523 6004 526 6005 532L6014 537C6017 535 6018 531 6020 528L6018 541H6009L6006 549L6007 540H5997C5996 547 6000 554 6004 560C5999 561 5994 562 5989 561C5987 565 5987 571 5982 571C5979 570 5976 567 5974 564L5980 562L5989 545C5990 542 5988 540 5987 537C5982 543 5978 549 5970 552L5976 543L5953 548C5953 539 5962 535 5967 529C5962 529 5957 527 5952 528L5960 522L5959 513C5963 509 5965 505 5967 501L5954 507C5955 500 5962 497 5964 491C5957 493 5949 496 5943 500C5948 495 5952 487 5952 479L5939 477C5940 472 5942 468 5946 464L5940 466L5936 458L5935 467L5933 464L5929 466L5931 482L5921 479V488C5916 486 5912 482 5910 477C5903 480 5897 484 5891 489C5886 481 5875 481 5872 473L5887 468C5892 466 5897 461 5901 456L5884 462C5887 452 5896 446 5901 437C5893 439 5887 444 5881 448L5878 442C5879 437 5882 433 5885 429C5884 425 5884 422 5886 418C5878 421 5870 421 5861 420C5864 414 5871 411 5877 407C5871 406 5863 409 5859 404L5850 407L5848 397C5844 402 5845 409 5844 415C5844 420 5848 424 5850 428L5831 418C5834 428 5842 435 5848 442L5838 447H5827C5831 455 5837 462 5842 469C5836 469 5831 469 5826 472C5820 466 5813 462 5805 460C5806 463 5806 468 5809 471C5816 476 5823 481 5828 488L5827 502C5837 504 5848 503 5857 498V518L5846 516L5851 510L5830 513L5816 503L5808 506L5816 516C5823 519 5831 520 5837 526C5828 525 5818 524 5810 528L5811 533C5819 536 5827 538 5835 543L5843 541C5839 546 5835 553 5828 554H5808C5817 559 5829 557 5837 565L5815 573L5832 574L5831 581L5838 574C5837 579 5834 583 5831 585L5832 590C5837 587 5844 584 5850 587L5843 593C5835 599 5825 595 5817 598L5812 589H5802L5807 581L5786 580L5796 574C5789 573 5780 573 5774 566L5784 562L5791 552L5802 548L5801 544L5790 538L5799 536L5798 531H5788L5791 522L5769 524L5767 508L5774 499L5767 495L5770 480L5760 482L5763 475L5747 471L5749 481H5745C5748 487 5752 495 5747 502L5757 500L5744 516L5732 518L5743 525H5753L5746 540L5749 544L5739 557L5744 558C5737 562 5734 571 5731 578C5726 582 5721 586 5720 592C5713 594 5707 596 5700 596L5709 592C5711 584 5713 576 5711 568C5711 560 5704 554 5700 546C5691 552 5684 561 5676 568L5684 574L5691 569C5688 574 5684 578 5679 581L5674 574C5669 580 5673 587 5676 592L5664 594L5663 604H5653V612L5660 617L5646 618C5644 619 5643 622 5642 624C5634 626 5628 621 5624 615C5633 613 5644 613 5649 604C5643 601 5635 602 5628 602C5636 598 5645 596 5650 588L5646 584C5640 589 5634 593 5626 592C5621 592 5618 598 5613 596L5612 581C5619 585 5627 585 5635 585V573C5641 566 5651 562 5653 552L5640 558C5636 562 5630 559 5624 559L5635 544L5619 539C5624 533 5629 528 5633 521L5618 528C5624 521 5623 512 5620 504L5618 511C5611 510 5605 511 5598 512L5609 522H5592C5592 525 5590 529 5593 531C5595 534 5599 533 5603 534L5594 542L5580 534C5583 541 5589 546 5592 554L5580 550C5585 557 5594 560 5602 563L5587 574L5572 565L5570 571L5554 562C5549 556 5544 548 5541 540C5546 545 5550 551 5557 553C5563 554 5571 554 5574 548L5566 538L5568 533C5563 529 5559 525 5553 523C5553 518 5552 514 5550 510C5548 505 5543 503 5540 499C5541.34 498.675 5542.67 498.342 5544 498L5545 496L5534 484L5538 478C5535 473 5529 467 5531 460L5539 461L5542 466L5541 458L5546 461L5552 452L5535 453L5538 446C5533 443 5529 438 5525 433L5536 435L5531 430L5537 424L5534 421C5538 415 5537 408 5535 401C5529 401 5524 405 5518 405L5522 410L5520 414L5511 410V423L5512 424L5515 425L5516 426L5504 432L5515 442C5512 448 5512 454 5513 460C5504 461 5495 458 5487 459C5489 462 5490 466 5488 469L5479 468L5476 475H5486L5488 478L5475 483L5474 487L5490 494L5494 503C5496 506 5500 507 5504 508C5499 518 5487 514 5479 519H5492V525C5484 524 5475 524 5467 526L5474 533L5460 536L5461 543H5471C5468 548 5463 551 5458 554L5468 550L5476 555L5483 549C5483 555 5480 559 5477 563C5483 561 5485 555 5487 549H5502C5501 554 5501 559 5497 563C5494 565 5491 565 5488 565L5491 572L5485 573L5486 578C5477 580 5468 585 5458 583L5453 598C5456 600 5459 595 5462 594L5465 597C5469 595 5473 594 5478 594L5472 601C5478 602 5485 601 5491 599C5486 603 5481 608 5478 615L5474 614L5468 620L5469 626C5464 631 5460 639 5451 639C5430 643 5409 637 5388 641C5396 635 5406 637 5414 632C5419 628 5419 623 5418 618L5405 624L5394 615C5400 613 5406 610 5411 605L5403 606L5412 593L5400 599L5394 594L5401 591L5402 583H5388L5396 576C5390 575 5384 574 5378 571C5378 577 5378 583 5381 588L5370 583L5380 597L5368 600L5376 612C5368 614 5361 610 5354 607C5357 614 5363 618 5367 623L5369 633L5386 630L5385 642L5381 641L5380 637L5374 638C5367 639 5362 631 5356 634C5359 640 5366 643 5372 645L5357 648C5361 650 5364 654 5367 658C5361 659 5355 658 5349 657L5354 654V648H5346L5345 640L5337 638L5340 627C5337 623 5332 626 5328 626L5335 620C5329 614 5324 605 5316 602L5309 616C5308 623 5309 631 5302 635C5298 631 5293 628 5291 623C5285 611 5280 599 5277 586C5282 585 5288 584 5292 581C5285 579 5279 574 5275 568C5280 561 5282 552 5280 544C5271 545 5263 553 5264 563L5261 566C5266 571 5265 578 5264 585L5248 584L5249 590L5240 591L5244 598L5237 604C5241 604 5244 606 5247 605L5259 599L5261 610L5249 608C5252 612 5254 617 5258 621L5242 624C5245 625 5249 625 5251 629H5234L5238 634L5219 642V635C5224 631 5229 628 5232 622C5223 625 5214 629 5204 631C5210 625 5216 616 5215 607L5210 600L5201 604C5202 600 5204 596 5203 592L5198 586L5195 591L5191 590L5197 599L5185 600L5187 612L5178 611L5185 621L5176 619L5183 638L5176 639L5186 654L5174 652L5170 656L5158 646C5158 655 5164 662 5171 667L5164 673C5162.03 670.308 5160.03 667.641 5158 665L5157 666H5156L5148 662C5151 657 5153 652 5152 647L5136 648L5148 640C5142 636 5137 631 5133 625C5131 622 5127 621 5124 620L5115 637V654L5108 655C5112 661 5119 664 5126 666L5107 662C5108 672 5118 676 5126 679L5103 682C5097 685 5091 687 5084 688L5092 682C5091 679 5092 676 5094 673L5086 676C5085 673 5087 670 5088 667L5080 666L5083 660H5074C5071 665 5070 670 5073 675L5067 677L5070 685L5058 682L5064 691C5046 695 5028 699 5009 699C5002 697 5003 690 5004 685C5008 685 5010 689 5013 691L5015 685L5024 695L5031 689C5038 690 5045 688 5052 686C5049 681 5045 677 5039 674C5032 671 5028 664 5022 657C5019 653 5012 652 5008 648C5004 642 5000 636 4997 628C5003 634 5008 641 5016 641C5020 641 5024 642 5027 639C5029 634 5024 630 5022 626L5024 621L5009 611L5006 599C5004 594 4999 591 4995 588L5001 587L4991 574L4993 567C4990 561 4986 557 4986 551L4994 550L4998 555L4997 550C5001 548 5009 548 5007 542C5002 541 4996 542 4991 543L4994 536C4989 533 4985 528 4981 524L4992 526L4987 520L4993 515L4989 513L4995 505L4992 500V492C4987 492 4982 494 4979 497L4975 496L4978 504L4967 502L4969 519L4962 522L4971 532C4969 538 4969 544 4969 550C4961 551 4952 549 4944 548C4945 551 4949 555 4945 558C4942 559 4934 557 4934 563L4946 566C4942 569 4938 572 4932 572V578C4938 578 4947 583 4950 576C4953 573 4957 572 4961 571L4965 585L4946 582C4947 590 4954 595 4960 599L4949 605V614L4934 612L4948 606L4930 602C4924 607 4916 611 4907 608C4911 605 4916 604 4921 603C4920 596 4924 591 4927 584C4918 589 4909 592 4900 594C4891 597 4884 590 4876 589L4878 583C4886 586 4893 592 4903 591L4901 587C4896 586 4890 585 4886 582C4888 580 4890 576 4893 577C4898 577 4901 581 4903 583L4909 578L4904 572L4920 573L4927 563C4930 558 4927 551 4927 546C4919 548 4912 552 4906 557C4902 556 4901 551 4896 550C4893 548 4885 546 4887 541L4901 537C4907 534 4911 529 4915 524L4898 530C4901 520 4912 514 4915 504L4895 515C4894 513 4891 511 4892 508C4893 504 4896 501 4898 497L4899 485C4892 488 4884 488 4875 487C4877 480 4885 478 4891 474L4875 473L4873 469L4864 474L4860 463L4857 481C4856 486 4861 490 4863 494L4844 486L4851 499L4862 509C4855 514 4848 516 4839 515C4844 523 4850 530 4854 538C4849 537 4843 535 4839 532L4842 541C4833 537 4826 530 4816 528C4817 532 4818 537 4822 540L4842 557C4840 561 4837 567 4841 571C4851 574 4862 573 4870 566L4871 582C4871 584 4872 587 4869 587C4866 590 4862 586 4859 585L4864 580C4856 581 4849 583 4842 582L4826 572L4820 576L4824 582C4830 590 4842 588 4849 596C4840 595 4830 594 4822 598L4823 604C4830 606 4836 611 4844 609L4845 613L4856 612C4851 617 4847 624 4840 625H4819C4830 630 4842 629 4851 636L4827 644L4844 646L4843 651L4849 653L4842 657L4844 662C4850 659 4856 657 4863 658C4860 661 4858 664 4855 665C4848 671 4838 667 4829 670V663L4822 662L4823 652L4817 647L4823 640L4818 638L4811 618C4806 620 4801 620 4798 624C4794 631 4787 635 4781 640C4779 646 4786 650 4790 653H4774C4774 660 4777 666 4780 673H4766C4765 678 4762 683 4758 685C4756 682 4748 679 4753 676C4760 670 4767 661 4765 652L4749 665L4752 657L4731 662C4731 653 4740 649 4745 643L4733 642C4739 635 4739 625 4744 617L4732 621C4735 616 4738 611 4743 607L4729 609L4733 593C4728 592 4722 592 4718 597C4719 591 4720 586 4724 581L4720 582L4716 576C4713 579 4710 581 4709 584L4711 598L4701 593L4693 600L4696 614C4698 621 4703 626 4707 631C4702 631 4696 631 4691 629C4686 626 4680 623 4673 622C4676 630 4684 633 4690 637L4691 645C4684 645 4678 642 4673 640C4675 651 4683 661 4691 670L4689 676C4682 672 4676 667 4668 664C4667 675 4680 677 4684 686L4671 681L4669 688C4674 693 4679 698 4680 706C4656 704 4632 705 4609 701C4613 699 4620 696 4616 689C4609 689 4601 686 4594 683C4596 679 4599 676 4604 674C4602 672 4601 669 4598 668H4581C4588 661 4600 662 4609 661L4606 656C4616 655 4623 648 4631 644L4628 639C4622 640 4617 638 4614 633C4607 637 4598 641 4591 636V629L4596 627L4603 632L4606 611C4600 610 4595 607 4589 604L4588 613L4583 609H4577C4580 604 4584 598 4583 591C4582 587 4578 584 4575 581C4572 583 4570 586 4566 587C4559 586 4552 582 4550 575L4556 578L4558 567L4567 568V563L4561 560L4566 552L4560 545C4550 550 4539 550 4528 551C4529 548 4530 544 4533 543L4551 537L4553 524C4547 523 4544 520 4542 515L4533 517V510C4525 504 4521 496 4517 488L4511 493L4504 485H4497C4496 491 4498 497 4496 503C4494 509 4486 507 4482 508L4486 524L4478 518L4477 527C4479 531 4484 533 4488 536L4472 546C4475 552 4479 559 4484 563L4464 565L4468 577L4474 578L4471 567C4475 571 4476 577 4479 581C4487 587 4497 588 4506 587C4497 596 4483 588 4473 586C4467 584 4461 583 4460 577L4444 578C4444 574 4443 569 4445 565C4447 559 4445 552 4445 545H4440C4439 540 4434 538 4429 538C4428 546 4428 555 4434 561L4426 571L4417 573C4421 578 4427 578 4432 579C4429 587 4428 596 4424 604C4419 612 4416 622 4407 626C4397 629 4387 626 4377 628C4376 622 4378 617 4381 613H4374L4370 602L4376 603L4383 592L4381 580L4366 589C4361 583 4355 580 4348 578C4357 575 4366 572 4372 564L4358 568L4372 548L4356 556L4347 546L4354 549C4358 545 4360 539 4360 533C4353 534 4346 536 4339 533L4352 523L4331 521L4328 516C4326 524 4324 533 4330 540C4325 538 4321 535 4316 534C4318 541 4324 547 4329 552C4324 555 4318 557 4312 557L4323 575L4311 570L4312 577L4300 565C4289 567 4279 560 4268 559L4271 553L4264 552L4268 545L4256 542C4252 537 4250 530 4252 524C4257 526 4263 527 4268 525L4272 532L4273 524L4280 533L4290 527L4301 531L4288 523L4287 519L4296 520C4300 519 4299 513 4300 510L4283 508C4286 505 4290 502 4290 498C4281 496 4271 496 4263 499L4262 491L4277 492C4271 486 4262 488 4255 485L4248 478C4253 478 4258 475 4263 473L4259 467C4266 461 4275 457 4283 454L4282 449C4278 448 4272 449 4269 445C4267 443 4269 440 4269 438L4279 442L4278 433C4273 434 4267 435 4264 429L4269 420C4259 422 4249 425 4239 423C4240 416 4239 409 4237 402L4248 391L4236 384L4241 382C4240 377 4239 371 4241 366L4231 370L4228 366L4233 359L4227 361C4224 356 4218 354 4212 355L4213 365L4209 368C4212 372 4214 377 4214 382L4218 389L4210 394L4225 392C4221 398 4215 402 4210 407L4211 413L4193 415C4196 417 4198 421 4200 424L4210 416L4205 425C4210 423 4217 422 4219 428C4217 434 4212 438 4210 444C4210 447 4213 448 4214 451C4209 457 4202 461 4201 469H4207L4198 476C4194 482 4193 489 4192 495L4173 508L4178 511L4169 523L4171 529C4177 530 4182 532 4188 530C4196 528 4201 520 4206 514C4204 524 4198 531 4193 539C4189 545 4180 543 4176 550C4170 557 4165 566 4156 570C4149 573 4144 579 4140 585L4128 582L4129 577L4139 570L4138 564C4130 569 4122 573 4113 571V570L4112 567L4111 566L4123 557L4130 562C4138 556 4147 550 4149 540C4138 540 4129 553 4117 548C4121 541 4128 537 4135 533L4137 521C4144 520 4149 516 4152 510C4146 509 4141 507 4136 504C4128 512 4117 519 4105 515L4109 510L4124 508L4121 496C4127 493 4132 488 4130 481L4117 488C4110 492 4103 491 4097 494C4092 496 4085 499 4081 495C4075 491 4069 489 4063 489V480L4071 481C4076 484 4079 488 4084 490H4098L4097 485C4090 485 4082 483 4076 480C4077 477 4078 474 4081 472L4093 473L4098 482C4100 479 4103 476 4107 474L4108 463C4112 465 4116 467 4121 467C4126 461 4130 454 4133 447L4130 427C4126 430 4121 433 4116 434C4109 436 4107 446 4098 445L4097 437C4088 434 4077 432 4075 422L4096 416C4103 412 4110 407 4115 400C4106 401 4099 406 4090 407L4097 396C4102 387 4114 382 4115 371C4104 374 4097 383 4088 387C4085 383 4083 378 4082 374L4077 378C4075 375 4075 371 4076 367L4084 372L4096 359L4090 354L4096 345C4084 349 4073 350 4061 348C4062 337 4076 337 4081 330H4059L4058 322C4054 326 4049 328 4044 330L4042 315C4034 324 4038 337 4034 347C4038 350 4045 354 4043 360C4035 354 4026 349 4016 346L4027 367C4035 368 4038 375 4042 380L4032 382L4028 388C4023 386 4017 386 4012 386C4015 398 4028 406 4031 418C4023 418 4016 414 4009 411C4012 414 4015 418 4015 423C4010 422 4006 418 4003 415C3996 410 3988 407 3980 404L3983 415H3974L3968 422L3962 419L3968 426L3964 430L3953 426C3955 432 3954 438 3953 444L3958 445C3955 449 3950 451 3946 453C3950 457 3955 461 3957 466C3956 473 3954 480 3955 487C3945 488 3935 487 3926 484L3924 488L3930 496C3925 499 3919 499 3914 498C3914.67 499.329 3915.34 500.663 3916 502H3912L3914 508L3925 502L3924 510H3919V515L3910 514L3908 522L3928 526L3926 529L3932 535L3931 540L3944 548C3937 559 3922 552 3914 561L3930 560V568C3920 567 3908 564 3899 570C3903 572 3906 575 3908 578L3890 580L3892 589L3898 592L3904 588L3899 598L3911 605L3920 594C3919 598 3920 602 3918 606L3910 612L3919 611L3923 597L3941 596L3944 604L3936 603C3934 608 3933 613 3927 615C3916 620 3903 621 3890 623C3885 618 3880 612 3877 605L3885 598C3883 585 3865 582 3866 569L3878 565C3877 556 3866 554 3861 547C3854 539 3853 527 3852 516C3847 505 3836 498 3828 489V1000ZM4692 687C4694 689 4696 692 4696 695C4693 694 4688 693 4686 689L4692 687ZM4335 688L4334 691L4331 690C4331 687 4333 687 4335 688ZM4594 678L4587 686C4581 684 4575 678 4577 670C4584 671 4589 675 4594 678ZM4933 681C4934 682 4934 684 4932 684H4928C4926 681 4931 678 4933 681ZM4785 680V684C4784 685 4782 685 4781 683C4779 680 4784 678 4785 681V680ZM4467 674C4465 676 4465 680 4462 680C4460 678 4460 674 4459 671L4467 674ZM4301 673L4304 676C4305 677 4306 678 4305 680C4302 681 4297 674 4301 673ZM4330 671L4322 678L4320 670L4330 671ZM4572 670L4566 677L4560 670H4572ZM4744 668C4743 671 4741 673 4738 674L4730 676C4732 670 4739 670 4744 668ZM4092 666L4094 669C4094 671 4093 672 4092 672C4089 672 4089 666 4092 666ZM5235 643L5236 650C5243 647 5251 645 5258 648C5257 652 5254 657 5249 658C5248 661 5247 664 5244 666C5239 668 5233 669 5227 669C5231 666 5236 662 5236 656C5230 657 5225 662 5220 665L5217 662L5231 643H5235ZM4228 656C4228 659 4226 661 4224 663L4216 668C4220 664 4223 659 4228 656ZM5133 664L5132 667L5131 666C5130 664 5130 663 5133 664ZM4562 644L4561 651L4553 652V666L4547 658L4549 648L4562 644ZM5185 662L5186 665L5178 662L5176 659L5185 662ZM4325 660L4324 663L4323 662C4322 660 4322 659 4325 660ZM5332 654L5331 661C5328 662 5324 662 5321 660L5332 654ZM4948 657V660H4945C4944 657 4945 656 4948 657ZM4895 653C4896 653 4897 654 4897 656V659C4893 662 4890 650 4895 653ZM4958 636C4962 643 4956 652 4948 652C4941 656 4933 663 4925 657C4925 653 4930 651 4933 648C4932 643 4928 646 4926 648C4922 650 4918 650 4914 650L4912 646L4920 641H4933L4941 636C4941 640 4939 645 4937 648L4941 647C4941 643 4942 640 4944 636C4948 638 4953 637 4958 636ZM4176 630C4177 634 4176 641 4171 643L4144 658L4158 645C4160 643 4160 639 4163 636H4172C4174 635 4176 632 4176 630ZM4319 653L4308 658C4307 655 4307 651 4305 648C4311 648 4316 649 4319 653ZM4104 654V657H4100C4099 654 4100 653 4104 654ZM5296 649L5306 648L5318 652L5294 655C5289 651 5287 645 5284 640C5288 643 5291 648 5296 649ZM4463 650C4464 651 4463 653 4462 653H4459C4457 651 4461 648 4463 650ZM4890 645L4889 652C4885 652 4885 647 4884 645L4886 644H4890V645ZM4247 638C4246 644 4240 648 4236 652C4237 645 4239 638 4244 633L4247 638ZM4336 644L4335 651L4332 652V644H4336ZM4124 645V649H4119C4116 646 4121 642 4124 645ZM4097 643C4099 644 4098 646 4097 647H4093C4091 644 4095 640 4097 643ZM4568 624L4574 629L4565 627L4568 636C4560 631 4552 627 4543 627L4548 635L4543 633L4542 645C4535 643 4528 644 4522 648L4519 643C4517 642 4514 641 4515 638H4516L4518 637H4519C4530 638 4537 626 4548 625C4555 625 4561 626 4567 624H4568ZM4505 633L4506 645L4490 647L4489 642L4502 638C4496 634 4490 633 4484 631C4491 631 4498 631 4505 633ZM5335 644L5334 647L5333 645C5332 644 5332 643 5335 644ZM4319 621C4312 621 4305 619 4298 622V627C4305 630 4312 630 4318 634L4324 633C4321 641 4313 647 4304 645L4295 633C4297 627 4292 622 4295 616C4303 614 4313 614 4319 621ZM5807 642C5807 644 5806 645 5805 645L5801 644C5801 641 5806 641 5807 642ZM4196 580L4199 593C4194 598 4189 603 4182 606C4173 608 4168 618 4161 623C4152 628 4145 635 4138 642C4134 643 4134 639 4134 636C4139 630 4142 623 4148 618C4157 610 4151 597 4157 588L4167 585C4169 589 4171 593 4175 594L4185 582L4186 588H4192C4192 585 4194 582 4196 579V580ZM5840 634L5839 641L5826 642L5840 634ZM4205 636C4206 638 4205 639 4203 640C4202 642 4200 642 4199 642C4198 639 4203 635 4205 636ZM4338 628L4334 633L4338 639L4331 641C4331 637 4329 632 4326 629H4319C4322 622 4332 625 4338 628ZM4557 636C4560 638 4560 639 4558 640C4557 641 4554 641 4553 639C4551 636 4556 635 4557 636ZM4099 635C4101 637 4099 638 4097 638C4095 638 4093 638 4093 635C4093 632 4098 633 4099 635ZM4912 632L4914 634L4912 636C4909 635 4909 633 4912 632ZM4928 631L4923 633L4918 634C4918 629 4925 632 4928 631ZM4875 622L4872 633L4865 634V626C4868 623 4871 622 4875 622ZM3924 629C3925 631 3923 633 3921 633H3917C3918 630 3921 628 3924 629ZM5794 602L5802 607L5808 602L5805 608L5822 622C5816 624 5808 623 5801 622C5807 626 5814 628 5820 630L5818 634C5809 633 5801 631 5792 628L5793 623H5792L5790 622H5789V617L5781 615C5779 611 5775 607 5778 602L5791 603L5794 611L5799 614C5796 611 5793 607 5793 602H5794ZM5193 620V628L5188 622L5193 620ZM4728 621C4727 624 4725 628 4721 628V620L4728 621ZM4469 601L4486 616C4493 618 4501 615 4506 621C4501 620 4495 621 4491 624L4484 619C4481 624 4476 627 4470 628L4474 622L4457 621C4458 617 4463 618 4466 617C4461 615 4454 616 4450 611C4455 609 4459 605 4460 600L4449 602V591C4455 595 4462 599 4469 601ZM5385 622L5384 627C5380 628 5377 627 5375 624L5385 622ZM5678 622C5680 623 5680 624 5679 625C5678 626 5676 627 5675 626C5670 624 5675 619 5678 622ZM5889 622C5891 624 5890 625 5889 626L5885 625C5883 622 5888 620 5889 622ZM4212 614L4214 619L4202 626L4212 614ZM5693 618C5695 620 5691 621 5690 623L5683 622L5680 613L5670 617L5669 613C5677 612 5685 613 5693 618ZM4910 622L4900 620L4909 613L4910 622ZM4873 614V619L4862 622L4863 612L4873 614ZM5628 609C5621 609 5617 615 5616 621C5613 620 5611 619 5610 617L5616 615L5612 608C5617 607 5624 603 5628 609ZM4923 619L4914 621L4918 611C4920 613 4925 615 4923 619ZM4142 611V617L4135 620C4131 618 4133 614 4133 611H4142ZM5970 616V619H5967C5966 616 5967 615 5970 616ZM6239 611C6243 612 6244 615 6246 618C6241 621 6239 617 6237 613L6230 615L6228 611H6239ZM5575 600V608L5584 610C5581 612 5580 616 5578 619L5567 618L5565 615C5569 616 5574 616 5579 614L5571 608L5575 600ZM6000 611L5992 613L5982 618C5985 610 5993 607 6000 611ZM4056 614L4049 617L4042 616C4044 610 4051 612 4056 614ZM5742 594C5740 602 5735 609 5730 615C5727 614 5724 612 5721 613C5714 613 5707 611 5700 609C5705 609 5710 607 5714 603C5718 605 5723 607 5728 606C5734 604 5738 599 5742 594ZM4299 578C4303 583 4308 586 4313 589C4311 593 4311 597 4312 602L4317 603C4323 602 4330 601 4336 598L4337 614C4334 615 4330 616 4328 612L4331 608L4314 610L4303 603L4294 602L4288 597L4293 595C4294 589 4299 583 4295 577L4299 578ZM4882 607V610C4882 611 4881 612 4879 610C4877 609 4879 604 4882 607ZM5596 604C5598 605 5598 607 5598 608C5597 610 5596 611 5594 610C5591 609 5592 603 5596 604ZM4860 601C4865 600 4869 602 4872 604C4871 612 4859 613 4857 605L4850 608C4850 602 4856 596 4860 601ZM5857 606L5858 610L5848 609C5850 607 5854 607 5857 606ZM5551 596C5552 600 5553 604 5558 604L5560 598L5566 608C5561 610 5554 609 5549 608C5549 604 5548 599 5551 596ZM6227 591L6230 597L6224 601L6222 608C6221 606 6220 602 6221 599L6227 595L6222 590L6227 591ZM6125 599L6127 608H6123V604L6116 599H6125ZM6106 599L6097 606V599H6106ZM6262 602C6265 605 6263 606 6260 606C6258 606 6255 605 6255 602H6262ZM4896 600V604C4896 606 4894 606 4893 605C4890 603 4893 598 4896 600ZM4547 598L4555 599V600L4556 602L4544 604V598H4547ZM3893 600H3891V601C3892 603 3893 603 3893 600ZM4279 600L4278 602L4277 601C4276 600 4276 599 4279 600ZM5608 593C5608 597 5606 598 5603 600L5594 602C5598 598 5602 593 5608 593ZM4002 600C3998 599 3995 596 3992 594V584C3994 590 4000 594 4002 600ZM4280 591L4275 594V599C4266 599 4266 589 4264 583C4270 585 4276 586 4280 591ZM4086 594V598H4082C4081 594 4082 593 4086 594ZM6026 592C6024 593 6023 595 6022 598L6011 596L6010 586C6015 587 6021 589 6026 592ZM6233 590L6219 585L6217 596L6206 597L6200 592L6222 584C6227 583 6231 585 6233 590ZM6193 589L6196 596L6186 597L6185 595L6193 592L6186 588L6193 589ZM6040 588L6036 591L6042 597L6032 595L6033 589L6040 588ZM4336 588L4333 596C4329 595 4324 594 4322 590L4336 588ZM5599 589L5600 594L5594 595L5590 589H5599ZM4042 583L4041 587C4037 590 4032 596 4027 592C4027 588 4025 584 4028 582L4042 583ZM6249 586C6251 587 6252 588 6252 590C6252 592 6250 593 6248 592C6245 591 6245 585 6249 586ZM5982 587V591H5979C5976 589 5980 585 5982 587ZM4078 587C4079 587 4080 588 4079 590C4079 591 4078 592 4076 592C4073 591 4074 586 4078 587ZM4529 590C4523 591 4518 592 4512 591L4515 587L4529 590ZM4462 586L4464 588L4462 590C4459 589 4459 588 4462 586ZM5879 580L5883 583V587C5880 589 5876 581 5879 580ZM4088 586C4087.18 583.374 4086.51 580.703 4086 578C4091 578 4093 584 4088 586ZM6324 579C6323 582 6319 583 6317 584V578L6324 579ZM5916 580V583H5912C5911 580 5912 579 5916 580ZM4285 578C4286 580 4285 581 4284 581H4281C4279 578 4284 576 4285 578ZM5876 572V577C5875 579 5874 580 5872 580C5871 577 5870 571 5876 572ZM6430 577L6422 580L6424 574L6430 577ZM5628 573L5620 578C5617 579 5614 578 5612 574C5617 572 5623 573 5628 573ZM4024 573V577C4022 578 4020 579 4019 577C4016 574 4021 570 4024 573ZM4085 574V577H4082C4082 574 4083 573 4085 574ZM5605 574V577L5603 575C5602 574 5603 573 5605 574ZM5844 572L5843 576H5840C5839 573 5840 572 5844 572ZM4082 564L4078 575C4073 574 4075 568 4073 563L4082 564ZM4488 574C4485 574 4480 577 4479 572L4483 568L4488 574ZM6407 568L6411 570L6410 573C6406 575 6401 568 6407 568ZM6009 569V572C6008 573 6006 573 6005 571C6003 568 6008 566 6009 569ZM6226 569L6218 572L6220 566L6226 569ZM4027 568L4026 571L4023 570C4023 567 4025 567 4027 568ZM6482 565V570C6475 569 6469 565 6466 559C6471 561 6476 566 6482 565ZM4006 565L4018 566H4019V569L4020 570C4014 569 4008 568 4005 565H4006ZM4035 564C4036 566 4035 567 4034 568H4030C4028 565 4033 562 4035 564ZM6543 562C6537 564 6531 570 6525 566C6528 561 6533 559 6536 554C6540 553 6541 559 6543 562ZM4100 563V566H4097C4096 563 4097 562 4100 563ZM6203 560L6207 562L6206 565C6202 567 6197 560 6203 560ZM5968 553C5965 559 5959 562 5952 563L5953 560L5968 553ZM4868 555C4873 557 4868 565 4863 563C4857 563 4854 559 4850 555C4856 557 4862 556 4868 555ZM5860 544L5858 550L5861 554L5858 562H5852C5852 557 5854 553 5857 549L5849 550L5851 542L5860 544ZM5908 556C5910 557 5911 558 5910 560C5910 561 5908 563 5906 562C5902 561 5905 555 5908 556ZM4015 545C4018 549 4023 552 4028 553C4019 552 4013 559 4005 562V555C4002 552 4000 548 4000 544L3994 540C4001 542 4008 546 4015 545ZM6942 558V562H6938C6937 558 6939 557 6942 558ZM4883 556C4885 556 4886 558 4887 559C4888 561 4887 562 4885 562C4881 562 4878 556 4883 556ZM6278 557V562C6271 561 6265 557 6262 551C6267 553 6272 558 6278 557ZM6576 526C6583 526 6589 528 6595 532C6587 533 6579 530 6572 534L6573 539L6600 546C6594 553 6585 555 6576 557C6577 551 6573 547 6569 543L6572 540C6569 536 6567 532 6566 527L6573 526L6571 518L6576 526ZM5785 546L5786 552C5782 553 5777 555 5772 555C5774 551 5776 546 5775 541L5785 546ZM4112 554L4109 551L4108 546C4112 547 4115 551 4112 554ZM6547 543L6551 553L6540 550L6541 545L6547 543ZM5895 542L5894 552L5886 550L5895 542ZM6613 547V550H6606V546L6613 547ZM4060 534C4059 539 4058 544 4055 549L4047 550V539C4051 535 4055 532 4060 534ZM5904 546V549H5900C5899 546 5900 545 5904 546ZM4096 543L4098 545L4096 548C4093 548 4093 543 4096 543ZM6613 542C6609 544 6604 545 6601 541L6593 540L6598 537C6604 537 6611 535 6613 542ZM6620 541V543H6618C6617 542 6617 541 6620 541ZM4273 534C4271 536 4272 537 4273 538C4275 540 4277 540 4278 540C4285 540 4275 535 4273 534ZM6632 536V539L6629 540C6628 536 6629 535 6632 536ZM4530 534L4532 537C4532 538 4532 539 4530 540C4526 541 4525 532 4530 534ZM5844 530C5849 532 5857 529 5859 536C5856 540 5851 539 5847 540L5845 535L5836 536C5838 533 5841 528 5844 530ZM5868 536V539H5866C5865 538 5864 537 5868 536ZM6494 535L6495 538L6492 539C6490 537 6491 535 6494 535ZM3996 488C4006 483 4014 492 4023 495L4024 498L4002 496L3987 500L3989 509C3996 510 4005 511 4008 518L4018 513L4019 522C4024 523 4029 516 4034 520C4033 525 4029 525 4025 526L4023 533C4015 538 4005 540 3995 537V530C3989 526 3985 520 3980 515L3987 512C3985 504 3977 499 3976 490L3988 487C3989 489 3989 493 3991 494C3992 487 3988 483 3984 478C3989 481 3993 484 3996 488ZM4894 531L4886 536L4891 529L4894 531ZM5878 536C5878.09 533.334 5878.09 530.666 5878 528C5884 527 5884 537 5878 536ZM6515 532V535L6513 534C6512 532 6512 531 6515 532ZM4107 533C4103 533 4098 533 4094 531C4099 528 4102 524 4105 520C4108 524 4107 529 4107 533ZM6735 510H6753L6749 517L6753 515C6753 512 6753 509 6755 507H6766L6767 511C6766 515 6762 519 6757 519V524L6753 525L6756 528C6749 530 6741 532 6733 532V529H6742L6726 524C6730 520 6733 516 6734 511L6723 514L6725 503C6729 504 6732 507 6735 510ZM4058 523L4057 529L4042 532L4045 520L4058 523ZM3946 512V525L3947 526L3950 528L3951 529L3949 531C3942 532 3936 529 3930 527L3932 517C3937 516 3943 517 3946 512ZM5908 522L5910 530L5907 531L5904 524L5908 522ZM4128 528C4124 531 4119 532 4114 530L4118 518C4123 520 4125 524 4128 528ZM6290 527L6291 530L6288 531C6286 529 6287 527 6290 527ZM6311 524V527L6309 526C6308 524 6308 523 6311 524ZM6576 490C6580 494 6583 498 6588 500C6587 505 6586 509 6587 513C6595 515 6604 514 6611 509V526L6602 524L6606 520L6588 522C6583 519 6579 513 6573 515C6568 516 6565 512 6564 508L6568 507C6568 502 6574 495 6569 490C6571 489 6574 487 6576 490ZM5888 513L5892 510L5902 520C5894 521 5886 525 5878 525L5863 519L5864 513C5870 514 5874 517 5878 520C5882 521 5889 522 5888 517L5877 515C5873 515 5872 511 5875 509C5879 506 5886 508 5888 513ZM4132 520L4133 521L4134 523C4132 530 4124 519 4132 520ZM6856 515C6852 515 6849 518 6846 521C6842 523 6839 525 6835 522C6841 517 6848 515 6856 515ZM6934 518C6935 518 6936 520 6935 521C6935 522 6934 523 6932 523C6929 522 6931 516 6934 518ZM4070 518C4068 518 4067 517 4066 515L4065 511C4069 511 4069 515 4070 518ZM6493 508V517H6489L6486 510L6493 508ZM4039 507C4042 506 4045 502 4049 505C4053 506 4058 510 4054 514C4050 517 4046 518 4041 517C4039 515 4037 512 4037 509L4027 513C4027 511 4026 510 4024 509L4034 502C4037 502 4038 505 4039 507ZM5916 488L5917 493L5916 494H5913L5912 495L5921 503L5918 506L5928 517C5923 515 5917 515 5912 514L5888 504C5894 503 5899 502 5904 504L5916 488ZM6808 510L6819 509L6830 513L6805 517L6796 502C6800 505 6803 509 6808 510ZM4492 512L4494 514L4492 516C4489 515 4489 514 4492 512ZM5948 504C5947 507 5948 514 5943 513L5941 506L5948 504ZM4089 503L4090 510L4084 512C4083 509 4082 505 4084 502L4089 503ZM6289 501C6288.62 503.66 6288.28 506.327 6288 509H6285L6282 502L6289 500V501ZM4890 502V506C4889 508 4888 508 4886 507C4884 505 4886 500 4890 502ZM6849 504V507H6846C6845 504 6846 503 6849 504ZM6611 500L6610 506C6604 507 6599 505 6596 501L6611 500ZM6622 501V504H6619C6618 501 6619 500 6622 501ZM6837 500V503L6835 502C6834 500 6834 499 6837 500ZM7070 495L7072 501L7062 502L7065 495H7070ZM5506 479C5504 485 5503 492 5509 495C5503 496 5496 493 5490 492L5494 484C5499 484 5503 482 5506 479ZM5856 486C5856 489 5856 494 5852 494C5846 495 5842 491 5838 487L5856 486ZM6902 482C6902 486 6900 488 6897 487L6890 483L6902 482ZM3988 422L3991 423C3996 427 4004 430 4001 437C4006 438 4012 438 4014 443C4017 447 4011 451 4009 454C4011 457 4011 460 4011 464C4015 464 4019 465 4022 468L4031 462L4035 468C4041 464 4047 458 4054 457C4055 464 4056 471 4053 477L4056 484C4051 489 4040 488 4038 480L4046 476L4026 478C4022 479 4017 480 4013 478L3995 465C3992 464 3990 468 3988 469C3981 466 3975 461 3971 455C3976 453 3981 455 3986 456L3978 451L3980 444L3986 445C3984 442 3982 438 3983 435L3988 430V429L3986 427H3979C3982 425 3985 422 3988 422ZM6629 479V483L6625 484C6624 481 6627 478 6629 479ZM7183 480C7184 482 7182 483 7180 484C7179 484 7176 484 7176 482C7177 479 7181 478 7183 480ZM3989 477H3985C3983 474 3988 472 3989 474V477ZM7163 474L7162 477L7159 476C7159 473 7161 472 7163 474ZM7193 465L7192 473H7185L7186 464L7193 465ZM4104 465V468H4101C4100 465 4101 464 4104 465ZM5877 461H5878L5880 463L5872 468L5877 461ZM4260 450L4264 460C4257 461 4250 466 4242 463C4249 460 4250 452 4247 446C4250 450 4255 451 4260 450ZM4082 457V460H4079C4078 457 4079 456 4082 457ZM7331 452C7332 453 7331 455 7330 456H7327C7325 453 7329 450 7331 452ZM4053 441C4054 447 4051 454 4044 453C4036 453 4031 447 4026 443C4035 444 4044 442 4053 441ZM7170 445L7190 442V447C7182 445 7174 447 7167 452V438L7170 445ZM4076 449V451H4075C4073 450 4073 449 4076 449ZM4126 448V451H4124C4123 450 4122 448 4126 448ZM4072 445C4073 446 4072 447 4071 448H4067C4065 445 4070 442 4072 445ZM7311 446V449L7309 448C7308 446 7308 445 7311 446ZM5876 435V439C5875 440 5874 441 5873 440C5870 438 5873 432 5876 435ZM7290 434C7291 435 7292 436 7291 437C7291 438 7290 439 7288 439C7285 438 7287 433 7290 434ZM7225 399L7235 407V409L7236 412V413L7225 409C7224 414 7228 417 7231 420L7229 428C7231 432 7236 434 7238 438C7233 437 7229 433 7225 430L7227 426C7224 422 7219 418 7222 412L7216 403L7225 399ZM7441 428V432H7437C7435 429 7439 426 7441 428ZM7330 427V429H7328C7327 428 7327 427 7330 427ZM7459 420V428C7454 428 7452 424 7452 420H7459ZM7250 412L7249 421C7244 420 7241 415 7244 411L7250 412ZM4080 411V414C4079 416 4078 416 4076 415C4073 413 4077 408 4080 411ZM7448 394L7449 407C7444 408 7440 406 7436 404L7439 414L7432 413L7431 404L7448 394ZM7424 408L7426 410L7424 412C7421 411 7421 410 7424 408ZM4085 407V411C4084 412 4082 412 4081 410C4078 408 4083 404 4085 407ZM7531 394C7532 396 7532 397 7530 398C7529 399 7528 399 7527 397C7524 395 7529 392 7531 394ZM7397 386V394C7392 394 7389 389 7392 385L7397 386ZM7555 377V384L7562 387C7556 387 7550 389 7545 392L7536 387L7547 386L7535 382C7538 375 7548 375 7555 377ZM7511 386V390H7508C7507 386 7508 385 7511 386ZM4040 387V389H4039C4037 388 4036 387 4040 387ZM7496 379V381H7494C7493 380 7492 379 7496 379ZM7395 378V381L7393 380C7392 378 7392 377 7395 378ZM7525 370C7522 372 7523 377 7523 380C7517 379 7519 372 7519 368C7522 366 7523 369 7525 370ZM7497 367L7501 369C7502 371 7502 372 7500 373C7496 374 7494 368 7497 367ZM4071 368L4070 370L4069 369C4068 368 4068 366 4071 368ZM7628 350C7625 357 7621 363 7616 368L7614 361L7628 350ZM7530 359L7532 362C7528 363 7522 368 7520 362C7521 358 7526 360 7530 359ZM7507 359V362H7504C7503 359 7504 357 7507 359ZM7802 348C7805 349 7805 353 7806 356C7801 356 7799 352 7797 348L7790 351L7788 347C7793 347 7798 346 7802 348ZM7790 330C7786 334 7782 338 7782 343L7779 341L7780 333L7790 330ZM7824 337L7825 342C7822 341 7818 340 7816 337H7824ZM7675 335C7676 337 7675 338 7673 338C7671 339 7669 338 7669 336C7669 333 7674 333 7675 335ZM7530 332C7530 338 7524 335 7521 336V331L7530 332ZM7777 319C7776 323 7778 328 7775 331L7764 333L7758 327L7777 319ZM7751 323V331H7741L7749 325L7742 322L7751 323ZM7809 320C7811 320 7812 321 7813 323C7814 324 7814 326 7812 326C7808 327 7805 321 7809 320ZM7666 317L7668 320C7668 322 7668 323 7666 324C7662 324 7661 316 7666 317ZM7662 308L7661 312H7656L7654 307L7662 308ZM7783 300C7784 302 7782 304 7781 304C7779 305 7777 304 7776 302C7777 299 7781 298 7783 300ZM7828 254L7826 256L7828 258V254Z" fill="#001B33"/>
<path d="M6963 628L6956 625C6941 618 6923 616 6911 605C6907 601 6906 597 6911 593L6933 580C6923 580 6913 583 6904 587L6896 590C6885 596 6881 605 6891 611C6905 622 6925 624 6938 636L6963 628Z" fill="#001B33"/>
</g>
<g clip-path="url(#clip1_122_14)">
<path d="M3945 1000H-55V274L-43 272L-49 282C-40 279 -35 271 -30 264C-28 268 -24 272 -27 276C-30 281 -37 285 -37 292L-46 295C-42 297 -37 303 -32 301L-26 289C-21 292 -16 293 -11 290C-12 286 -14 281 -18 278V268C-10 266 -2 269 5 269L7 256C5 259 4 262 1 263L-9 260C-11 252 -4 246 3 246C6 241 9 234 16 235L11 232C16 229 21 227 27 226L28 240L35 242L34 251H41L34 260L42 267C41 271 38 274 35 277L47 279L46 285C38 290 30 293 21 294C30 297 39 292 49 290C48 294 49 300 44 303C38 310 29 313 21 315C28 315 36 316 43 319C49 320 55 317 60 319L59 328L69 312L72 315L71 306C76 309 82 309 87 306C82 305 77 302 78 296L91 295L85 288C91 287 96 286 101 283L102 298L106 296V290L118 291C122 287 123 283 126 279L119 271C125 268 123 261 123 255L131 256L128 251L141 247C143 255 141 263 139 270L135 273C140 279 145 286 154 286C150 288 147 291 143 292H137L142 304C143 314 149 323 153 332C155 338 159 340 163 344L171 340C169 329 174 319 179 310C188 312 192 321 199 326C200 333 192 331 188 330L198 339L203 332C205 338 203 343 201 348H209C211 353 215 357 220 360V365L215 366L216 369H228V375C235 375 240 371 245 367C237 366 231 364 224 361L223 356H240C233 353 224 351 221 342C227 342 231 345 236 347H246L252 353L253 339C247 341 241 342 234 342C234 338 235 335 233 331C229 326 222 322 220 315L234 322V319L243 321L234 308L247 304L237 289L248 294C245 289 245 283 245 277L263 282L256 290L271 289L269 299H262L268 306L280 300L269 316L280 313C276 318 269 320 263 323C264 328 271 329 275 332C279 329 283 327 288 326C288 330 289 335 286 339L273 347C269 346 266 345 262 346L272 353L257 348V349L258 352V353C268 358 278 354 287 350C285 356 282 362 277 365C284 363 290 359 298 362C293 367 287 368 281 367V372L290 369L282 380L296 376C294 378 293 381 290 382C285 384 280 384 278 390L290 387L302 396L300 378L305 376L306 382L307 370L311 378L319 376C314 380 310 385 312 391L318 387L319 392C322 390 324 386 327 388C335 390 341 396 349 396L361 399L348 384H352L345 376L350 370L344 366V362L355 368L351 356L365 362C364 357 362 352 362 346L371 336L373 346L381 342C376 346 372 351 373 358L381 353V357L390 356C386 362 384 370 380 377L399 372C395 377 390 381 388 388L402 381C400 386 398 391 394 395L395 403L387 410L402 411C396 417 388 423 386 432C391 431 397 430 400 425C404 421 409 419 414 418L419 424L424 420V429C424 434 422 441 429 443C433 447 438 445 441 442L433 432C434 428 433 423 437 421L456 423L457 410L453 419L441 415C442 412 441 407 445 406C452 402 459 395 463 387C467 387 471 386 474 384C476 390 477 396 483 399L482 407L488 405C487 409 485 412 482 416C487 418 491 422 497 423L509 425C500 419 497 409 492 401L496 396L489 392L498 387L501 381L512 388L510 372L518 361L521 370L527 367L519 380L534 385L533 400C543 398 552 391 559 383L555 381L551 367L553 359L564 361L563 367L570 365C569 371 567 377 572 382C567 387 568 394 569 401L586 400V406L595 409L585 412L597 418C590 427 581 420 574 415L572 426L585 424C583 429 580 433 576 437C579 442 586 440 591 441L592 433C599 429 606 425 610 417C613 411 620 411 625 410C626 416 628 422 634 425L633 432L639 433L632 442L640 448L637 458L647 460L639 471H648V479L634 491C647 494 660 495 673 496L666 485L677 490L682 486C678 484 675 481 674 477L687 475L680 469L697 465C697 470 697 475 694 480L703 477L695 489C702 492 710 492 717 489L708 478L716 481L714 467L731 471L723 477L734 478L731 487C732 490 733 494 732 497C732 501 729 506 732 510C738 517 747 520 751 527C757 536 757 546 759 555C763 563 773 565 780 566L819 577C823 577 826 579 828 580L820 564L833 571C829 563 824 554 824 545L837 546L832 538L845 540C841 534 830 536 828 527L842 531C836 525 831 519 827 512C834 510 840 515 847 516C842 513 838 508 836 501L856 507L854 514C857 508 862 504 867 500L850 504C854 502 858 500 860 496L848 497L847 493H839C836 488 834 482 835 476L849 484L861 475C855 472 848 469 843 464L854 467L843 451L854 457L861 452C856 450 851 446 852 440H868L859 432C865 431 873 433 877 427C878 433 879 440 875 445L887 440L876 455L889 459L880 471L889 473C894 470 899 467 904 466C902 473 895 476 891 482L887 493C881 494 875 492 870 490V503C877 499 886 500 893 496C896 493 899 493 903 494C898 501 890 504 883 507H895C899 507 899 512 901 514L905 509L912 508V500L923 499C920 495 918 490 918 485L932 487V482H924V477C930 472 935 465 943 460L950 472C955 479 949 491 959 495C962 492 968 489 969 484L978 466C982 459 983 450 986 442L977 444L969 437L979 436L989 422L982 424C985 418 982 413 981 407L982 398L994 401L993 408L1001 405L998 417L1003 422L998 429L999 442L1017 440L1015 447L1024 450L1025 453H1019L1017 455L1028 462L1016 465C1013 462 1010 459 1006 458L1002 468L1016 466C1014 471 1010 475 1007 479C1010 484 1018 483 1023 484L1013 488L1031 490L1027 496L1038 495V488L1053 489C1054 482 1055 476 1050 470L1054 466L1052 457H1058C1059 451 1064 450 1069 449C1071 456 1070 462 1067 468L1070 471L1063 472C1067 479 1073 484 1081 486L1065 491C1068 496 1070 502 1071 508C1075 520 1083 530 1090 540C1093 547 1100 544 1105 545C1106 541 1109 538 1113 536L1125 545L1132 541L1123 539L1117 524C1125 527 1134 531 1143 532L1156 527V522C1150 524 1143 529 1136 528C1140 526 1144 523 1149 522L1148 521L1147 518L1146 517C1142 518 1138 519 1136 523L1131 518V517L1134 515L1135 514L1121 513L1116 504L1117 492L1133 501C1139 499 1143 495 1148 491L1149 489C1140 486 1132 483 1126 476L1141 480C1136 473 1130 467 1126 459L1142 467L1150 458L1142 457C1138 454 1139 449 1138 444L1158 446C1156 441 1151 438 1146 435C1153 434 1160 432 1167 433L1170 427C1172 435 1174 444 1169 451L1183 444C1180 454 1170 459 1169 469L1173 466L1186 468L1175 485L1187 487L1203 478C1205 483 1209 486 1214 488V492L1220 491C1220 497 1219 503 1224 507L1218 514L1219 527L1236 526V532L1246 536V527C1238 523 1229 519 1226 511L1231 509L1243 516C1250 519 1258 518 1265 522L1255 510C1256 504 1251 501 1248 498L1254 496C1251 492 1248 489 1247 484L1259 491L1256 479C1260 480 1265 482 1269 485C1268 480 1266 474 1267 469L1275 461L1277 468L1283 467C1280 470 1277 475 1277 480L1291 481C1290 487 1290 493 1285 497L1286 499L1281 504C1288 500 1295 496 1303 494C1300 500 1293 504 1292 511L1305 504L1298 518L1299 526L1291 533L1306 534C1300 540 1293 546 1290 554L1315 549L1309 558C1317 556 1322 548 1327 542L1330 552L1319 568L1311 571L1321 581C1326 577 1328 571 1331 565L1339 569L1345 565L1337 555L1339 545L1347 544V555L1350 546L1360 547L1361 534C1359 537 1358 540 1355 541L1345 538C1345 533 1346 529 1351 528C1357 525 1361 519 1365 514C1367 508 1374 508 1378 506L1381 518L1388 521L1385 529H1392L1386 538L1394 544L1388 553L1398 555C1404 565 1411 575 1415 586C1416 592 1422 592 1427 593L1419 580C1422.68 581.628 1426.35 583.295 1430 585V583H1431C1427 578 1426 572 1427 566L1439 572C1434 565 1426 560 1425 551L1426 550L1428 549H1429L1445 560L1452 558C1445 552 1442 543 1436 537C1431 532 1431 525 1430 519C1435 524 1441 529 1449 529L1450 519C1442 515 1434 511 1430 503L1431 502H1434L1435 501L1447 508C1454 511 1462 510 1469 514L1459 502C1460 496 1455 494 1452 491L1457 488C1455 484 1452 481 1451 476L1463 483L1460 471C1464 472 1469 474 1473 477L1471 465C1469 459 1475 456 1478 453L1481 460L1487 459C1484 462 1481 467 1481 472L1495 473C1494 479 1494 485 1489 489L1490 491L1485 496C1492 492 1499 488 1507 486C1504 492 1497 496 1496 503L1509 496L1502 510L1503 518L1495 525L1510 526C1504 532 1497 538 1494 546L1519 541L1513 550C1521 548 1526 540 1531 534L1534 544L1523 560L1515 563L1525 573C1530 569 1532 563 1535 557L1543 561L1549 557L1541 547C1541 542 1543 538 1545 535L1552 538L1551 547L1554 538L1564 539L1565 526C1563 529 1562 532 1559 533L1549 530C1549 525 1550 521 1555 520C1561 517 1565 511 1569 506C1571 500 1578 500 1582 498L1585 510L1592 513L1589 521H1596L1590 530L1597 536L1593 547H1603C1602 550 1600 553 1597 555C1591 560 1584 561 1577 562C1586 565 1595 560 1604 558C1603 564 1601 571 1595 574C1590 579 1583 579 1577 581L1598 584L1615 585L1610 599H1603L1607 608H1620H1611L1617 594L1629 599L1638 593L1622 584H1630L1623 572L1633 577L1641 571H1633L1630 563H1642L1637 556C1643 556 1648 554 1653 551L1652 566L1659 564L1651 576L1661 578L1657 589L1663 591V590L1665 589H1666L1663 580L1671 576L1665 566L1672 568L1670 556L1685 558L1679 564L1691 565C1691 569 1688 572 1684 574L1689 577L1699 574L1692 582L1697 586L1684 594L1693 598L1704 595L1709 604L1714 603C1710 597 1708 591 1706 585C1718 585 1729 583 1741 581C1730 580 1716 573 1717 560C1725 562 1734 567 1742 562C1732 563 1722 558 1717 550L1727 549L1723 538L1730 533C1727 530 1722 525 1728 522L1729 518C1734 515 1736 509 1738 504H1739L1741 505H1742C1750 507 1753 516 1759 520C1762 523 1769 526 1768 532L1759 537C1756 535 1755 531 1753 528L1755 541H1764L1767 549L1766 540H1776C1777 547 1773 554 1769 560C1774 561 1779 562 1784 561C1786 565 1786 571 1791 571C1794 570 1797 567 1799 564L1793 562L1784 545C1783 542 1785 540 1786 537C1791 543 1795 549 1803 552L1797 543L1820 548C1820 539 1811 535 1806 529C1811 529 1816 527 1821 528L1813 522L1814 513C1810 509 1808 505 1806 501L1819 507C1818 500 1811 497 1809 491C1816 493 1824 496 1830 500C1825 495 1821 487 1821 479L1834 477C1833 472 1831 468 1827 464L1833 466L1837 458L1838 467L1840 464L1844 466L1842 482L1852 479V488C1857 486 1861 482 1863 477C1870 480 1876 484 1882 489C1887 481 1898 481 1901 473L1886 468C1881 466 1876 461 1872 456L1889 462C1886 452 1877 446 1872 437C1880 439 1886 444 1892 448L1895 442C1894 437 1891 433 1888 429C1889 425 1889 422 1887 418C1895 421 1903 421 1912 420C1909 414 1902 411 1896 407C1902 406 1910 409 1914 404L1923 407L1925 397C1929 402 1928 409 1929 415C1929 420 1925 424 1923 428L1942 418C1939 428 1931 435 1925 442L1935 447H1946C1942 455 1936 462 1931 469C1937 469 1942 469 1947 472C1953 466 1960 462 1968 460C1967 463 1967 468 1964 471C1957 476 1950 481 1945 488L1946 502C1936 504 1925 503 1916 498V518L1927 516L1922 510L1943 513L1957 503L1965 506L1957 516C1950 519 1942 520 1936 526C1945 525 1955 524 1963 528L1962 533C1954 536 1946 538 1938 543L1930 541C1934 546 1938 553 1945 554H1965C1956 559 1944 557 1936 565L1958 573L1941 574L1942 581L1935 574C1936 579 1939 583 1942 585L1941 590C1936 587 1929 584 1923 587L1930 593C1938 599 1948 595 1956 598L1961 589H1971L1966 581L1987 580L1977 574C1984 573 1993 573 1999 566L1989 562L1982 552L1971 548L1972 544L1983 538L1974 536L1975 531H1985L1982 522L2004 524L2006 508L1999 499L2006 495L2003 480L2013 482L2010 475L2026 471L2024 481H2028C2025 487 2021 495 2026 502L2016 500L2029 516L2041 518L2030 525H2020L2027 540L2024 544L2034 557L2029 558C2036 562 2039 571 2042 578C2047 582 2052 586 2053 592C2060 594 2066 596 2073 596L2064 592C2062 584 2060 576 2062 568C2062 560 2069 554 2073 546C2082 552 2089 561 2097 568L2089 574L2082 569C2085 574 2089 578 2094 581L2099 574C2104 580 2100 587 2097 592L2109 594L2110 604H2120V612L2113 617L2127 618C2129 619 2130 622 2131 624C2139 626 2145 621 2149 615C2140 613 2129 613 2124 604C2130 601 2138 602 2145 602C2137 598 2128 596 2123 588L2127 584C2133 589 2139 593 2147 592C2152 592 2155 598 2160 596L2161 581C2154 585 2146 585 2138 585V573C2132 566 2122 562 2120 552L2133 558C2137 562 2143 559 2149 559L2138 544L2154 539C2149 533 2144 528 2140 521L2155 528C2149 521 2150 512 2153 504L2155 511C2162 510 2168 511 2175 512L2164 522H2181C2181 525 2183 529 2180 531C2178 534 2174 533 2170 534L2179 542L2193 534C2190 541 2184 546 2181 554L2193 550C2188 557 2179 560 2171 563L2186 574L2201 565L2203 571L2219 562C2224 556 2229 548 2232 540C2227 545 2223 551 2216 553C2210 554 2202 554 2199 548L2207 538L2205 533C2210 529 2214 525 2220 523C2220 518 2221 514 2223 510C2225 505 2230 503 2233 499C2231.66 498.675 2230.33 498.342 2229 498L2228 496L2239 484L2235 478C2238 473 2244 467 2242 460L2234 461L2231 466L2232 458L2227 461L2221 452L2238 453L2235 446C2240 443 2244 438 2248 433L2237 435L2242 430L2236 424L2239 421C2235 415 2236 408 2238 401C2244 401 2249 405 2255 405L2251 410L2253 414L2262 410V423L2261 424L2258 425L2257 426L2269 432L2258 442C2261 448 2261 454 2260 460C2269 461 2278 458 2286 459C2284 462 2283 466 2285 469L2294 468L2297 475H2287L2285 478L2298 483L2299 487L2283 494L2279 503C2277 506 2273 507 2269 508C2274 518 2286 514 2294 519H2281V525C2289 524 2298 524 2306 526L2299 533L2313 536L2312 543H2302C2305 548 2310 551 2315 554L2305 550L2297 555L2290 549C2290 555 2293 559 2296 563C2290 561 2288 555 2286 549H2271C2272 554 2272 559 2276 563C2279 565 2282 565 2285 565L2282 572L2288 573L2287 578C2296 580 2305 585 2315 583L2320 598C2317 600 2314 595 2311 594L2308 597C2304 595 2300 594 2295 594L2301 601C2295 602 2288 601 2282 599C2287 603 2292 608 2295 615L2299 614L2305 620L2304 626C2309 631 2313 639 2322 639C2343 643 2364 637 2385 641C2377 635 2367 637 2359 632C2354 628 2354 623 2355 618L2368 624L2379 615C2373 613 2367 610 2362 605L2370 606L2361 593L2373 599L2379 594L2372 591L2371 583H2385L2377 576C2383 575 2389 574 2395 571C2395 577 2395 583 2392 588L2403 583L2393 597L2405 600L2397 612C2405 614 2412 610 2419 607C2416 614 2410 618 2406 623L2404 633L2387 630L2388 642L2392 641L2393 637L2399 638C2406 639 2411 631 2417 634C2414 640 2407 643 2401 645L2416 648C2412 650 2409 654 2406 658C2412 659 2418 658 2424 657L2419 654V648H2427L2428 640L2436 638L2433 627C2436 623 2441 626 2445 626L2438 620C2444 614 2449 605 2457 602L2464 616C2465 623 2464 631 2471 635C2475 631 2480 628 2482 623C2488 611 2493 599 2496 586C2491 585 2485 584 2481 581C2488 579 2494 574 2498 568C2493 561 2491 552 2493 544C2502 545 2510 553 2509 563L2512 566C2507 571 2508 578 2509 585L2525 584L2524 590L2533 591L2529 598L2536 604C2532 604 2529 606 2526 605L2514 599L2512 610L2524 608C2521 612 2519 617 2515 621L2531 624C2528 625 2524 625 2522 629H2539L2535 634L2554 642V635C2549 631 2544 628 2541 622C2550 625 2559 629 2569 631C2563 625 2557 616 2558 607L2563 600L2572 604C2571 600 2569 596 2570 592L2575 586L2578 591L2582 590L2576 599L2588 600L2586 612L2595 611L2588 621L2597 619L2590 638L2597 639L2587 654L2599 652L2603 656L2615 646C2615 655 2609 662 2602 667L2609 673C2610.97 670.308 2612.97 667.641 2615 665L2616 666H2617L2625 662C2622 657 2620 652 2621 647L2637 648L2625 640C2631 636 2636 631 2640 625C2642 622 2646 621 2649 620L2658 637V654L2665 655C2661 661 2654 664 2647 666L2666 662C2665 672 2655 676 2647 679L2670 682C2676 685 2682 687 2689 688L2681 682C2682 679 2681 676 2679 673L2687 676C2688 673 2686 670 2685 667L2693 666L2690 660H2699C2702 665 2703 670 2700 675L2706 677L2703 685L2715 682L2709 691C2727 695 2745 699 2764 699C2771 697 2770 690 2769 685C2765 685 2763 689 2760 691L2758 685L2749 695L2742 689C2735 690 2728 688 2721 686C2724 681 2728 677 2734 674C2741 671 2745 664 2751 657C2754 653 2761 652 2765 648C2769 642 2773 636 2776 628C2770 634 2765 641 2757 641C2753 641 2749 642 2746 639C2744 634 2749 630 2751 626L2749 621L2764 611L2767 599C2769 594 2774 591 2778 588L2772 587L2782 574L2780 567C2783 561 2787 557 2787 551L2779 550L2775 555L2776 550C2772 548 2764 548 2766 542C2771 541 2777 542 2782 543L2779 536C2784 533 2788 528 2792 524L2781 526L2786 520L2780 515L2784 513L2778 505L2781 500V492C2786 492 2791 494 2794 497L2798 496L2795 504L2806 502L2804 519L2811 522L2802 532C2804 538 2804 544 2804 550C2812 551 2821 549 2829 548C2828 551 2824 555 2828 558C2831 559 2839 557 2839 563L2827 566C2831 569 2835 572 2841 572V578C2835 578 2826 583 2823 576C2820 573 2816 572 2812 571L2808 585L2827 582C2826 590 2819 595 2813 599L2824 605V614L2839 612L2825 606L2843 602C2849 607 2857 611 2866 608C2862 605 2857 604 2852 603C2853 596 2849 591 2846 584C2855 589 2864 592 2873 594C2882 597 2889 590 2897 589L2895 583C2887 586 2880 592 2870 591L2872 587C2877 586 2883 585 2887 582C2885 580 2883 576 2880 577C2875 577 2872 581 2870 583L2864 578L2869 572L2853 573L2846 563C2843 558 2846 551 2846 546C2854 548 2861 552 2867 557C2871 556 2872 551 2877 550C2880 548 2888 546 2886 541L2872 537C2866 534 2862 529 2858 524L2875 530C2872 520 2861 514 2858 504L2878 515C2879 513 2882 511 2881 508C2880 504 2877 501 2875 497L2874 485C2881 488 2889 488 2898 487C2896 480 2888 478 2882 474L2898 473L2900 469L2909 474L2913 463L2916 481C2917 486 2912 490 2910 494L2929 486L2922 499L2911 509C2918 514 2925 516 2934 515C2929 523 2923 530 2919 538C2924 537 2930 535 2934 532L2931 541C2940 537 2947 530 2957 528C2956 532 2955 537 2951 540L2931 557C2933 561 2936 567 2932 571C2922 574 2911 573 2903 566L2902 582C2902 584 2901 587 2904 587C2907 590 2911 586 2914 585L2909 580C2917 581 2924 583 2931 582L2947 572L2953 576L2949 582C2943 590 2931 588 2924 596C2933 595 2943 594 2951 598L2950 604C2943 606 2937 611 2929 609L2928 613L2917 612C2922 617 2926 624 2933 625H2954C2943 630 2931 629 2922 636L2946 644L2929 646L2930 651L2924 653L2931 657L2929 662C2923 659 2917 657 2910 658C2913 661 2915 664 2918 665C2925 671 2935 667 2944 670V663L2951 662L2950 652L2956 647L2950 640L2955 638L2962 618C2967 620 2972 620 2975 624C2979 631 2986 635 2992 640C2994 646 2987 650 2983 653H2999C2999 660 2996 666 2993 673H3007C3008 678 3011 683 3015 685C3017 682 3025 679 3020 676C3013 670 3006 661 3008 652L3024 665L3021 657L3042 662C3042 653 3033 649 3028 643L3040 642C3034 635 3034 625 3029 617L3041 621C3038 616 3035 611 3030 607L3044 609L3040 593C3045 592 3051 592 3055 597C3054 591 3053 586 3049 581L3053 582L3057 576C3060 579 3063 581 3064 584L3062 598L3072 593L3080 600L3077 614C3075 621 3070 626 3066 631C3071 631 3077 631 3082 629C3087 626 3093 623 3100 622C3097 630 3089 633 3083 637L3082 645C3089 645 3095 642 3100 640C3098 651 3090 661 3082 670L3084 676C3091 672 3097 667 3105 664C3106 675 3093 677 3089 686L3102 681L3104 688C3099 693 3094 698 3093 706C3117 704 3141 705 3164 701C3160 699 3153 696 3157 689C3164 689 3172 686 3179 683C3177 679 3174 676 3169 674C3171 672 3172 669 3175 668H3192C3185 661 3173 662 3164 661L3167 656C3157 655 3150 648 3142 644L3145 639C3151 640 3156 638 3159 633C3166 637 3175 641 3182 636V629L3177 627L3170 632L3167 611C3173 610 3178 607 3184 604L3185 613L3190 609H3196C3193 604 3189 598 3190 591C3191 587 3195 584 3198 581C3201 583 3203 586 3207 587C3214 586 3221 582 3223 575L3217 578L3215 567L3206 568V563L3212 560L3207 552L3213 545C3223 550 3234 550 3245 551C3244 548 3243 544 3240 543L3222 537L3220 524C3226 523 3229 520 3231 515L3240 517V510C3248 504 3252 496 3256 488L3262 493L3269 485H3276C3277 491 3275 497 3277 503C3279 509 3287 507 3291 508L3287 524L3295 518L3296 527C3294 531 3289 533 3285 536L3301 546C3298 552 3294 559 3289 563L3309 565L3305 577L3299 578L3302 567C3298 571 3297 577 3294 581C3286 587 3276 588 3267 587C3276 596 3290 588 3300 586C3306 584 3312 583 3313 577L3329 578C3329 574 3330 569 3328 565C3326 559 3328 552 3328 545H3333C3334 540 3339 538 3344 538C3345 546 3345 555 3339 561L3347 571L3356 573C3352 578 3346 578 3341 579C3344 587 3345 596 3349 604C3354 612 3357 622 3366 626C3376 629 3386 626 3396 628C3397 622 3395 617 3392 613H3399L3403 602L3397 603L3390 592L3392 580L3407 589C3412 583 3418 580 3425 578C3416 575 3407 572 3401 564L3415 568L3401 548L3417 556L3426 546L3419 549C3415 545 3413 539 3413 533C3420 534 3427 536 3434 533L3421 523L3442 521L3445 516C3447 524 3449 533 3443 540C3448 538 3452 535 3457 534C3455 541 3449 547 3444 552C3449 555 3455 557 3461 557L3450 575L3462 570L3461 577L3473 565C3484 567 3494 560 3505 559L3502 553L3509 552L3505 545L3517 542C3521 537 3523 530 3521 524C3516 526 3510 527 3505 525L3501 532L3500 524L3493 533L3483 527L3472 531L3485 523L3486 519L3477 520C3473 519 3474 513 3473 510L3490 508C3487 505 3483 502 3483 498C3492 496 3502 496 3510 499L3511 491L3496 492C3502 486 3511 488 3518 485L3525 478C3520 478 3515 475 3510 473L3514 467C3507 461 3498 457 3490 454L3491 449C3495 448 3501 449 3504 445C3506 443 3504 440 3504 438L3494 442L3495 433C3500 434 3506 435 3509 429L3504 420C3514 422 3524 425 3534 423C3533 416 3534 409 3536 402L3525 391L3537 384L3532 382C3533 377 3534 371 3532 366L3542 370L3545 366L3540 359L3546 361C3549 356 3555 354 3561 355L3560 365L3564 368C3561 372 3559 377 3559 382L3555 389L3563 394L3548 392C3552 398 3558 402 3563 407L3562 413L3580 415C3577 417 3575 421 3573 424L3563 416L3568 425C3563 423 3556 422 3554 428C3556 434 3561 438 3563 444C3563 447 3560 448 3559 451C3564 457 3571 461 3572 469H3566L3575 476C3579 482 3580 489 3581 495L3600 508L3595 511L3604 523L3602 529C3596 530 3591 532 3585 530C3577 528 3572 520 3567 514C3569 524 3575 531 3580 539C3584 545 3593 543 3597 550C3603 557 3608 566 3617 570C3624 573 3629 579 3633 585L3645 582L3644 577L3634 570L3635 564C3643 569 3651 573 3660 571V570L3661 567L3662 566L3650 557L3643 562C3635 556 3626 550 3624 540C3635 540 3644 553 3656 548C3652 541 3645 537 3638 533L3636 521C3629 520 3624 516 3621 510C3627 509 3632 507 3637 504C3645 512 3656 519 3668 515L3664 510L3649 508L3652 496C3646 493 3641 488 3643 481L3656 488C3663 492 3670 491 3676 494C3681 496 3688 499 3692 495C3698 491 3704 489 3710 489V480L3702 481C3697 484 3694 488 3689 490H3675L3676 485C3683 485 3691 483 3697 480C3696 477 3695 474 3692 472L3680 473L3675 482C3673 479 3670 476 3666 474L3665 463C3661 465 3657 467 3652 467C3647 461 3643 454 3640 447L3643 427C3647 430 3652 433 3657 434C3664 436 3666 446 3675 445L3676 437C3685 434 3696 432 3698 422L3677 416C3670 412 3663 407 3658 400C3667 401 3674 406 3683 407L3676 396C3671 387 3659 382 3658 371C3669 374 3676 383 3685 387C3688 383 3690 378 3691 374L3696 378C3698 375 3698 371 3697 367L3689 372L3677 359L3683 354L3677 345C3689 349 3700 350 3712 348C3711 337 3697 337 3692 330H3714L3715 322C3719 326 3724 328 3729 330L3731 315C3739 324 3735 337 3739 347C3735 350 3728 354 3730 360C3738 354 3747 349 3757 346L3746 367C3738 368 3735 375 3731 380L3741 382L3745 388C3750 386 3756 386 3761 386C3758 398 3745 406 3742 418C3750 418 3757 414 3764 411C3761 414 3758 418 3758 423C3763 422 3767 418 3770 415C3777 410 3785 407 3793 404L3790 415H3799L3805 422L3811 419L3805 426L3809 430L3820 426C3818 432 3819 438 3820 444L3815 445C3818 449 3823 451 3827 453C3823 457 3818 461 3816 466C3817 473 3819 480 3818 487C3828 488 3838 487 3847 484L3849 488L3843 496C3848 499 3854 499 3859 498C3858.33 499.329 3857.66 500.663 3857 502H3861L3859 508L3848 502L3849 510H3854V515L3863 514L3865 522L3845 526L3847 529L3841 535L3842 540L3829 548C3836 559 3851 552 3859 561L3843 560V568C3853 567 3865 564 3874 570C3870 572 3867 575 3865 578L3883 580L3881 589L3875 592L3869 588L3874 598L3862 605L3853 594C3854 598 3853 602 3855 606L3863 612L3854 611L3850 597L3832 596L3829 604L3837 603C3839 608 3840 613 3846 615C3857 620 3870 621 3883 623C3888 618 3893 612 3896 605L3888 598C3890 585 3908 582 3907 569L3895 565C3896 556 3907 554 3912 547C3919 539 3920 527 3921 516C3926 505 3937 498 3945 489V1000ZM3081 687C3079 689 3077 692 3077 695C3080 694 3085 693 3087 689L3081 687ZM3438 688L3439 691L3442 690C3442 687 3440 687 3438 688ZM3179 678L3186 686C3192 684 3198 678 3196 670C3189 671 3184 675 3179 678ZM2840 681C2839 682 2839 684 2841 684H2845C2847 681 2842 678 2840 681ZM2988 680V684C2989 685 2991 685 2992 683C2994 680 2989 678 2988 681V680ZM3306 674C3308 676 3308 680 3311 680C3313 678 3313 674 3314 671L3306 674ZM3472 673L3469 676C3468 677 3467 678 3468 680C3471 681 3476 674 3472 673ZM3443 671L3451 678L3453 670L3443 671ZM3201 670L3207 677L3213 670H3201ZM3029 668C3030 671 3032 673 3035 674L3043 676C3041 670 3034 670 3029 668ZM3681 666L3679 669C3679 671 3680 672 3681 672C3684 672 3684 666 3681 666ZM2538 643L2537 650C2530 647 2522 645 2515 648C2516 652 2519 657 2524 658C2525 661 2526 664 2529 666C2534 668 2540 669 2546 669C2542 666 2537 662 2537 656C2543 657 2548 662 2553 665L2556 662L2542 643H2538ZM3545 656C3545 659 3547 661 3549 663L3557 668C3553 664 3550 659 3545 656ZM2640 664L2641 667L2642 666C2643 664 2643 663 2640 664ZM3211 644L3212 651L3220 652V666L3226 658L3224 648L3211 644ZM2588 662L2587 665L2595 662L2597 659L2588 662ZM3448 660L3449 663L3450 662C3451 660 3451 659 3448 660ZM2441 654L2442 661C2445 662 2449 662 2452 660L2441 654ZM2825 657V660H2828C2829 657 2828 656 2825 657ZM2878 653C2877 653 2876 654 2876 656V659C2880 662 2883 650 2878 653ZM2815 636C2811 643 2817 652 2825 652C2832 656 2840 663 2848 657C2848 653 2843 651 2840 648C2841 643 2845 646 2847 648C2851 650 2855 650 2859 650L2861 646L2853 641H2840L2832 636C2832 640 2834 645 2836 648L2832 647C2832 643 2831 640 2829 636C2825 638 2820 637 2815 636ZM3597 630C3596 634 3597 641 3602 643L3629 658L3615 645C3613 643 3613 639 3610 636H3601C3599 635 3597 632 3597 630ZM3454 653L3465 658C3466 655 3466 651 3468 648C3462 648 3457 649 3454 653ZM3669 654V657H3673C3674 654 3673 653 3669 654ZM2477 649L2467 648L2455 652L2479 655C2484 651 2486 645 2489 640C2485 643 2482 648 2477 649ZM3310 650C3309 651 3310 653 3311 653H3314C3316 651 3312 648 3310 650ZM2883 645L2884 652C2888 652 2888 647 2889 645L2887 644H2883V645ZM3526 638C3527 644 3533 648 3537 652C3536 645 3534 638 3529 633L3526 638ZM3437 644L3438 651L3441 652V644H3437ZM3649 645V649H3654C3657 646 3652 642 3649 645ZM3676 643C3674 644 3675 646 3676 647H3680C3682 644 3678 640 3676 643ZM3205 624L3199 629L3208 627L3205 636C3213 631 3221 627 3230 627L3225 635L3230 633L3231 645C3238 643 3245 644 3251 648L3254 643C3256 642 3259 641 3258 638H3257L3255 637H3254C3243 638 3236 626 3225 625C3218 625 3212 626 3206 624H3205ZM3268 633L3267 645L3283 647L3284 642L3271 638C3277 634 3283 633 3289 631C3282 631 3275 631 3268 633ZM2438 644L2439 647L2440 645C2441 644 2441 643 2438 644ZM3454 621C3461 621 3468 619 3475 622V627C3468 630 3461 630 3455 634L3449 633C3452 641 3460 647 3469 645L3478 633C3476 627 3481 622 3478 616C3470 614 3460 614 3454 621ZM1966 642C1966 644 1967 645 1968 645L1972 644C1972 641 1967 641 1966 642ZM3577 580L3574 593C3579 598 3584 603 3591 606C3600 608 3605 618 3612 623C3621 628 3628 635 3635 642C3639 643 3639 639 3639 636C3634 630 3631 623 3625 618C3616 610 3622 597 3616 588L3606 585C3604 589 3602 593 3598 594L3588 582L3587 588H3581C3581 585 3579 582 3577 579V580ZM1933 634L1934 641L1947 642L1933 634ZM3568 636C3567 638 3568 639 3570 640C3571 642 3573 642 3574 642C3575 639 3570 635 3568 636ZM3435 628L3439 633L3435 639L3442 641C3442 637 3444 632 3447 629H3454C3451 622 3441 625 3435 628ZM3216 636C3213 638 3213 639 3215 640C3216 641 3219 641 3220 639C3222 636 3217 635 3216 636ZM3674 635C3672 637 3674 638 3676 638C3678 638 3680 638 3680 635C3680 632 3675 633 3674 635ZM2861 632L2859 634L2861 636C2864 635 2864 633 2861 632ZM2845 631L2850 633L2855 634C2855 629 2848 632 2845 631ZM2898 622L2901 633L2908 634V626C2905 623 2902 622 2898 622ZM3849 629C3848 631 3850 633 3852 633H3856C3855 630 3852 628 3849 629ZM1979 602L1971 607L1965 602L1968 608L1951 622C1957 624 1965 623 1972 622C1966 626 1959 628 1953 630L1955 634C1964 633 1972 631 1981 628L1980 623H1981L1983 622H1984V617L1992 615C1994 611 1998 607 1995 602L1982 603L1979 611L1974 614C1977 611 1980 607 1980 602H1979ZM2580 620V628L2585 622L2580 620ZM3045 621C3046 624 3048 628 3052 628V620L3045 621ZM3304 601L3287 616C3280 618 3272 615 3267 621C3272 620 3278 621 3282 624L3289 619C3292 624 3297 627 3303 628L3299 622L3316 621C3315 617 3310 618 3307 617C3312 615 3319 616 3323 611C3318 609 3314 605 3313 600L3324 602V591C3318 595 3311 599 3304 601ZM2388 622L2389 627C2393 628 2396 627 2398 624L2388 622ZM2095 622C2093 623 2093 624 2094 625C2095 626 2097 627 2098 626C2103 624 2098 619 2095 622ZM1884 622C1882 624 1883 625 1884 626L1888 625C1890 622 1885 620 1884 622ZM3561 614L3559 619L3571 626L3561 614ZM2080 618C2078 620 2082 621 2083 623L2090 622L2093 613L2103 617L2104 613C2096 612 2088 613 2080 618ZM2863 622L2873 620L2864 613L2863 622ZM2900 614V619L2911 622L2910 612L2900 614ZM2145 609C2152 609 2156 615 2157 621C2160 620 2162 619 2163 617L2157 615L2161 608C2156 607 2149 603 2145 609ZM2850 619L2859 621L2855 611C2853 613 2848 615 2850 619ZM3631 611V617L3638 620C3642 618 3640 614 3640 611H3631ZM1803 616V619H1806C1807 616 1806 615 1803 616ZM1534 611C1530 612 1529 615 1527 618C1532 621 1534 617 1536 613L1543 615L1545 611H1534ZM2198 600V608L2189 610C2192 612 2193 616 2195 619L2206 618L2208 615C2204 616 2199 616 2194 614L2202 608L2198 600ZM1773 611L1781 613L1791 618C1788 610 1780 607 1773 611ZM3717 614L3724 617L3731 616C3729 610 3722 612 3717 614ZM2031 594C2033 602 2038 609 2043 615C2046 614 2049 612 2052 613C2059 613 2066 611 2073 609C2068 609 2063 607 2059 603C2055 605 2050 607 2045 606C2039 604 2035 599 2031 594ZM3474 578C3470 583 3465 586 3460 589C3462 593 3462 597 3461 602L3456 603C3450 602 3443 601 3437 598L3436 614C3439 615 3443 616 3445 612L3442 608L3459 610L3470 603L3479 602L3485 597L3480 595C3479 589 3474 583 3478 577L3474 578ZM2891 607V610C2891 611 2892 612 2894 610C2896 609 2894 604 2891 607ZM2177 604C2175 605 2175 607 2175 608C2176 610 2177 611 2179 610C2182 609 2181 603 2177 604ZM2913 601C2908 600 2904 602 2901 604C2902 612 2914 613 2916 605L2923 608C2923 602 2917 596 2913 601ZM1916 606L1915 610L1925 609C1923 607 1919 607 1916 606ZM2222 596C2221 600 2220 604 2215 604L2213 598L2207 608C2212 610 2219 609 2224 608C2224 604 2225 599 2222 596ZM1546 591L1543 597L1549 601L1551 608C1552 606 1553 602 1552 599L1546 595L1551 590L1546 591ZM1648 599L1646 608H1650V604L1657 599H1648ZM1667 599L1676 606V599H1667ZM1511 602C1508 605 1510 606 1513 606C1515 606 1518 605 1518 602H1511ZM2877 600V604C2877 606 2879 606 2880 605C2883 603 2880 598 2877 600ZM3226 598L3218 599V600L3217 602L3229 604V598H3226ZM3880 600H3882V601C3881 603 3880 603 3880 600ZM3494 600L3495 602L3496 601C3497 600 3497 599 3494 600ZM2165 593C2165 597 2167 598 2170 600L2179 602C2175 598 2171 593 2165 593ZM3771 600C3775 599 3778 596 3781 594V584C3779 590 3773 594 3771 600ZM3493 591L3498 594V599C3507 599 3507 589 3509 583C3503 585 3497 586 3493 591ZM3687 594V598H3691C3692 594 3691 593 3687 594ZM1747 592C1749 593 1750 595 1751 598L1762 596L1763 586C1758 587 1752 589 1747 592ZM1540 590L1554 585L1556 596L1567 597L1573 592L1551 584C1546 583 1542 585 1540 590ZM1580 589L1577 596L1587 597L1588 595L1580 592L1587 588L1580 589ZM1733 588L1737 591L1731 597L1741 595L1740 589L1733 588ZM3437 588L3440 596C3444 595 3449 594 3451 590L3437 588ZM2174 589L2173 594L2179 595L2183 589H2174ZM3731 583L3732 587C3736 590 3741 596 3746 592C3746 588 3748 584 3745 582L3731 583ZM1524 586C1522 587 1521 588 1521 590C1521 592 1523 593 1525 592C1528 591 1528 585 1524 586ZM1791 587V591H1794C1797 589 1793 585 1791 587ZM3695 587C3694 587 3693 588 3694 590C3694 591 3695 592 3697 592C3700 591 3699 586 3695 587ZM3244 590C3250 591 3255 592 3261 591L3258 587L3244 590ZM3311 586L3309 588L3311 590C3314 589 3314 588 3311 586ZM1894 580L1890 583V587C1893 589 1897 581 1894 580ZM3685 586C3685.82 583.374 3686.49 580.703 3687 578C3682 578 3680 584 3685 586ZM1449 579C1450 582 1454 583 1456 584V578L1449 579ZM1857 580V583H1861C1862 580 1861 579 1857 580ZM3488 578C3487 580 3488 581 3489 581H3492C3494 578 3489 576 3488 578ZM1897 572V577C1898 579 1899 580 1901 580C1902 577 1903 571 1897 572ZM1343 577L1351 580L1349 574L1343 577ZM2145 573L2153 578C2156 579 2159 578 2161 574C2156 572 2150 573 2145 573ZM3749 573V577C3751 578 3753 579 3754 577C3757 574 3752 570 3749 573ZM3688 574V577H3691C3691 574 3690 573 3688 574ZM2168 574V577L2170 575C2171 574 2170 573 2168 574ZM1929 572L1930 576H1933C1934 573 1933 572 1929 572ZM3691 564L3695 575C3700 574 3698 568 3700 563L3691 564ZM3285 574C3288 574 3293 577 3294 572L3290 568L3285 574ZM1366 568L1362 570L1363 573C1367 575 1372 568 1366 568ZM1764 569V572C1765 573 1767 573 1768 571C1770 568 1765 566 1764 569ZM1547 569L1555 572L1553 566L1547 569ZM3746 568L3747 571L3750 570C3750 567 3748 567 3746 568ZM1291 565V570C1298 569 1304 565 1307 559C1302 561 1297 566 1291 565ZM3767 565L3755 566H3754V569L3753 570C3759 569 3765 568 3768 565H3767ZM3738 564C3737 566 3738 567 3739 568H3743C3745 565 3740 562 3738 564ZM1230 562C1236 564 1242 570 1248 566C1245 561 1240 559 1237 554C1233 553 1232 559 1230 562ZM3673 563V566H3676C3677 563 3676 562 3673 563ZM1570 560L1566 562L1567 565C1571 567 1576 560 1570 560ZM1805 553C1808 559 1814 562 1821 563L1820 560L1805 553ZM2905 555C2900 557 2905 565 2910 563C2916 563 2919 559 2923 555C2917 557 2911 556 2905 555ZM1913 544L1915 550L1912 554L1915 562H1921C1921 557 1919 553 1916 549L1924 550L1922 542L1913 544ZM1865 556C1863 557 1862 558 1863 560C1863 561 1865 563 1867 562C1871 561 1868 555 1865 556ZM3758 545C3755 549 3750 552 3745 553C3754 552 3760 559 3768 562V555C3771 552 3773 548 3773 544L3779 540C3772 542 3765 546 3758 545ZM831 558V562H835C836 558 834 557 831 558ZM2890 556C2888 556 2887 558 2886 559C2885 561 2886 562 2888 562C2892 562 2895 556 2890 556ZM1495 557V562C1502 561 1508 557 1511 551C1506 553 1501 558 1495 557ZM1197 526C1190 526 1184 528 1178 532C1186 533 1194 530 1201 534L1200 539L1173 546C1179 553 1188 555 1197 557C1196 551 1200 547 1204 543L1201 540C1204 536 1206 532 1207 527L1200 526L1202 518L1197 526ZM1988 546L1987 552C1991 553 1996 555 2001 555C1999 551 1997 546 1998 541L1988 546ZM3661 554L3664 551L3665 546C3661 547 3658 551 3661 554ZM1226 543L1222 553L1233 550L1232 545L1226 543ZM1878 542L1879 552L1887 550L1878 542ZM1160 547V550H1167V546L1160 547ZM3713 534C3714 539 3715 544 3718 549L3726 550V539C3722 535 3718 532 3713 534ZM1869 546V549H1873C1874 546 1873 545 1869 546ZM3677 543L3675 545L3677 548C3680 548 3680 543 3677 543ZM1160 542C1164 544 1169 545 1172 541L1180 540L1175 537C1169 537 1162 535 1160 542ZM1153 541V543H1155C1156 542 1156 541 1153 541ZM3500 534C3502 536 3501 537 3500 538C3498 540 3496 540 3495 540C3488 540 3498 535 3500 534ZM1141 536V539L1144 540C1145 536 1144 535 1141 536ZM3243 534L3241 537C3241 538 3241 539 3243 540C3247 541 3248 532 3243 534ZM1929 530C1924 532 1916 529 1914 536C1917 540 1922 539 1926 540L1928 535L1937 536C1935 533 1932 528 1929 530ZM1905 536V539H1907C1908 538 1909 537 1905 536ZM1279 535L1278 538L1281 539C1283 537 1282 535 1279 535ZM3777 488C3767 483 3759 492 3750 495L3749 498L3771 496L3786 500L3784 509C3777 510 3768 511 3765 518L3755 513L3754 522C3749 523 3744 516 3739 520C3740 525 3744 525 3748 526L3750 533C3758 538 3768 540 3778 537V530C3784 526 3788 520 3793 515L3786 512C3788 504 3796 499 3797 490L3785 487C3784 489 3784 493 3782 494C3781 487 3785 483 3789 478C3784 481 3780 484 3777 488ZM2879 531L2887 536L2882 529L2879 531ZM1895 536C1894.91 533.334 1894.91 530.666 1895 528C1889 527 1889 537 1895 536ZM1258 532V535L1260 534C1261 532 1261 531 1258 532ZM3666 533C3670 533 3675 533 3679 531C3674 528 3671 524 3668 520C3665 524 3666 529 3666 533ZM1038 510H1020L1024 517L1020 515C1020 512 1020 509 1018 507H1007L1006 511C1007 515 1011 519 1016 519V524L1020 525L1017 528C1024 530 1032 532 1040 532V529H1031L1047 524C1043 520 1040 516 1039 511L1050 514L1048 503C1044 504 1041 507 1038 510ZM3715 523L3716 529L3731 532L3728 520L3715 523ZM3827 512V525L3826 526L3823 528L3822 529L3824 531C3831 532 3837 529 3843 527L3841 517C3836 516 3830 517 3827 512ZM1865 522L1863 530L1866 531L1869 524L1865 522ZM3645 528C3649 531 3654 532 3659 530L3655 518C3650 520 3648 524 3645 528ZM1483 527L1482 530L1485 531C1487 529 1486 527 1483 527ZM1462 524V527L1464 526C1465 524 1465 523 1462 524ZM1197 490C1193 494 1190 498 1185 500C1186 505 1187 509 1186 513C1178 515 1169 514 1162 509V526L1171 524L1167 520L1185 522C1190 519 1194 513 1200 515C1205 516 1208 512 1209 508L1205 507C1205 502 1199 495 1204 490C1202 489 1199 487 1197 490ZM1885 513L1881 510L1871 520C1879 521 1887 525 1895 525L1910 519L1909 513C1903 514 1899 517 1895 520C1891 521 1884 522 1885 517L1896 515C1900 515 1901 511 1898 509C1894 506 1887 508 1885 513ZM3641 520L3640 521L3639 523C3641 530 3649 519 3641 520ZM917 515C921 515 924 518 927 521C931 523 934 525 938 522C932 517 925 515 917 515ZM839 518C838 518 837 520 838 521C838 522 839 523 841 523C844 522 842 516 839 518ZM3703 518C3705 518 3706 517 3707 515L3708 511C3704 511 3704 515 3703 518ZM1280 508V517H1284L1287 510L1280 508ZM3734 507C3731 506 3728 502 3724 505C3720 506 3715 510 3719 514C3723 517 3727 518 3732 517C3734 515 3736 512 3736 509L3746 513C3746 511 3747 510 3749 509L3739 502C3736 502 3735 505 3734 507ZM1857 488L1856 493L1857 494H1860L1861 495L1852 503L1855 506L1845 517C1850 515 1856 515 1861 514L1885 504C1879 503 1874 502 1869 504L1857 488ZM965 510L954 509L943 513L968 517L977 502C973 505 970 509 965 510ZM3281 512L3279 514L3281 516C3284 515 3284 514 3281 512ZM1825 504C1826 507 1825 514 1830 513L1832 506L1825 504ZM3684 503L3683 510L3689 512C3690 509 3691 505 3689 502L3684 503ZM1484 501C1484.38 503.66 1484.72 506.327 1485 509H1488L1491 502L1484 500V501ZM2883 502V506C2884 508 2885 508 2887 507C2889 505 2887 500 2883 502ZM924 504V507H927C928 504 927 503 924 504ZM1162 500L1163 506C1169 507 1174 505 1177 501L1162 500ZM1151 501V504H1154C1155 501 1154 500 1151 501ZM936 500V503L938 502C939 500 939 499 936 500ZM703 495L701 501L711 502L708 495H703ZM2267 479C2269 485 2270 492 2264 495C2270 496 2277 493 2283 492L2279 484C2274 484 2270 482 2267 479ZM1917 486C1917 489 1917 494 1921 494C1927 495 1931 491 1935 487L1917 486ZM871 482C871 486 873 488 876 487L883 483L871 482ZM3785 422L3782 423C3777 427 3769 430 3772 437C3767 438 3761 438 3759 443C3756 447 3762 451 3764 454C3762 457 3762 460 3762 464C3758 464 3754 465 3751 468L3742 462L3738 468C3732 464 3726 458 3719 457C3718 464 3717 471 3720 477L3717 484C3722 489 3733 488 3735 480L3727 476L3747 478C3751 479 3756 480 3760 478L3778 465C3781 464 3783 468 3785 469C3792 466 3798 461 3802 455C3797 453 3792 455 3787 456L3795 451L3793 444L3787 445C3789 442 3791 438 3790 435L3785 430V429L3787 427H3794C3791 425 3788 422 3785 422ZM1144 479V483L1148 484C1149 481 1146 478 1144 479ZM590 480C589 482 591 483 593 484C594 484 597 484 597 482C596 479 592 478 590 480ZM3784 477H3788C3790 474 3785 472 3784 474V477ZM610 474L611 477L614 476C614 473 612 472 610 474ZM580 465L581 473H588L587 464L580 465ZM3669 465V468H3672C3673 465 3672 464 3669 465ZM1896 461H1895L1893 463L1901 468L1896 461ZM3513 450L3509 460C3516 461 3523 466 3531 463C3524 460 3523 452 3526 446C3523 450 3518 451 3513 450ZM3691 457V460H3694C3695 457 3694 456 3691 457ZM442 452C441 453 442 455 443 456H446C448 453 444 450 442 452ZM3720 441C3719 447 3722 454 3729 453C3737 453 3742 447 3747 443C3738 444 3729 442 3720 441ZM603 445L583 442V447C591 445 599 447 606 452V438L603 445ZM3697 449V451H3698C3700 450 3700 449 3697 449ZM3647 448V451H3649C3650 450 3651 448 3647 448ZM3701 445C3700 446 3701 447 3702 448H3706C3708 445 3703 442 3701 445ZM462 446V449L464 448C465 446 465 445 462 446ZM1897 435V439C1898 440 1899 441 1900 440C1903 438 1900 432 1897 435ZM483 434C482 435 481 436 482 437C482 438 483 439 485 439C488 438 486 433 483 434ZM548 399L538 407V409L537 412V413L548 409C549 414 545 417 542 420L544 428C542 432 537 434 535 438C540 437 544 433 548 430L546 426C549 422 554 418 551 412L557 403L548 399ZM332 428V432H336C338 429 334 426 332 428ZM443 427V429H445C446 428 446 427 443 427ZM314 420V428C319 428 321 424 321 420H314ZM523 412L524 421C529 420 532 415 529 411L523 412ZM3693 411V414C3694 416 3695 416 3697 415C3700 413 3696 408 3693 411ZM325 394L324 407C329 408 333 406 337 404L334 414L341 413L342 404L325 394ZM349 408L347 410L349 412C352 411 352 410 349 408ZM3688 407V411C3689 412 3691 412 3692 410C3695 408 3690 404 3688 407ZM242 394C241 396 241 397 243 398C244 399 245 399 246 397C249 395 244 392 242 394ZM376 386V394C381 394 384 389 381 385L376 386ZM218 377V384L211 387C217 387 223 389 228 392L237 387L226 386L238 382C235 375 225 375 218 377ZM262 386V390H265C266 386 265 385 262 386ZM3733 387V389H3734C3736 388 3737 387 3733 387ZM277 379V381H279C280 380 281 379 277 379ZM378 378V381L380 380C381 378 381 377 378 378ZM248 370C251 372 250 377 250 380C256 379 254 372 254 368C251 366 250 369 248 370ZM276 367L272 369C271 371 271 372 273 373C277 374 279 368 276 367ZM3702 368L3703 370L3704 369C3705 368 3705 366 3702 368ZM145 350C148 357 152 363 157 368L159 361L145 350ZM243 359L241 362C245 363 251 368 253 362C252 358 247 360 243 359ZM266 359V362H269C270 359 269 357 266 359ZM-29 348C-32 349 -32 353 -33 356C-28 356 -26 352 -24 348L-17 351L-15 347C-20 347 -25 346 -29 348ZM-17 330C-13 334 -9 338 -9 343L-6 341L-7 333L-17 330ZM-51 337L-52 342C-49 341 -45 340 -43 337H-51ZM98 335C97 337 98 338 100 338C102 339 104 338 104 336C104 333 99 333 98 335ZM243 332C243 338 249 335 252 336V331L243 332ZM-4 319C-3 323 -5 328 -2 331L9 333L15 327L-4 319ZM22 323V331H32L24 325L31 322L22 323ZM-36 320C-38 320 -39 321 -40 323C-41 324 -41 326 -39 326C-35 327 -32 321 -36 320ZM107 317L105 320C105 322 105 323 107 324C111 324 112 316 107 317ZM111 308L112 312H117L119 307L111 308ZM-10 300C-11 302 -9 304 -8 304C-6 305 -4 304 -3 302C-4 299 -8 298 -10 300ZM-55 254L-53 256L-55 258V254Z" fill="#001B33"/>
<path d="M810 628L817 625C832 618 850 616 862 605C866 601 867 597 862 593L840 580C850 580 860 583 869 587L877 590C888 596 892 605 882 611C868 622 848 624 835 636L810 628Z" fill="#001B33"/>
</g>
</svg>
