<svg width="3000" height="1288" viewBox="0 0 3000 1288" fill="none" xmlns="http://www.w3.org/2000/svg">
<path d="M3883 1287.5H7883V48L7871 46L7877 56C7868 53 7863 45 7858 38C7856 42 7852 46 7855 50C7858 55 7865 59 7865 66L7874 69C7870 71 7865 77 7860 75L7854 63C7849 66 7844 67 7839 64C7840 60 7842 55 7846 52V42C7838 40 7830 43 7823 43L7821 30C7823 33 7824 36 7827 37L7837 34C7839 26 7832 20 7825 20C7822 15 7819 8 7812 9L7817 6C7812 3 7807 1 7801 0L7800 14L7793 16L7794 25H7787L7794 34L7786 41C7787 45 7790 48 7793 51L7781 53L7782 59C7790 64 7798 67 7807 68C7798 71 7789 66 7779 64C7780 68 7779 74 7784 77C7790 84 7799 87 7807 89C7800 89 7792 90 7785 93C7779 94 7773 91 7768 93L7769 102L7759 86L7756 89L7757 80C7752 83 7746 83 7741 80C7746 79 7751 76 7750 70L7737 69L7743 62C7737 61 7732 60 7727 57L7726 72L7722 70V64L7710 65C7706 61 7705 57 7702 53L7709 45C7703 42 7705 35 7705 29L7697 30L7700 25L7687 21C7685 29 7687 37 7689 44L7693 47C7688 53 7683 60 7674 60C7678 62 7681 65 7685 66H7691L7686 78C7685 88 7679 97 7675 106C7673 112 7669 114 7665 118L7657 114C7659 103 7654 93 7649 84C7640 86 7636 95 7629 100C7628 107 7636 105 7640 104L7630 113L7625 106C7623 112 7625 117 7627 122H7619C7617 127 7613 131 7608 134V139L7613 140L7612 143H7600V149C7593 149 7588 145 7583 141C7591 140 7597 138 7604 135L7605 130H7588C7595 127 7604 125 7607 116C7601 116 7597 119 7592 121H7582L7576 127L7575 113C7581 115 7587 116 7594 116C7594 112 7593 109 7595 105C7599 100 7606 96 7608 89L7594 96V93L7585 95L7594 82L7581 78L7591 63L7580 68C7583 63 7583 57 7583 51L7565 56L7572 64L7557 63L7559 73H7566L7560 80L7548 74L7559 90L7548 87C7552 92 7559 94 7565 97C7564 102 7557 103 7553 106C7549 103 7545 101 7540 100C7540 104 7539 109 7542 113L7555 121C7559 120 7562 119 7566 120L7556 127L7571 122V123L7570 126V127C7560 132 7550 128 7541 124C7543 130 7546 136 7551 139C7544 137 7538 133 7530 136C7535 141 7541 142 7547 141V146L7538 143L7546 154L7532 150C7534 152 7535 155 7538 156C7543 158 7548 158 7550 164L7538 161L7526 170L7528 152L7523 150L7522 156L7521 144L7517 152L7509 150C7514 154 7518 159 7516 165L7510 161L7509 166C7506 164 7504 160 7501 162C7493 164 7487 170 7479 170L7467 173L7480 158H7476L7483 150L7478 144L7484 140V136L7473 142L7477 130L7463 136C7464 131 7466 126 7466 120L7457 110L7455 120L7447 116C7452 120 7456 125 7455 132L7447 127V131L7438 130C7442 136 7444 144 7448 151L7429 146C7433 151 7438 155 7440 162L7426 155C7428 160 7430 165 7434 169L7433 177L7441 184L7426 185C7432 191 7440 197 7442 206C7437 205 7431 204 7428 199C7424 195 7419 193 7414 192L7409 198L7404 194V203C7404 208 7406 215 7399 217C7395 221 7390 219 7387 216L7395 206C7394 202 7395 197 7391 195L7372 197L7371 184L7375 193L7387 189C7386 186 7387 181 7383 180C7376 176 7369 169 7365 161C7361 161 7357 160 7354 158C7352 164 7351 170 7345 173L7346 181L7340 179C7341 183 7343 186 7346 190C7341 192 7337 196 7331 197L7319 199C7328 193 7331 183 7336 175L7332 170L7339 166L7330 161L7327 155L7316 162L7318 146L7310 135L7307 144L7301 141L7309 154L7294 159L7295 174C7285 172 7276 165 7269 157L7273 155L7277 141L7275 133L7264 135L7265 141L7258 139C7259 145 7261 151 7256 156C7261 161 7260 168 7259 175L7242 174V180L7233 183L7243 186L7231 192C7238 201 7247 194 7254 189L7256 200L7243 198C7245 203 7248 207 7252 211C7249 216 7242 214 7237 215L7236 207C7229 203 7222 199 7218 191C7215 185 7208 185 7203 184C7202 190 7200 196 7194 199L7195 206L7189 207L7196 216L7188 222L7191 232L7181 234L7189 245H7180V253L7194 265C7181 268 7168 269 7155 270L7162 259L7151 264L7146 260C7150 258 7153 255 7154 251L7141 249L7148 243L7131 239C7131 244 7131 249 7134 254L7125 251L7133 263C7126 266 7118 266 7111 263L7120 252L7112 255L7114 241L7097 245L7105 251L7094 252L7097 261C7096 264 7095 268 7096 271C7096 275 7099 280 7096 284C7090 291 7081 294 7077 301C7071 310 7071 320 7069 329C7065 337 7055 339 7048 340L7009 351C7005 351 7002 353 7000 354L7008 338L6995 345C6999 337 7004 328 7004 319L6991 320L6996 312L6983 314C6987 308 6998 310 7000 301L6986 305C6992 299 6997 293 7001 286C6994 284 6988 289 6981 290C6986 287 6990 282 6992 275L6972 281L6974 288C6971 282 6966 278 6961 274L6978 278C6974 276 6970 274 6968 270L6980 271L6981 267H6989C6992 262 6994 256 6993 250L6979 258L6967 249C6973 246 6980 243 6985 238L6974 241L6985 225L6974 231L6967 226C6972 224 6977 220 6976 214H6960L6969 206C6963 205 6955 207 6951 201C6950 207 6949 214 6953 219L6941 214L6952 229L6939 233L6948 245L6939 247C6934 244 6929 241 6924 240C6926 247 6933 250 6937 256L6941 267C6947 268 6953 266 6958 264V277C6951 273 6942 274 6935 270C6932 267 6929 267 6925 268C6930 275 6938 278 6945 281H6933C6929 281 6929 286 6927 288L6923 283L6916 282V274L6905 273C6908 269 6910 264 6910 259L6896 261V256H6904V251C6898 246 6893 239 6885 234L6878 246C6873 253 6879 265 6869 269C6866 266 6860 263 6859 258L6850 240C6846 233 6845 224 6842 216L6851 218L6859 211L6849 210L6839 196L6846 198C6843 192 6846 187 6847 181L6846 172L6834 175L6835 182L6827 179L6830 191L6825 196L6830 203L6829 216L6811 214L6813 221L6804 224L6803 227H6809L6811 229L6800 236L6812 239C6815 236 6818 233 6822 232L6826 242L6812 240C6814 245 6818 249 6821 253C6818 258 6810 257 6805 258L6815 262L6797 264L6801 270L6790 269V262L6775 263C6774 256 6773 250 6778 244L6774 240L6776 231H6770C6769 225 6764 224 6759 223C6757 230 6758 236 6761 242L6758 245L6765 246C6761 253 6755 258 6747 260L6763 265C6760 270 6758 276 6757 282C6753 294 6745 304 6738 314C6735 321 6728 318 6723 319C6722 315 6719 312 6715 310L6703 319L6696 315L6705 313L6711 298C6703 301 6694 305 6685 306L6672 301V296C6678 298 6685 303 6692 302C6688 300 6684 297 6679 296L6680 295L6681 292L6682 291C6686 292 6690 293 6692 297L6697 292V291L6694 289L6693 288L6707 287L6712 278L6711 266L6695 275C6689 273 6685 269 6680 265L6679 263C6688 260 6696 257 6702 250L6687 254C6692 247 6698 241 6702 233L6686 241L6678 232L6686 231C6690 228 6689 223 6690 218L6670 220C6672 215 6677 212 6682 209C6675 208 6668 206 6661 207L6658 201C6656 209 6654 218 6659 225L6645 218C6648 228 6658 233 6659 243L6655 240L6642 242L6653 259L6641 261L6625 252C6623 257 6619 260 6614 262V266L6608 265C6608 271 6609 277 6604 281L6610 288L6609 301L6592 300V306L6582 310V301C6590 297 6599 293 6602 285L6597 283L6585 290C6578 293 6570 292 6563 296L6573 284C6572 278 6577 275 6580 272L6574 270C6577 266 6580 263 6581 258L6569 265L6572 253C6568 254 6563 256 6559 259C6560 254 6562 248 6561 243L6553 235L6551 242L6545 241C6548 244 6551 249 6551 254L6537 255C6538 261 6538 267 6543 271L6542 273L6547 278C6540 274 6533 270 6525 268C6528 274 6535 278 6536 285L6523 278L6530 292L6529 300L6537 307L6522 308C6528 314 6535 320 6538 328L6513 323L6519 332C6511 330 6506 322 6501 316L6498 326L6509 342L6517 345L6507 355C6502 351 6500 345 6497 339L6489 343L6483 339L6491 329L6489 319L6481 318V329L6478 320L6468 321L6467 308C6469 311 6470 314 6473 315L6483 312C6483 307 6482 303 6477 302C6471 299 6467 293 6463 288C6461 282 6454 282 6450 280L6447 292L6440 295L6443 303H6436L6442 312L6434 318L6440 327L6430 329C6424 339 6417 349 6413 360C6412 366 6406 366 6401 367L6409 354C6405.32 355.628 6401.65 357.295 6398 359V357H6397C6401 352 6402 346 6401 340L6389 346C6394 339 6402 334 6403 325L6402 324L6400 323H6399L6383 334L6376 332C6383 326 6386 317 6392 311C6397 306 6397 299 6398 293C6393 298 6387 303 6379 303L6378 293C6386 289 6394 285 6398 277L6397 276H6394L6393 275L6381 282C6374 285 6366 284 6359 288L6369 276C6368 270 6373 268 6376 265L6371 262C6373 258 6376 255 6377 250L6365 257L6368 245C6364 246 6359 248 6355 251L6357 239C6359 233 6353 230 6350 227L6347 234L6341 233C6344 236 6347 241 6347 246L6333 247C6334 253 6334 259 6339 263L6338 265L6343 270C6336 266 6329 262 6321 260C6324 266 6331 270 6332 277L6319 270L6326 284L6325 292L6333 299L6318 300C6324 306 6331 312 6334 320L6309 315L6315 324C6307 322 6302 314 6297 308L6294 318L6305 334L6313 337L6303 347C6298 343 6296 337 6293 331L6285 335L6279 331L6287 321C6287 316 6285 312 6283 309L6276 312L6277 321L6274 312L6264 313L6263 300C6265 303 6266 306 6269 307L6279 304C6279 299 6278 295 6273 294C6267 291 6263 285 6259 280C6257 274 6250 274 6246 272L6243 284L6236 287L6239 295H6232L6238 304L6231 310L6235 321H6225C6226 324 6228 327 6231 329C6237 334 6244 335 6251 336C6242 339 6233 334 6224 332C6225 338 6227 345 6233 348C6238 353 6245 353 6251 355L6230 358L6213 359L6218 373H6225L6221 382H6208H6217L6211 368L6199 373L6190 367L6206 358H6198L6205 346L6195 351L6187 345H6195L6198 337H6186L6191 330C6185 330 6180 328 6175 325L6176 340L6169 338L6177 350L6167 352L6171 363L6165 365V364L6163 363H6162L6165 354L6157 350L6163 340L6156 342L6158 330L6143 332L6149 338L6137 339C6137 343 6140 346 6144 348L6139 351L6129 348L6136 356L6131 360L6144 368L6135 372L6124 369L6119 378L6114 377C6118 371 6120 365 6122 359C6110 359 6099 357 6087 355C6098 354 6112 347 6111 334C6103 336 6094 341 6086 336C6096 337 6106 332 6111 324L6101 323L6105 312L6098 307C6101 304 6106 299 6100 296L6099 292C6094 289 6092 283 6090 278H6089L6087 279H6086C6078 281 6075 290 6069 294C6066 297 6059 300 6060 306L6069 311C6072 309 6073 305 6075 302L6073 315H6064L6061 323L6062 314H6052C6051 321 6055 328 6059 334C6054 335 6049 336 6044 335C6042 339 6042 345 6037 345C6034 344 6031 341 6029 338L6035 336L6044 319C6045 316 6043 314 6042 311C6037 317 6033 323 6025 326L6031 317L6008 322C6008 313 6017 309 6022 303C6017 303 6012 301 6007 302L6015 296L6014 287C6018 283 6020 279 6022 275L6009 281C6010 274 6017 271 6019 265C6012 267 6004 270 5998 274C6003 269 6007 261 6007 253L5994 251C5995 246 5997 242 6001 238L5995 240L5991 232L5990 241L5988 238L5984 240L5986 256L5976 253V262C5971 260 5967 256 5965 251C5958 254 5952 258 5946 263C5941 255 5930 255 5927 247L5942 242C5947 240 5952 235 5956 230L5939 236C5942 226 5951 220 5956 211C5948 213 5942 218 5936 222L5933 216C5934 211 5937 207 5940 203C5939 199 5939 196 5941 192C5933 195 5925 195 5916 194C5919 188 5926 185 5932 181C5926 180 5918 183 5914 178L5905 181L5903 171C5899 176 5900 183 5899 189C5899 194 5903 198 5905 202L5886 192C5889 202 5897 209 5903 216L5893 221H5882C5886 229 5892 236 5897 243C5891 243 5886 243 5881 246C5875 240 5868 236 5860 234C5861 237 5861 242 5864 245C5871 250 5878 255 5883 262L5882 276C5892 278 5903 277 5912 272V292L5901 290L5906 284L5885 287L5871 277L5863 280L5871 290C5878 293 5886 294 5892 300C5883 299 5873 298 5865 302L5866 307C5874 310 5882 312 5890 317L5898 315C5894 320 5890 327 5883 328H5863C5872 333 5884 331 5892 339L5870 347L5887 348L5886 355L5893 348C5892 353 5889 357 5886 359L5887 364C5892 361 5899 358 5905 361L5898 367C5890 373 5880 369 5872 372L5867 363H5857L5862 355L5841 354L5851 348C5844 347 5835 347 5829 340L5839 336L5846 326L5857 322L5856 318L5845 312L5854 310L5853 305H5843L5846 296L5824 298L5822 282L5829 273L5822 269L5825 254L5815 256L5818 249L5802 245L5804 255H5800C5803 261 5807 269 5802 276L5812 274L5799 290L5787 292L5798 299H5808L5801 314L5804 318L5794 331L5799 332C5792 336 5789 345 5786 352C5781 356 5776 360 5775 366C5768 368 5762 370 5755 370L5764 366C5766 358 5768 350 5766 342C5766 334 5759 328 5755 320C5746 326 5739 335 5731 342L5739 348L5746 343C5743 348 5739 352 5734 355L5729 348C5724 354 5728 361 5731 366L5719 368L5718 378H5708V386L5715 391L5701 392C5699 393 5698 396 5697 398C5689 400 5683 395 5679 389C5688 387 5699 387 5704 378C5698 375 5690 376 5683 376C5691 372 5700 370 5705 362L5701 358C5695 363 5689 367 5681 366C5676 366 5673 372 5668 370L5667 355C5674 359 5682 359 5690 359V347C5696 340 5706 336 5708 326L5695 332C5691 336 5685 333 5679 333L5690 318L5674 313C5679 307 5684 302 5688 295L5673 302C5679 295 5678 286 5675 278L5673 285C5666 284 5660 285 5653 286L5664 296H5647C5647 299 5645 303 5648 305C5650 308 5654 307 5658 308L5649 316L5635 308C5638 315 5644 320 5647 328L5635 324C5640 331 5649 334 5657 337L5642 348L5627 339L5625 345L5609 336C5604 330 5599 322 5596 314C5601 319 5605 325 5612 327C5618 328 5626 328 5629 322L5621 312L5623 307C5618 303 5614 299 5608 297C5608 292 5607 288 5605 284C5603 279 5598 277 5595 273C5596.34 272.675 5597.67 272.342 5599 272L5600 270L5589 258L5593 252C5590 247 5584 241 5586 234L5594 235L5597 240L5596 232L5601 235L5607 226L5590 227L5593 220C5588 217 5584 212 5580 207L5591 209L5586 204L5592 198L5589 195C5593 189 5592 182 5590 175C5584 175 5579 179 5573 179L5577 184L5575 188L5566 184V197L5567 198L5570 199L5571 200L5559 206L5570 216C5567 222 5567 228 5568 234C5559 235 5550 232 5542 233C5544 236 5545 240 5543 243L5534 242L5531 249H5541L5543 252L5530 257L5529 261L5545 268L5549 277C5551 280 5555 281 5559 282C5554 292 5542 288 5534 293H5547V299C5539 298 5530 298 5522 300L5529 307L5515 310L5516 317H5526C5523 322 5518 325 5513 328L5523 324L5531 329L5538 323C5538 329 5535 333 5532 337C5538 335 5540 329 5542 323H5557C5556 328 5556 333 5552 337C5549 339 5546 339 5543 339L5546 346L5540 347L5541 352C5532 354 5523 359 5513 357L5508 372C5511 374 5514 369 5517 368L5520 371C5524 369 5528 368 5533 368L5527 375C5533 376 5540 375 5546 373C5541 377 5536 382 5533 389L5529 388L5523 394L5524 400C5519 405 5515 413 5506 413C5485 417 5464 411 5443 415C5451 409 5461 411 5469 406C5474 402 5474 397 5473 392L5460 398L5449 389C5455 387 5461 384 5466 379L5458 380L5467 367L5455 373L5449 368L5456 365L5457 357H5443L5451 350C5445 349 5439 348 5433 345C5433 351 5433 357 5436 362L5425 357L5435 371L5423 374L5431 386C5423 388 5416 384 5409 381C5412 388 5418 392 5422 397L5424 407L5441 404L5440 416L5436 415L5435 411L5429 412C5422 413 5417 405 5411 408C5414 414 5421 417 5427 419L5412 422C5416 424 5419 428 5422 432C5416 433 5410 432 5404 431L5409 428V422H5401L5400 414L5392 412L5395 401C5392 397 5387 400 5383 400L5390 394C5384 388 5379 379 5371 376L5364 390C5363 397 5364 405 5357 409C5353 405 5348 402 5346 397C5340 385 5335 373 5332 360C5337 359 5343 358 5347 355C5340 353 5334 348 5330 342C5335 335 5337 326 5335 318C5326 319 5318 327 5319 337L5316 340C5321 345 5320 352 5319 359L5303 358L5304 364L5295 365L5299 372L5292 378C5296 378 5299 380 5302 379L5314 373L5316 384L5304 382C5307 386 5309 391 5313 395L5297 398C5300 399 5304 399 5306 403H5289L5293 408L5274 416V409C5279 405 5284 402 5287 396C5278 399 5269 403 5259 405C5265 399 5271 390 5270 381L5265 374L5256 378C5257 374 5259 370 5258 366L5253 360L5250 365L5246 364L5252 373L5240 374L5242 386L5233 385L5240 395L5231 393L5238 412L5231 413L5241 428L5229 426L5225 430L5213 420C5213 429 5219 436 5226 441L5219 447C5217.03 444.308 5215.03 441.641 5213 439L5212 440H5211L5203 436C5206 431 5208 426 5207 421L5191 422L5203 414C5197 410 5192 405 5188 399C5186 396 5182 395 5179 394L5170 411V428L5163 429C5167 435 5174 438 5181 440L5162 436C5163 446 5173 450 5181 453L5158 456C5152 459 5146 461 5139 462L5147 456C5146 453 5147 450 5149 447L5141 450C5140 447 5142 444 5143 441L5135 440L5138 434H5129C5126 439 5125 444 5128 449L5122 451L5125 459L5113 456L5119 465C5101 469 5083 473 5064 473C5057 471 5058 464 5059 459C5063 459 5065 463 5068 465L5070 459L5079 469L5086 463C5093 464 5100 462 5107 460C5104 455 5100 451 5094 448C5087 445 5083 438 5077 431C5074 427 5067 426 5063 422C5059 416 5055 410 5052 402C5058 408 5063 415 5071 415C5075 415 5079 416 5082 413C5084 408 5079 404 5077 400L5079 395L5064 385L5061 373C5059 368 5054 365 5050 362L5056 361L5046 348L5048 341C5045 335 5041 331 5041 325L5049 324L5053 329L5052 324C5056 322 5064 322 5062 316C5057 315 5051 316 5046 317L5049 310C5044 307 5040 302 5036 298L5047 300L5042 294L5048 289L5044 287L5050 279L5047 274V266C5042 266 5037 268 5034 271L5030 270L5033 278L5022 276L5024 293L5017 296L5026 306C5024 312 5024 318 5024 324C5016 325 5007 323 4999 322C5000 325 5004 329 5000 332C4997 333 4989 331 4989 337L5001 340C4997 343 4993 346 4987 346V352C4993 352 5002 357 5005 350C5008 347 5012 346 5016 345L5020 359L5001 356C5002 364 5009 369 5015 373L5004 379V388L4989 386L5003 380L4985 376C4979 381 4971 385 4962 382C4966 379 4971 378 4976 377C4975 370 4979 365 4982 358C4973 363 4964 366 4955 368C4946 371 4939 364 4931 363L4933 357C4941 360 4948 366 4958 365L4956 361C4951 360 4945 359 4941 356C4943 354 4945 350 4948 351C4953 351 4956 355 4958 357L4964 352L4959 346L4975 347L4982 337C4985 332 4982 325 4982 320C4974 322 4967 326 4961 331C4957 330 4956 325 4951 324C4948 322 4940 320 4942 315L4956 311C4962 308 4966 303 4970 298L4953 304C4956 294 4967 288 4970 278L4950 289C4949 287 4946 285 4947 282C4948 278 4951 275 4953 271L4954 259C4947 262 4939 262 4930 261C4932 254 4940 252 4946 248L4930 247L4928 243L4919 248L4915 237L4912 255C4911 260 4916 264 4918 268L4899 260L4906 273L4917 283C4910 288 4903 290 4894 289C4899 297 4905 304 4909 312C4904 311 4898 309 4894 306L4897 315C4888 311 4881 304 4871 302C4872 306 4873 311 4877 314L4897 331C4895 335 4892 341 4896 345C4906 348 4917 347 4925 340L4926 356C4926 358 4927 361 4924 361C4921 364 4917 360 4914 359L4919 354C4911 355 4904 357 4897 356L4881 346L4875 350L4879 356C4885 364 4897 362 4904 370C4895 369 4885 368 4877 372L4878 378C4885 380 4891 385 4899 383L4900 387L4911 386C4906 391 4902 398 4895 399H4874C4885 404 4897 403 4906 410L4882 418L4899 420L4898 425L4904 427L4897 431L4899 436C4905 433 4911 431 4918 432C4915 435 4913 438 4910 439C4903 445 4893 441 4884 444V437L4877 436L4878 426L4872 421L4878 414L4873 412L4866 392C4861 394 4856 394 4853 398C4849 405 4842 409 4836 414C4834 420 4841 424 4845 427H4829C4829 434 4832 440 4835 447H4821C4820 452 4817 457 4813 459C4811 456 4803 453 4808 450C4815 444 4822 435 4820 426L4804 439L4807 431L4786 436C4786 427 4795 423 4800 417L4788 416C4794 409 4794 399 4799 391L4787 395C4790 390 4793 385 4798 381L4784 383L4788 367C4783 366 4777 366 4773 371C4774 365 4775 360 4779 355L4775 356L4771 350C4768 353 4765 355 4764 358L4766 372L4756 367L4748 374L4751 388C4753 395 4758 400 4762 405C4757 405 4751 405 4746 403C4741 400 4735 397 4728 396C4731 404 4739 407 4745 411L4746 419C4739 419 4733 416 4728 414C4730 425 4738 435 4746 444L4744 450C4737 446 4731 441 4723 438C4722 449 4735 451 4739 460L4726 455L4724 462C4729 467 4734 472 4735 480C4711 478 4687 479 4664 475C4668 473 4675 470 4671 463C4664 463 4656 460 4649 457C4651 453 4654 450 4659 448C4657 446 4656 443 4653 442H4636C4643 435 4655 436 4664 435L4661 430C4671 429 4678 422 4686 418L4683 413C4677 414 4672 412 4669 407C4662 411 4653 415 4646 410V403L4651 401L4658 406L4661 385C4655 384 4650 381 4644 378L4643 387L4638 383H4632C4635 378 4639 372 4638 365C4637 361 4633 358 4630 355C4627 357 4625 360 4621 361C4614 360 4607 356 4605 349L4611 352L4613 341L4622 342V337L4616 334L4621 326L4615 319C4605 324 4594 324 4583 325C4584 322 4585 318 4588 317L4606 311L4608 298C4602 297 4599 294 4597 289L4588 291V284C4580 278 4576 270 4572 262L4566 267L4559 259H4552C4551 265 4553 271 4551 277C4549 283 4541 281 4537 282L4541 298L4533 292L4532 301C4534 305 4539 307 4543 310L4527 320C4530 326 4534 333 4539 337L4519 339L4523 351L4529 352L4526 341C4530 345 4531 351 4534 355C4542 361 4552 362 4561 361C4552 370 4538 362 4528 360C4522 358 4516 357 4515 351L4499 352C4499 348 4498 343 4500 339C4502 333 4500 326 4500 319H4495C4494 314 4489 312 4484 312C4483 320 4483 329 4489 335L4481 345L4472 347C4476 352 4482 352 4487 353C4484 361 4483 370 4479 378C4474 386 4471 396 4462 400C4452 403 4442 400 4432 402C4431 396 4433 391 4436 387H4429L4425 376L4431 377L4438 366L4436 354L4421 363C4416 357 4410 354 4403 352C4412 349 4421 346 4427 338L4413 342L4427 322L4411 330L4402 320L4409 323C4413 319 4415 313 4415 307C4408 308 4401 310 4394 307L4407 297L4386 295L4383 290C4381 298 4379 307 4385 314C4380 312 4376 309 4371 308C4373 315 4379 321 4384 326C4379 329 4373 331 4367 331L4378 349L4366 344L4367 351L4355 339C4344 341 4334 334 4323 333L4326 327L4319 326L4323 319L4311 316C4307 311 4305 304 4307 298C4312 300 4318 301 4323 299L4327 306L4328 298L4335 307L4345 301L4356 305L4343 297L4342 293L4351 294C4355 293 4354 287 4355 284L4338 282C4341 279 4345 276 4345 272C4336 270 4326 270 4318 273L4317 265L4332 266C4326 260 4317 262 4310 259L4303 252C4308 252 4313 249 4318 247L4314 241C4321 235 4330 231 4338 228L4337 223C4333 222 4327 223 4324 219C4322 217 4324 214 4324 212L4334 216L4333 207C4328 208 4322 209 4319 203L4324 194C4314 196 4304 199 4294 197C4295 190 4294 183 4292 176L4303 165L4291 158L4296 156C4295 151 4294 145 4296 140L4286 144L4283 140L4288 133L4282 135C4279 130 4273 128 4267 129L4268 139L4264 142C4267 146 4269 151 4269 156L4273 163L4265 168L4280 166C4276 172 4270 176 4265 181L4266 187L4248 189C4251 191 4253 195 4255 198L4265 190L4260 199C4265 197 4272 196 4274 202C4272 208 4267 212 4265 218C4265 221 4268 222 4269 225C4264 231 4257 235 4256 243H4262L4253 250C4249 256 4248 263 4247 269L4228 282L4233 285L4224 297L4226 303C4232 304 4237 306 4243 304C4251 302 4256 294 4261 288C4259 298 4253 305 4248 313C4244 319 4235 317 4231 324C4225 331 4220 340 4211 344C4204 347 4199 353 4195 359L4183 356L4184 351L4194 344L4193 338C4185 343 4177 347 4168 345V344L4167 341L4166 340L4178 331L4185 336C4193 330 4202 324 4204 314C4193 314 4184 327 4172 322C4176 315 4183 311 4190 307L4192 295C4199 294 4204 290 4207 284C4201 283 4196 281 4191 278C4183 286 4172 293 4160 289L4164 284L4179 282L4176 270C4182 267 4187 262 4185 255L4172 262C4165 266 4158 265 4152 268C4147 270 4140 273 4136 269C4130 265 4124 263 4118 263V254L4126 255C4131 258 4134 262 4139 264H4153L4152 259C4145 259 4137 257 4131 254C4132 251 4133 248 4136 246L4148 247L4153 256C4155 253 4158 250 4162 248L4163 237C4167 239 4171 241 4176 241C4181 235 4185 228 4188 221L4185 201C4181 204 4176 207 4171 208C4164 210 4162 220 4153 219L4152 211C4143 208 4132 206 4130 196L4151 190C4158 186 4165 181 4170 174C4161 175 4154 180 4145 181L4152 170C4157 161 4169 156 4170 145C4159 148 4152 157 4143 161C4140 157 4138 152 4137 148L4132 152C4130 149 4130 145 4131 141L4139 146L4151 133L4145 128L4151 119C4139 123 4128 124 4116 122C4117 111 4131 111 4136 104H4114L4113 96C4109 100 4104 102 4099 104L4097 89C4089 98 4093 111 4089 121C4093 124 4100 128 4098 134C4090 128 4081 123 4071 120L4082 141C4090 142 4093 149 4097 154L4087 156L4083 162C4078 160 4072 160 4067 160C4070 172 4083 180 4086 192C4078 192 4071 188 4064 185C4067 188 4070 192 4070 197C4065 196 4061 192 4058 189C4051 184 4043 181 4035 178L4038 189H4029L4023 196L4017 193L4023 200L4019 204L4008 200C4010 206 4009 212 4008 218L4013 219C4010 223 4005 225 4001 227C4005 231 4010 235 4012 240C4011 247 4009 254 4010 261C4000 262 3990 261 3981 258L3979 262L3985 270C3980 273 3974 273 3969 272C3969.67 273.329 3970.34 274.663 3971 276H3967L3969 282L3980 276L3979 284H3974V289L3965 288L3963 296L3983 300L3981 303L3987 309L3986 314L3999 322C3992 333 3977 326 3969 335L3985 334V342C3975 341 3963 338 3954 344C3958 346 3961 349 3963 352L3945 354L3947 363L3953 366L3959 362L3954 372L3966 379L3975 368C3974 372 3975 376 3973 380L3965 386L3974 385L3978 371L3996 370L3999 378L3991 377C3989 382 3988 387 3982 389C3971 394 3958 395 3945 397C3940 392 3935 386 3932 379L3940 372C3938 359 3920 356 3921 343L3933 339C3932 330 3921 328 3916 321C3909 313 3908 301 3907 290C3902 279 3891 272 3883 263V1287.5ZM4747 461C4749 463 4751 466 4751 469C4748 468 4743 467 4741 463L4747 461ZM4390 462L4389 465L4386 464C4386 461 4388 461 4390 462ZM4649 452L4642 460C4636 458 4630 452 4632 444C4639 445 4644 449 4649 452ZM4988 455C4989 456 4989 458 4987 458H4983C4981 455 4986 452 4988 455ZM4840 454V458C4839 459 4837 459 4836 457C4834 454 4839 452 4840 455V454ZM4522 448C4520 450 4520 454 4517 454C4515 452 4515 448 4514 445L4522 448ZM4356 447L4359 450C4360 451 4361 452 4360 454C4357 455 4352 448 4356 447ZM4385 445L4377 452L4375 444L4385 445ZM4627 444L4621 451L4615 444H4627ZM4799 442C4798 445 4796 447 4793 448L4785 450C4787 444 4794 444 4799 442ZM4147 440L4149 443C4149 445 4148 446 4147 446C4144 446 4144 440 4147 440ZM5290 417L5291 424C5298 421 5306 419 5313 422C5312 426 5309 431 5304 432C5303 435 5302 438 5299 440C5294 442 5288 443 5282 443C5286 440 5291 436 5291 430C5285 431 5280 436 5275 439L5272 436L5286 417H5290ZM4283 430C4283 433 4281 435 4279 437L4271 442C4275 438 4278 433 4283 430ZM5188 438L5187 441L5186 440C5185 438 5185 437 5188 438ZM4617 418L4616 425L4608 426V440L4602 432L4604 422L4617 418ZM5240 436L5241 439L5233 436L5231 433L5240 436ZM4380 434L4379 437L4378 436C4377 434 4377 433 4380 434ZM5387 428L5386 435C5383 436 5379 436 5376 434L5387 428ZM5003 431V434H5000C4999 431 5000 430 5003 431ZM4950 427C4951 427 4952 428 4952 430V433C4948 436 4945 424 4950 427ZM5013 410C5017 417 5011 426 5003 426C4996 430 4988 437 4980 431C4980 427 4985 425 4988 422C4987 417 4983 420 4981 422C4977 424 4973 424 4969 424L4967 420L4975 415H4988L4996 410C4996 414 4994 419 4992 422L4996 421C4996 417 4997 414 4999 410C5003 412 5008 411 5013 410ZM4231 404C4232 408 4231 415 4226 417L4199 432L4213 419C4215 417 4215 413 4218 410H4227C4229 409 4231 406 4231 404ZM4374 427L4363 432C4362 429 4362 425 4360 422C4366 422 4371 423 4374 427ZM4159 428V431H4155C4154 428 4155 427 4159 428ZM5351 423L5361 422L5373 426L5349 429C5344 425 5342 419 5339 414C5343 417 5346 422 5351 423ZM4518 424C4519 425 4518 427 4517 427H4514C4512 425 4516 422 4518 424ZM4945 419L4944 426C4940 426 4940 421 4939 419L4941 418H4945V419ZM4302 412C4301 418 4295 422 4291 426C4292 419 4294 412 4299 407L4302 412ZM4391 418L4390 425L4387 426V418H4391ZM4179 419V423H4174C4171 420 4176 416 4179 419ZM4152 417C4154 418 4153 420 4152 421H4148C4146 418 4150 414 4152 417ZM4623 398L4629 403L4620 401L4623 410C4615 405 4607 401 4598 401L4603 409L4598 407L4597 419C4590 417 4583 418 4577 422L4574 417C4572 416 4569 415 4570 412H4571L4573 411H4574C4585 412 4592 400 4603 399C4610 399 4616 400 4622 398H4623ZM4560 407L4561 419L4545 421L4544 416L4557 412C4551 408 4545 407 4539 405C4546 405 4553 405 4560 407ZM5390 418L5389 421L5388 419C5387 418 5387 417 5390 418ZM4374 395C4367 395 4360 393 4353 396V401C4360 404 4367 404 4373 408L4379 407C4376 415 4368 421 4359 419L4350 407C4352 401 4347 396 4350 390C4358 388 4368 388 4374 395ZM5862 416C5862 418 5861 419 5860 419L5856 418C5856 415 5861 415 5862 416ZM4251 354L4254 367C4249 372 4244 377 4237 380C4228 382 4223 392 4216 397C4207 402 4200 409 4193 416C4189 417 4189 413 4189 410C4194 404 4197 397 4203 392C4212 384 4206 371 4212 362L4222 359C4224 363 4226 367 4230 368L4240 356L4241 362H4247C4247 359 4249 356 4251 353V354ZM5895 408L5894 415L5881 416L5895 408ZM4260 410C4261 412 4260 413 4258 414C4257 416 4255 416 4254 416C4253 413 4258 409 4260 410ZM4393 402L4389 407L4393 413L4386 415C4386 411 4384 406 4381 403H4374C4377 396 4387 399 4393 402ZM4612 410C4615 412 4615 413 4613 414C4612 415 4609 415 4608 413C4606 410 4611 409 4612 410ZM4154 409C4156 411 4154 412 4152 412C4150 412 4148 412 4148 409C4148 406 4153 407 4154 409ZM4967 406L4969 408L4967 410C4964 409 4964 407 4967 406ZM4983 405L4978 407L4973 408C4973 403 4980 406 4983 405ZM4930 396L4927 407L4920 408V400C4923 397 4926 396 4930 396ZM3979 403C3980 405 3978 407 3976 407H3972C3973 404 3976 402 3979 403ZM5849 376L5857 381L5863 376L5860 382L5877 396C5871 398 5863 397 5856 396C5862 400 5869 402 5875 404L5873 408C5864 407 5856 405 5847 402L5848 397H5847L5845 396H5844V391L5836 389C5834 385 5830 381 5833 376L5846 377L5849 385L5854 388C5851 385 5848 381 5848 376H5849ZM5248 394V402L5243 396L5248 394ZM4783 395C4782 398 4780 402 4776 402V394L4783 395ZM4524 375L4541 390C4548 392 4556 389 4561 395C4556 394 4550 395 4546 398L4539 393C4536 398 4531 401 4525 402L4529 396L4512 395C4513 391 4518 392 4521 391C4516 389 4509 390 4505 385C4510 383 4514 379 4515 374L4504 376V365C4510 369 4517 373 4524 375ZM5440 396L5439 401C5435 402 5432 401 5430 398L5440 396ZM5733 396C5735 397 5735 398 5734 399C5733 400 5731 401 5730 400C5725 398 5730 393 5733 396ZM5944 396C5946 398 5945 399 5944 400L5940 399C5938 396 5943 394 5944 396ZM4267 388L4269 393L4257 400L4267 388ZM5748 392C5750 394 5746 395 5745 397L5738 396L5735 387L5725 391L5724 387C5732 386 5740 387 5748 392ZM4965 396L4955 394L4964 387L4965 396ZM4928 388V393L4917 396L4918 386L4928 388ZM5683 383C5676 383 5672 389 5671 395C5668 394 5666 393 5665 391L5671 389L5667 382C5672 381 5679 377 5683 383ZM4978 393L4969 395L4973 385C4975 387 4980 389 4978 393ZM4197 385V391L4190 394C4186 392 4188 388 4188 385H4197ZM6025 390V393H6022C6021 390 6022 389 6025 390ZM6294 385C6298 386 6299 389 6301 392C6296 395 6294 391 6292 387L6285 389L6283 385H6294ZM5630 374V382L5639 384C5636 386 5635 390 5633 393L5622 392L5620 389C5624 390 5629 390 5634 388L5626 382L5630 374ZM6055 385L6047 387L6037 392C6040 384 6048 381 6055 385ZM4111 388L4104 391L4097 390C4099 384 4106 386 4111 388ZM5797 368C5795 376 5790 383 5785 389C5782 388 5779 386 5776 387C5769 387 5762 385 5755 383C5760 383 5765 381 5769 377C5773 379 5778 381 5783 380C5789 378 5793 373 5797 368ZM4354 352C4358 357 4363 360 4368 363C4366 367 4366 371 4367 376L4372 377C4378 376 4385 375 4391 372L4392 388C4389 389 4385 390 4383 386L4386 382L4369 384L4358 377L4349 376L4343 371L4348 369C4349 363 4354 357 4350 351L4354 352ZM4937 381V384C4937 385 4936 386 4934 384C4932 383 4934 378 4937 381ZM5651 378C5653 379 5653 381 5653 382C5652 384 5651 385 5649 384C5646 383 5647 377 5651 378ZM4915 375C4920 374 4924 376 4927 378C4926 386 4914 387 4912 379L4905 382C4905 376 4911 370 4915 375ZM5912 380L5913 384L5903 383C5905 381 5909 381 5912 380ZM5606 370C5607 374 5608 378 5613 378L5615 372L5621 382C5616 384 5609 383 5604 382C5604 378 5603 373 5606 370ZM6282 365L6285 371L6279 375L6277 382C6276 380 6275 376 6276 373L6282 369L6277 364L6282 365ZM6180 373L6182 382H6178V378L6171 373H6180ZM6161 373L6152 380V373H6161ZM6317 376C6320 379 6318 380 6315 380C6313 380 6310 379 6310 376H6317ZM4951 374V378C4951 380 4949 380 4948 379C4945 377 4948 372 4951 374ZM4602 372L4610 373V374L4611 376L4599 378V372H4602ZM3948 374H3946V375C3947 377 3948 377 3948 374ZM4334 374L4333 376L4332 375C4331 374 4331 373 4334 374ZM5663 367C5663 371 5661 372 5658 374L5649 376C5653 372 5657 367 5663 367ZM4057 374C4053 373 4050 370 4047 368V358C4049 364 4055 368 4057 374ZM4335 365L4330 368V373C4321 373 4321 363 4319 357C4325 359 4331 360 4335 365ZM4141 368V372H4137C4136 368 4137 367 4141 368ZM6081 366C6079 367 6078 369 6077 372L6066 370L6065 360C6070 361 6076 363 6081 366ZM6288 364L6274 359L6272 370L6261 371L6255 366L6277 358C6282 357 6286 359 6288 364ZM6248 363L6251 370L6241 371L6240 369L6248 366L6241 362L6248 363ZM6095 362L6091 365L6097 371L6087 369L6088 363L6095 362ZM4391 362L4388 370C4384 369 4379 368 4377 364L4391 362ZM5654 363L5655 368L5649 369L5645 363H5654ZM4097 357L4096 361C4092 364 4087 370 4082 366C4082 362 4080 358 4083 356L4097 357ZM6304 360C6306 361 6307 362 6307 364C6307 366 6305 367 6303 366C6300 365 6300 359 6304 360ZM6037 361V365H6034C6031 363 6035 359 6037 361ZM4133 361C4134 361 4135 362 4134 364C4134 365 4133 366 4131 366C4128 365 4129 360 4133 361ZM4584 364C4578 365 4573 366 4567 365L4570 361L4584 364ZM4517 360L4519 362L4517 364C4514 363 4514 362 4517 360ZM5934 354L5938 357V361C5935 363 5931 355 5934 354ZM4143 360C4142.18 357.374 4141.51 354.703 4141 352C4146 352 4148 358 4143 360ZM6379 353C6378 356 6374 357 6372 358V352L6379 353ZM5971 354V357H5967C5966 354 5967 353 5971 354ZM4340 352C4341 354 4340 355 4339 355H4336C4334 352 4339 350 4340 352ZM5931 346V351C5930 353 5929 354 5927 354C5926 351 5925 345 5931 346ZM6485 351L6477 354L6479 348L6485 351ZM5683 347L5675 352C5672 353 5669 352 5667 348C5672 346 5678 347 5683 347ZM4079 347V351C4077 352 4075 353 4074 351C4071 348 4076 344 4079 347ZM4140 348V351H4137C4137 348 4138 347 4140 348ZM5660 348V351L5658 349C5657 348 5658 347 5660 348ZM5899 346L5898 350H5895C5894 347 5895 346 5899 346ZM4137 338L4133 349C4128 348 4130 342 4128 337L4137 338ZM4543 348C4540 348 4535 351 4534 346L4538 342L4543 348ZM6462 342L6466 344L6465 347C6461 349 6456 342 6462 342ZM6064 343V346C6063 347 6061 347 6060 345C6058 342 6063 340 6064 343ZM6281 343L6273 346L6275 340L6281 343ZM4082 342L4081 345L4078 344C4078 341 4080 341 4082 342ZM6537 339V344C6530 343 6524 339 6521 333C6526 335 6531 340 6537 339ZM4061 339L4073 340H4074V343L4075 344C4069 343 4063 342 4060 339H4061ZM4090 338C4091 340 4090 341 4089 342H4085C4083 339 4088 336 4090 338ZM6598 336C6592 338 6586 344 6580 340C6583 335 6588 333 6591 328C6595 327 6596 333 6598 336ZM4155 337V340H4152C4151 337 4152 336 4155 337ZM6258 334L6262 336L6261 339C6257 341 6252 334 6258 334ZM6023 327C6020 333 6014 336 6007 337L6008 334L6023 327ZM4923 329C4928 331 4923 339 4918 337C4912 337 4909 333 4905 329C4911 331 4917 330 4923 329ZM5915 318L5913 324L5916 328L5913 336H5907C5907 331 5909 327 5912 323L5904 324L5906 316L5915 318ZM5963 330C5965 331 5966 332 5965 334C5965 335 5963 337 5961 336C5957 335 5960 329 5963 330ZM4070 319C4073 323 4078 326 4083 327C4074 326 4068 333 4060 336V329C4057 326 4055 322 4055 318L4049 314C4056 316 4063 320 4070 319ZM6997 332V336H6993C6992 332 6994 331 6997 332ZM4938 330C4940 330 4941 332 4942 333C4943 335 4942 336 4940 336C4936 336 4933 330 4938 330ZM6333 331V336C6326 335 6320 331 6317 325C6322 327 6327 332 6333 331ZM6631 300C6638 300 6644 302 6650 306C6642 307 6634 304 6627 308L6628 313L6655 320C6649 327 6640 329 6631 331C6632 325 6628 321 6624 317L6627 314C6624 310 6622 306 6621 301L6628 300L6626 292L6631 300ZM5840 320L5841 326C5837 327 5832 329 5827 329C5829 325 5831 320 5830 315L5840 320ZM4167 328L4164 325L4163 320C4167 321 4170 325 4167 328ZM6602 317L6606 327L6595 324L6596 319L6602 317ZM5950 316L5949 326L5941 324L5950 316ZM6668 321V324H6661V320L6668 321ZM4115 308C4114 313 4113 318 4110 323L4102 324V313C4106 309 4110 306 4115 308ZM5959 320V323H5955C5954 320 5955 319 5959 320ZM4151 317L4153 319L4151 322C4148 322 4148 317 4151 317ZM6668 316C6664 318 6659 319 6656 315L6648 314L6653 311C6659 311 6666 309 6668 316ZM6675 315V317H6673C6672 316 6672 315 6675 315ZM4328 308C4326 310 4327 311 4328 312C4330 314 4332 314 4333 314C4340 314 4330 309 4328 308ZM6687 310V313L6684 314C6683 310 6684 309 6687 310ZM4585 308L4587 311C4587 312 4587 313 4585 314C4581 315 4580 306 4585 308ZM5899 304C5904 306 5912 303 5914 310C5911 314 5906 313 5902 314L5900 309L5891 310C5893 307 5896 302 5899 304ZM5923 310V313H5921C5920 312 5919 311 5923 310ZM6549 309L6550 312L6547 313C6545 311 6546 309 6549 309ZM4051 262C4061 257 4069 266 4078 269L4079 272L4057 270L4042 274L4044 283C4051 284 4060 285 4063 292L4073 287L4074 296C4079 297 4084 290 4089 294C4088 299 4084 299 4080 300L4078 307C4070 312 4060 314 4050 311V304C4044 300 4040 294 4035 289L4042 286C4040 278 4032 273 4031 264L4043 261C4044 263 4044 267 4046 268C4047 261 4043 257 4039 252C4044 255 4048 258 4051 262ZM4949 305L4941 310L4946 303L4949 305ZM5933 310C5933.09 307.334 5933.09 304.666 5933 302C5939 301 5939 311 5933 310ZM6570 306V309L6568 308C6567 306 6567 305 6570 306ZM4162 307C4158 307 4153 307 4149 305C4154 302 4157 298 4160 294C4163 298 4162 303 4162 307ZM6790 284H6808L6804 291L6808 289C6808 286 6808 283 6810 281H6821L6822 285C6821 289 6817 293 6812 293V298L6808 299L6811 302C6804 304 6796 306 6788 306V303H6797L6781 298C6785 294 6788 290 6789 285L6778 288L6780 277C6784 278 6787 281 6790 284ZM4113 297L4112 303L4097 306L4100 294L4113 297ZM4001 286V299L4002 300L4005 302L4006 303L4004 305C3997 306 3991 303 3985 301L3987 291C3992 290 3998 291 4001 286ZM5963 296L5965 304L5962 305L5959 298L5963 296ZM4183 302C4179 305 4174 306 4169 304L4173 292C4178 294 4180 298 4183 302ZM6345 301L6346 304L6343 305C6341 303 6342 301 6345 301ZM6366 298V301L6364 300C6363 298 6363 297 6366 298ZM6631 264C6635 268 6638 272 6643 274C6642 279 6641 283 6642 287C6650 289 6659 288 6666 283V300L6657 298L6661 294L6643 296C6638 293 6634 287 6628 289C6623 290 6620 286 6619 282L6623 281C6623 276 6629 269 6624 264C6626 263 6629 261 6631 264ZM5943 287L5947 284L5957 294C5949 295 5941 299 5933 299L5918 293L5919 287C5925 288 5929 291 5933 294C5937 295 5944 296 5943 291L5932 289C5928 289 5927 285 5930 283C5934 280 5941 282 5943 287ZM4187 294L4188 295L4189 297C4187 304 4179 293 4187 294ZM6911 289C6907 289 6904 292 6901 295C6897 297 6894 299 6890 296C6896 291 6903 289 6911 289ZM6989 292C6990 292 6991 294 6990 295C6990 296 6989 297 6987 297C6984 296 6986 290 6989 292ZM4125 292C4123 292 4122 291 4121 289L4120 285C4124 285 4124 289 4125 292ZM6548 282V291H6544L6541 284L6548 282ZM4094 281C4097 280 4100 276 4104 279C4108 280 4113 284 4109 288C4105 291 4101 292 4096 291C4094 289 4092 286 4092 283L4082 287C4082 285 4081 284 4079 283L4089 276C4092 276 4093 279 4094 281ZM5971 262L5972 267L5971 268H5968L5967 269L5976 277L5973 280L5983 291C5978 289 5972 289 5967 288L5943 278C5949 277 5954 276 5959 278L5971 262ZM6863 284L6874 283L6885 287L6860 291L6851 276C6855 279 6858 283 6863 284ZM4547 286L4549 288L4547 290C4544 289 4544 288 4547 286ZM6003 278C6002 281 6003 288 5998 287L5996 280L6003 278ZM4144 277L4145 284L4139 286C4138 283 4137 279 4139 276L4144 277ZM6344 275C6343.62 277.66 6343.28 280.327 6343 283H6340L6337 276L6344 274V275ZM4945 276V280C4944 282 4943 282 4941 281C4939 279 4941 274 4945 276ZM6904 278V281H6901C6900 278 6901 277 6904 278ZM6666 274L6665 280C6659 281 6654 279 6651 275L6666 274ZM6677 275V278H6674C6673 275 6674 274 6677 275ZM6892 274V277L6890 276C6889 274 6889 273 6892 274ZM7125 269L7127 275L7117 276L7120 269H7125ZM5561 253C5559 259 5558 266 5564 269C5558 270 5551 267 5545 266L5549 258C5554 258 5558 256 5561 253ZM5911 260C5911 263 5911 268 5907 268C5901 269 5897 265 5893 261L5911 260ZM6957 256C6957 260 6955 262 6952 261L6945 257L6957 256ZM4043 196L4046 197C4051 201 4059 204 4056 211C4061 212 4067 212 4069 217C4072 221 4066 225 4064 228C4066 231 4066 234 4066 238C4070 238 4074 239 4077 242L4086 236L4090 242C4096 238 4102 232 4109 231C4110 238 4111 245 4108 251L4111 258C4106 263 4095 262 4093 254L4101 250L4081 252C4077 253 4072 254 4068 252L4050 239C4047 238 4045 242 4043 243C4036 240 4030 235 4026 229C4031 227 4036 229 4041 230L4033 225L4035 218L4041 219C4039 216 4037 212 4038 209L4043 204V203L4041 201H4034C4037 199 4040 196 4043 196ZM6684 253V257L6680 258C6679 255 6682 252 6684 253ZM7238 254C7239 256 7237 257 7235 258C7234 258 7231 258 7231 256C7232 253 7236 252 7238 254ZM4044 251H4040C4038 248 4043 246 4044 248V251ZM7218 248L7217 251L7214 250C7214 247 7216 246 7218 248ZM7248 239L7247 247H7240L7241 238L7248 239ZM4159 239V242H4156C4155 239 4156 238 4159 239ZM5932 235H5933L5935 237L5927 242L5932 235ZM4315 224L4319 234C4312 235 4305 240 4297 237C4304 234 4305 226 4302 220C4305 224 4310 225 4315 224ZM4137 231V234H4134C4133 231 4134 230 4137 231ZM7386 226C7387 227 7386 229 7385 230H7382C7380 227 7384 224 7386 226ZM4108 215C4109 221 4106 228 4099 227C4091 227 4086 221 4081 217C4090 218 4099 216 4108 215ZM7225 219L7245 216V221C7237 219 7229 221 7222 226V212L7225 219ZM4131 223V225H4130C4128 224 4128 223 4131 223ZM4181 222V225H4179C4178 224 4177 222 4181 222ZM4127 219C4128 220 4127 221 4126 222H4122C4120 219 4125 216 4127 219ZM7366 220V223L7364 222C7363 220 7363 219 7366 220ZM5931 209V213C5930 214 5929 215 5928 214C5925 212 5928 206 5931 209ZM7345 208C7346 209 7347 210 7346 211C7346 212 7345 213 7343 213C7340 212 7342 207 7345 208ZM7280 173L7290 181V183L7291 186V187L7280 183C7279 188 7283 191 7286 194L7284 202C7286 206 7291 208 7293 212C7288 211 7284 207 7280 204L7282 200C7279 196 7274 192 7277 186L7271 177L7280 173ZM7496 202V206H7492C7490 203 7494 200 7496 202ZM7385 201V203H7383C7382 202 7382 201 7385 201ZM7514 194V202C7509 202 7507 198 7507 194H7514ZM7305 186L7304 195C7299 194 7296 189 7299 185L7305 186ZM4135 185V188C4134 190 4133 190 4131 189C4128 187 4132 182 4135 185ZM7503 168L7504 181C7499 182 7495 180 7491 178L7494 188L7487 187L7486 178L7503 168ZM7479 182L7481 184L7479 186C7476 185 7476 184 7479 182ZM4140 181V185C4139 186 4137 186 4136 184C4133 182 4138 178 4140 181ZM7586 168C7587 170 7587 171 7585 172C7584 173 7583 173 7582 171C7579 169 7584 166 7586 168ZM7452 160V168C7447 168 7444 163 7447 159L7452 160ZM7610 151V158L7617 161C7611 161 7605 163 7600 166L7591 161L7602 160L7590 156C7593 149 7603 149 7610 151ZM7566 160V164H7563C7562 160 7563 159 7566 160ZM4095 161V163H4094C4092 162 4091 161 4095 161ZM7551 153V155H7549C7548 154 7547 153 7551 153ZM7450 152V155L7448 154C7447 152 7447 151 7450 152ZM7580 144C7577 146 7578 151 7578 154C7572 153 7574 146 7574 142C7577 140 7578 143 7580 144ZM7552 141L7556 143C7557 145 7557 146 7555 147C7551 148 7549 142 7552 141ZM4126 142L4125 144L4124 143C4123 142 4123 140 4126 142ZM7683 124C7680 131 7676 137 7671 142L7669 135L7683 124ZM7585 133L7587 136C7583 137 7577 142 7575 136C7576 132 7581 134 7585 133ZM7562 133V136H7559C7558 133 7559 131 7562 133ZM7857 122C7860 123 7860 127 7861 130C7856 130 7854 126 7852 122L7845 125L7843 121C7848 121 7853 120 7857 122ZM7845 104C7841 108 7837 112 7837 117L7834 115L7835 107L7845 104ZM7879 111L7880 116C7877 115 7873 114 7871 111H7879ZM7730 109C7731 111 7730 112 7728 112C7726 113 7724 112 7724 110C7724 107 7729 107 7730 109ZM7585 106C7585 112 7579 109 7576 110V105L7585 106ZM7832 93C7831 97 7833 102 7830 105L7819 107L7813 101L7832 93ZM7806 97V105H7796L7804 99L7797 96L7806 97ZM7864 94C7866 94 7867 95 7868 97C7869 98 7869 100 7867 100C7863 101 7860 95 7864 94ZM7721 91L7723 94C7723 96 7723 97 7721 98C7717 98 7716 90 7721 91ZM7717 82L7716 86H7711L7709 81L7717 82ZM7838 74C7839 76 7837 78 7836 78C7834 79 7832 78 7831 76C7832 73 7836 72 7838 74ZM7883 28L7881 30L7883 32V28Z" fill="#001B33"/>
<path d="M4000 1287.5H0V48L12 46L6 56C15 53 20 45 25 38C27 42 31 46 28 50C25 55 18 59 18 66L9 69C13 71 18 77 23 75L29 63C34 66 39 67 44 64C43 60 41 55 37 52V42C45 40 53 43 60 43L62 30C60 33 59 36 56 37L46 34C44 26 51 20 58 20C61 15 64 8 71 9L66 6C71 3 76 1 82 0L83 14L90 16L89 25H96L89 34L97 41C96 45 93 48 90 51L102 53L101 59C93 64 85 67 76 68C85 71 94 66 104 64C103 68 104 74 99 77C93 84 84 87 76 89C83 89 91 90 98 93C104 94 110 91 115 93L114 102L124 86L127 89L126 80C131 83 137 83 142 80C137 79 132 76 133 70L146 69L140 62C146 61 151 60 156 57L157 72L161 70V64L173 65C177 61 178 57 181 53L174 45C180 42 178 35 178 29L186 30L183 25L196 21C198 29 196 37 194 44L190 47C195 53 200 60 209 60C205 62 202 65 198 66H192L197 78C198 88 204 97 208 106C210 112 214 114 218 118L226 114C224 103 229 93 234 84C243 86 247 95 254 100C255 107 247 105 243 104L253 113L258 106C260 112 258 117 256 122H264C266 127 270 131 275 134V139L270 140L271 143H283V149C290 149 295 145 300 141C292 140 286 138 279 135L278 130H295C288 127 279 125 276 116C282 116 286 119 291 121H301L307 127L308 113C302 115 296 116 289 116C289 112 290 109 288 105C284 100 277 96 275 89L289 96V93L298 95L289 82L302 78L292 63L303 68C300 63 300 57 300 51L318 56L311 64L326 63L324 73H317L323 80L335 74L324 90L335 87C331 92 324 94 318 97C319 102 326 103 330 106C334 103 338 101 343 100C343 104 344 109 341 113L328 121C324 120 321 119 317 120L327 127L312 122V123L313 126V127C323 132 333 128 342 124C340 130 337 136 332 139C339 137 345 133 353 136C348 141 342 142 336 141V146L345 143L337 154L351 150C349 152 348 155 345 156C340 158 335 158 333 164L345 161L357 170L355 152L360 150L361 156L362 144L366 152L374 150C369 154 365 159 367 165L373 161L374 166C377 164 379 160 382 162C390 164 396 170 404 170L416 173L403 158H407L400 150L405 144L399 140V136L410 142L406 130L420 136C419 131 417 126 417 120L426 110L428 120L436 116C431 120 427 125 428 132L436 127V131L445 130C441 136 439 144 435 151L454 146C450 151 445 155 443 162L457 155C455 160 453 165 449 169L450 177L442 184L457 185C451 191 443 197 441 206C446 205 452 204 455 199C459 195 464 193 469 192L474 198L479 194V203C479 208 477 215 484 217C488 221 493 219 496 216L488 206C489 202 488 197 492 195L511 197L512 184L508 193L496 189C497 186 496 181 500 180C507 176 514 169 518 161C522 161 526 160 529 158C531 164 532 170 538 173L537 181L543 179C542 183 540 186 537 190C542 192 546 196 552 197L564 199C555 193 552 183 547 175L551 170L544 166L553 161L556 155L567 162L565 146L573 135L576 144L582 141L574 154L589 159L588 174C598 172 607 165 614 157L610 155L606 141L608 133L619 135L618 141L625 139C624 145 622 151 627 156C622 161 623 168 624 175L641 174V180L650 183L640 186L652 192C645 201 636 194 629 189L627 200L640 198C638 203 635 207 631 211C634 216 641 214 646 215L647 207C654 203 661 199 665 191C668 185 675 185 680 184C681 190 683 196 689 199L688 206L694 207L687 216L695 222L692 232L702 234L694 245H703V253L689 265C702 268 715 269 728 270L721 259L732 264L737 260C733 258 730 255 729 251L742 249L735 243L752 239C752 244 752 249 749 254L758 251L750 263C757 266 765 266 772 263L763 252L771 255L769 241L786 245L778 251L789 252L786 261C787 264 788 268 787 271C787 275 784 280 787 284C793 291 802 294 806 301C812 310 812 320 814 329C818 337 828 339 835 340L874 351C878 351 881 353 883 354L875 338L888 345C884 337 879 328 879 319L892 320L887 312L900 314C896 308 885 310 883 301L897 305C891 299 886 293 882 286C889 284 895 289 902 290C897 287 893 282 891 275L911 281L909 288C912 282 917 278 922 274L905 278C909 276 913 274 915 270L903 271L902 267H894C891 262 889 256 890 250L904 258L916 249C910 246 903 243 898 238L909 241L898 225L909 231L916 226C911 224 906 220 907 214H923L914 206C920 205 928 207 932 201C933 207 934 214 930 219L942 214L931 229L944 233L935 245L944 247C949 244 954 241 959 240C957 247 950 250 946 256L942 267C936 268 930 266 925 264V277C932 273 941 274 948 270C951 267 954 267 958 268C953 275 945 278 938 281H950C954 281 954 286 956 288L960 283L967 282V274L978 273C975 269 973 264 973 259L987 261V256H979V251C985 246 990 239 998 234L1005 246C1010 253 1004 265 1014 269C1017 266 1023 263 1024 258L1033 240C1037 233 1038 224 1041 216L1032 218L1024 211L1034 210L1044 196L1037 198C1040 192 1037 187 1036 181L1037 172L1049 175L1048 182L1056 179L1053 191L1058 196L1053 203L1054 216L1072 214L1070 221L1079 224L1080 227H1074L1072 229L1083 236L1071 239C1068 236 1065 233 1061 232L1057 242L1071 240C1069 245 1065 249 1062 253C1065 258 1073 257 1078 258L1068 262L1086 264L1082 270L1093 269V262L1108 263C1109 256 1110 250 1105 244L1109 240L1107 231H1113C1114 225 1119 224 1124 223C1126 230 1125 236 1122 242L1125 245L1118 246C1122 253 1128 258 1136 260L1120 265C1123 270 1125 276 1126 282C1130 294 1138 304 1145 314C1148 321 1155 318 1160 319C1161 315 1164 312 1168 310L1180 319L1187 315L1178 313L1172 298C1180 301 1189 305 1198 306L1211 301V296C1205 298 1198 303 1191 302C1195 300 1199 297 1204 296L1203 295L1202 292L1201 291C1197 292 1193 293 1191 297L1186 292V291L1189 289L1190 288L1176 287L1171 278L1172 266L1188 275C1194 273 1198 269 1203 265L1204 263C1195 260 1187 257 1181 250L1196 254C1191 247 1185 241 1181 233L1197 241L1205 232L1197 231C1193 228 1194 223 1193 218L1213 220C1211 215 1206 212 1201 209C1208 208 1215 206 1222 207L1225 201C1227 209 1229 218 1224 225L1238 218C1235 228 1225 233 1224 243L1228 240L1241 242L1230 259L1242 261L1258 252C1260 257 1264 260 1269 262V266L1275 265C1275 271 1274 277 1279 281L1273 288L1274 301L1291 300V306L1301 310V301C1293 297 1284 293 1281 285L1286 283L1298 290C1305 293 1313 292 1320 296L1310 284C1311 278 1306 275 1303 272L1309 270C1306 266 1303 263 1302 258L1314 265L1311 253C1315 254 1320 256 1324 259C1323 254 1321 248 1322 243L1330 235L1332 242L1338 241C1335 244 1332 249 1332 254L1346 255C1345 261 1345 267 1340 271L1341 273L1336 278C1343 274 1350 270 1358 268C1355 274 1348 278 1347 285L1360 278L1353 292L1354 300L1346 307L1361 308C1355 314 1348 320 1345 328L1370 323L1364 332C1372 330 1377 322 1382 316L1385 326L1374 342L1366 345L1376 355C1381 351 1383 345 1386 339L1394 343L1400 339L1392 329L1394 319L1402 318V329L1405 320L1415 321L1416 308C1414 311 1413 314 1410 315L1400 312C1400 307 1401 303 1406 302C1412 299 1416 293 1420 288C1422 282 1429 282 1433 280L1436 292L1443 295L1440 303H1447L1441 312L1449 318L1443 327L1453 329C1459 339 1466 349 1470 360C1471 366 1477 366 1482 367L1474 354C1477.68 355.628 1481.35 357.295 1485 359V357H1486C1482 352 1481 346 1482 340L1494 346C1489 339 1481 334 1480 325L1481 324L1483 323H1484L1500 334L1507 332C1500 326 1497 317 1491 311C1486 306 1486 299 1485 293C1490 298 1496 303 1504 303L1505 293C1497 289 1489 285 1485 277L1486 276H1489L1490 275L1502 282C1509 285 1517 284 1524 288L1514 276C1515 270 1510 268 1507 265L1512 262C1510 258 1507 255 1506 250L1518 257L1515 245C1519 246 1524 248 1528 251L1526 239C1524 233 1530 230 1533 227L1536 234L1542 233C1539 236 1536 241 1536 246L1550 247C1549 253 1549 259 1544 263L1545 265L1540 270C1547 266 1554 262 1562 260C1559 266 1552 270 1551 277L1564 270L1557 284L1558 292L1550 299L1565 300C1559 306 1552 312 1549 320L1574 315L1568 324C1576 322 1581 314 1586 308L1589 318L1578 334L1570 337L1580 347C1585 343 1587 337 1590 331L1598 335L1604 331L1596 321C1596 316 1598 312 1600 309L1607 312L1606 321L1609 312L1619 313L1620 300C1618 303 1617 306 1614 307L1604 304C1604 299 1605 295 1610 294C1616 291 1620 285 1624 280C1626 274 1633 274 1637 272L1640 284L1647 287L1644 295H1651L1645 304L1652 310L1648 321H1658C1657 324 1655 327 1652 329C1646 334 1639 335 1632 336C1641 339 1650 334 1659 332C1658 338 1656 345 1650 348C1645 353 1638 353 1632 355L1653 358L1670 359L1665 373H1658L1662 382H1675H1666L1672 368L1684 373L1693 367L1677 358H1685L1678 346L1688 351L1696 345H1688L1685 337H1697L1692 330C1698 330 1703 328 1708 325L1707 340L1714 338L1706 350L1716 352L1712 363L1718 365V364L1720 363H1721L1718 354L1726 350L1720 340L1727 342L1725 330L1740 332L1734 338L1746 339C1746 343 1743 346 1739 348L1744 351L1754 348L1747 356L1752 360L1739 368L1748 372L1759 369L1764 378L1769 377C1765 371 1763 365 1761 359C1773 359 1784 357 1796 355C1785 354 1771 347 1772 334C1780 336 1789 341 1797 336C1787 337 1777 332 1772 324L1782 323L1778 312L1785 307C1782 304 1777 299 1783 296L1784 292C1789 289 1791 283 1793 278H1794L1796 279H1797C1805 281 1808 290 1814 294C1817 297 1824 300 1823 306L1814 311C1811 309 1810 305 1808 302L1810 315H1819L1822 323L1821 314H1831C1832 321 1828 328 1824 334C1829 335 1834 336 1839 335C1841 339 1841 345 1846 345C1849 344 1852 341 1854 338L1848 336L1839 319C1838 316 1840 314 1841 311C1846 317 1850 323 1858 326L1852 317L1875 322C1875 313 1866 309 1861 303C1866 303 1871 301 1876 302L1868 296L1869 287C1865 283 1863 279 1861 275L1874 281C1873 274 1866 271 1864 265C1871 267 1879 270 1885 274C1880 269 1876 261 1876 253L1889 251C1888 246 1886 242 1882 238L1888 240L1892 232L1893 241L1895 238L1899 240L1897 256L1907 253V262C1912 260 1916 256 1918 251C1925 254 1931 258 1937 263C1942 255 1953 255 1956 247L1941 242C1936 240 1931 235 1927 230L1944 236C1941 226 1932 220 1927 211C1935 213 1941 218 1947 222L1950 216C1949 211 1946 207 1943 203C1944 199 1944 196 1942 192C1950 195 1958 195 1967 194C1964 188 1957 185 1951 181C1957 180 1965 183 1969 178L1978 181L1980 171C1984 176 1983 183 1984 189C1984 194 1980 198 1978 202L1997 192C1994 202 1986 209 1980 216L1990 221H2001C1997 229 1991 236 1986 243C1992 243 1997 243 2002 246C2008 240 2015 236 2023 234C2022 237 2022 242 2019 245C2012 250 2005 255 2000 262L2001 276C1991 278 1980 277 1971 272V292L1982 290L1977 284L1998 287L2012 277L2020 280L2012 290C2005 293 1997 294 1991 300C2000 299 2010 298 2018 302L2017 307C2009 310 2001 312 1993 317L1985 315C1989 320 1993 327 2000 328H2020C2011 333 1999 331 1991 339L2013 347L1996 348L1997 355L1990 348C1991 353 1994 357 1997 359L1996 364C1991 361 1984 358 1978 361L1985 367C1993 373 2003 369 2011 372L2016 363H2026L2021 355L2042 354L2032 348C2039 347 2048 347 2054 340L2044 336L2037 326L2026 322L2027 318L2038 312L2029 310L2030 305H2040L2037 296L2059 298L2061 282L2054 273L2061 269L2058 254L2068 256L2065 249L2081 245L2079 255H2083C2080 261 2076 269 2081 276L2071 274L2084 290L2096 292L2085 299H2075L2082 314L2079 318L2089 331L2084 332C2091 336 2094 345 2097 352C2102 356 2107 360 2108 366C2115 368 2121 370 2128 370L2119 366C2117 358 2115 350 2117 342C2117 334 2124 328 2128 320C2137 326 2144 335 2152 342L2144 348L2137 343C2140 348 2144 352 2149 355L2154 348C2159 354 2155 361 2152 366L2164 368L2165 378H2175V386L2168 391L2182 392C2184 393 2185 396 2186 398C2194 400 2200 395 2204 389C2195 387 2184 387 2179 378C2185 375 2193 376 2200 376C2192 372 2183 370 2178 362L2182 358C2188 363 2194 367 2202 366C2207 366 2210 372 2215 370L2216 355C2209 359 2201 359 2193 359V347C2187 340 2177 336 2175 326L2188 332C2192 336 2198 333 2204 333L2193 318L2209 313C2204 307 2199 302 2195 295L2210 302C2204 295 2205 286 2208 278L2210 285C2217 284 2223 285 2230 286L2219 296H2236C2236 299 2238 303 2235 305C2233 308 2229 307 2225 308L2234 316L2248 308C2245 315 2239 320 2236 328L2248 324C2243 331 2234 334 2226 337L2241 348L2256 339L2258 345L2274 336C2279 330 2284 322 2287 314C2282 319 2278 325 2271 327C2265 328 2257 328 2254 322L2262 312L2260 307C2265 303 2269 299 2275 297C2275 292 2276 288 2278 284C2280 279 2285 277 2288 273C2286.66 272.675 2285.33 272.342 2284 272L2283 270L2294 258L2290 252C2293 247 2299 241 2297 234L2289 235L2286 240L2287 232L2282 235L2276 226L2293 227L2290 220C2295 217 2299 212 2303 207L2292 209L2297 204L2291 198L2294 195C2290 189 2291 182 2293 175C2299 175 2304 179 2310 179L2306 184L2308 188L2317 184V197L2316 198L2313 199L2312 200L2324 206L2313 216C2316 222 2316 228 2315 234C2324 235 2333 232 2341 233C2339 236 2338 240 2340 243L2349 242L2352 249H2342L2340 252L2353 257L2354 261L2338 268L2334 277C2332 280 2328 281 2324 282C2329 292 2341 288 2349 293H2336V299C2344 298 2353 298 2361 300L2354 307L2368 310L2367 317H2357C2360 322 2365 325 2370 328L2360 324L2352 329L2345 323C2345 329 2348 333 2351 337C2345 335 2343 329 2341 323H2326C2327 328 2327 333 2331 337C2334 339 2337 339 2340 339L2337 346L2343 347L2342 352C2351 354 2360 359 2370 357L2375 372C2372 374 2369 369 2366 368L2363 371C2359 369 2355 368 2350 368L2356 375C2350 376 2343 375 2337 373C2342 377 2347 382 2350 389L2354 388L2360 394L2359 400C2364 405 2368 413 2377 413C2398 417 2419 411 2440 415C2432 409 2422 411 2414 406C2409 402 2409 397 2410 392L2423 398L2434 389C2428 387 2422 384 2417 379L2425 380L2416 367L2428 373L2434 368L2427 365L2426 357H2440L2432 350C2438 349 2444 348 2450 345C2450 351 2450 357 2447 362L2458 357L2448 371L2460 374L2452 386C2460 388 2467 384 2474 381C2471 388 2465 392 2461 397L2459 407L2442 404L2443 416L2447 415L2448 411L2454 412C2461 413 2466 405 2472 408C2469 414 2462 417 2456 419L2471 422C2467 424 2464 428 2461 432C2467 433 2473 432 2479 431L2474 428V422H2482L2483 414L2491 412L2488 401C2491 397 2496 400 2500 400L2493 394C2499 388 2504 379 2512 376L2519 390C2520 397 2519 405 2526 409C2530 405 2535 402 2537 397C2543 385 2548 373 2551 360C2546 359 2540 358 2536 355C2543 353 2549 348 2553 342C2548 335 2546 326 2548 318C2557 319 2565 327 2564 337L2567 340C2562 345 2563 352 2564 359L2580 358L2579 364L2588 365L2584 372L2591 378C2587 378 2584 380 2581 379L2569 373L2567 384L2579 382C2576 386 2574 391 2570 395L2586 398C2583 399 2579 399 2577 403H2594L2590 408L2609 416V409C2604 405 2599 402 2596 396C2605 399 2614 403 2624 405C2618 399 2612 390 2613 381L2618 374L2627 378C2626 374 2624 370 2625 366L2630 360L2633 365L2637 364L2631 373L2643 374L2641 386L2650 385L2643 395L2652 393L2645 412L2652 413L2642 428L2654 426L2658 430L2670 420C2670 429 2664 436 2657 441L2664 447C2665.97 444.308 2667.97 441.641 2670 439L2671 440H2672L2680 436C2677 431 2675 426 2676 421L2692 422L2680 414C2686 410 2691 405 2695 399C2697 396 2701 395 2704 394L2713 411V428L2720 429C2716 435 2709 438 2702 440L2721 436C2720 446 2710 450 2702 453L2725 456C2731 459 2737 461 2744 462L2736 456C2737 453 2736 450 2734 447L2742 450C2743 447 2741 444 2740 441L2748 440L2745 434H2754C2757 439 2758 444 2755 449L2761 451L2758 459L2770 456L2764 465C2782 469 2800 473 2819 473C2826 471 2825 464 2824 459C2820 459 2818 463 2815 465L2813 459L2804 469L2797 463C2790 464 2783 462 2776 460C2779 455 2783 451 2789 448C2796 445 2800 438 2806 431C2809 427 2816 426 2820 422C2824 416 2828 410 2831 402C2825 408 2820 415 2812 415C2808 415 2804 416 2801 413C2799 408 2804 404 2806 400L2804 395L2819 385L2822 373C2824 368 2829 365 2833 362L2827 361L2837 348L2835 341C2838 335 2842 331 2842 325L2834 324L2830 329L2831 324C2827 322 2819 322 2821 316C2826 315 2832 316 2837 317L2834 310C2839 307 2843 302 2847 298L2836 300L2841 294L2835 289L2839 287L2833 279L2836 274V266C2841 266 2846 268 2849 271L2853 270L2850 278L2861 276L2859 293L2866 296L2857 306C2859 312 2859 318 2859 324C2867 325 2876 323 2884 322C2883 325 2879 329 2883 332C2886 333 2894 331 2894 337L2882 340C2886 343 2890 346 2896 346V352C2890 352 2881 357 2878 350C2875 347 2871 346 2867 345L2863 359L2882 356C2881 364 2874 369 2868 373L2879 379V388L2894 386L2880 380L2898 376C2904 381 2912 385 2921 382C2917 379 2912 378 2907 377C2908 370 2904 365 2901 358C2910 363 2919 366 2928 368C2937 371 2944 364 2952 363L2950 357C2942 360 2935 366 2925 365L2927 361C2932 360 2938 359 2942 356C2940 354 2938 350 2935 351C2930 351 2927 355 2925 357L2919 352L2924 346L2908 347L2901 337C2898 332 2901 325 2901 320C2909 322 2916 326 2922 331C2926 330 2927 325 2932 324C2935 322 2943 320 2941 315L2927 311C2921 308 2917 303 2913 298L2930 304C2927 294 2916 288 2913 278L2933 289C2934 287 2937 285 2936 282C2935 278 2932 275 2930 271L2929 259C2936 262 2944 262 2953 261C2951 254 2943 252 2937 248L2953 247L2955 243L2964 248L2968 237L2971 255C2972 260 2967 264 2965 268L2984 260L2977 273L2966 283C2973 288 2980 290 2989 289C2984 297 2978 304 2974 312C2979 311 2985 309 2989 306L2986 315C2995 311 3002 304 3012 302C3011 306 3010 311 3006 314L2986 331C2988 335 2991 341 2987 345C2977 348 2966 347 2958 340L2957 356C2957 358 2956 361 2959 361C2962 364 2966 360 2969 359L2964 354C2972 355 2979 357 2986 356L3002 346L3008 350L3004 356C2998 364 2986 362 2979 370C2988 369 2998 368 3006 372L3005 378C2998 380 2992 385 2984 383L2983 387L2972 386C2977 391 2981 398 2988 399H3009C2998 404 2986 403 2977 410L3001 418L2984 420L2985 425L2979 427L2986 431L2984 436C2978 433 2972 431 2965 432C2968 435 2970 438 2973 439C2980 445 2990 441 2999 444V437L3006 436L3005 426L3011 421L3005 414L3010 412L3017 392C3022 394 3027 394 3030 398C3034 405 3041 409 3047 414C3049 420 3042 424 3038 427H3054C3054 434 3051 440 3048 447H3062C3063 452 3066 457 3070 459C3072 456 3080 453 3075 450C3068 444 3061 435 3063 426L3079 439L3076 431L3097 436C3097 427 3088 423 3083 417L3095 416C3089 409 3089 399 3084 391L3096 395C3093 390 3090 385 3085 381L3099 383L3095 367C3100 366 3106 366 3110 371C3109 365 3108 360 3104 355L3108 356L3112 350C3115 353 3118 355 3119 358L3117 372L3127 367L3135 374L3132 388C3130 395 3125 400 3121 405C3126 405 3132 405 3137 403C3142 400 3148 397 3155 396C3152 404 3144 407 3138 411L3137 419C3144 419 3150 416 3155 414C3153 425 3145 435 3137 444L3139 450C3146 446 3152 441 3160 438C3161 449 3148 451 3144 460L3157 455L3159 462C3154 467 3149 472 3148 480C3172 478 3196 479 3219 475C3215 473 3208 470 3212 463C3219 463 3227 460 3234 457C3232 453 3229 450 3224 448C3226 446 3227 443 3230 442H3247C3240 435 3228 436 3219 435L3222 430C3212 429 3205 422 3197 418L3200 413C3206 414 3211 412 3214 407C3221 411 3230 415 3237 410V403L3232 401L3225 406L3222 385C3228 384 3233 381 3239 378L3240 387L3245 383H3251C3248 378 3244 372 3245 365C3246 361 3250 358 3253 355C3256 357 3258 360 3262 361C3269 360 3276 356 3278 349L3272 352L3270 341L3261 342V337L3267 334L3262 326L3268 319C3278 324 3289 324 3300 325C3299 322 3298 318 3295 317L3277 311L3275 298C3281 297 3284 294 3286 289L3295 291V284C3303 278 3307 270 3311 262L3317 267L3324 259H3331C3332 265 3330 271 3332 277C3334 283 3342 281 3346 282L3342 298L3350 292L3351 301C3349 305 3344 307 3340 310L3356 320C3353 326 3349 333 3344 337L3364 339L3360 351L3354 352L3357 341C3353 345 3352 351 3349 355C3341 361 3331 362 3322 361C3331 370 3345 362 3355 360C3361 358 3367 357 3368 351L3384 352C3384 348 3385 343 3383 339C3381 333 3383 326 3383 319H3388C3389 314 3394 312 3399 312C3400 320 3400 329 3394 335L3402 345L3411 347C3407 352 3401 352 3396 353C3399 361 3400 370 3404 378C3409 386 3412 396 3421 400C3431 403 3441 400 3451 402C3452 396 3450 391 3447 387H3454L3458 376L3452 377L3445 366L3447 354L3462 363C3467 357 3473 354 3480 352C3471 349 3462 346 3456 338L3470 342L3456 322L3472 330L3481 320L3474 323C3470 319 3468 313 3468 307C3475 308 3482 310 3489 307L3476 297L3497 295L3500 290C3502 298 3504 307 3498 314C3503 312 3507 309 3512 308C3510 315 3504 321 3499 326C3504 329 3510 331 3516 331L3505 349L3517 344L3516 351L3528 339C3539 341 3549 334 3560 333L3557 327L3564 326L3560 319L3572 316C3576 311 3578 304 3576 298C3571 300 3565 301 3560 299L3556 306L3555 298L3548 307L3538 301L3527 305L3540 297L3541 293L3532 294C3528 293 3529 287 3528 284L3545 282C3542 279 3538 276 3538 272C3547 270 3557 270 3565 273L3566 265L3551 266C3557 260 3566 262 3573 259L3580 252C3575 252 3570 249 3565 247L3569 241C3562 235 3553 231 3545 228L3546 223C3550 222 3556 223 3559 219C3561 217 3559 214 3559 212L3549 216L3550 207C3555 208 3561 209 3564 203L3559 194C3569 196 3579 199 3589 197C3588 190 3589 183 3591 176L3580 165L3592 158L3587 156C3588 151 3589 145 3587 140L3597 144L3600 140L3595 133L3601 135C3604 130 3610 128 3616 129L3615 139L3619 142C3616 146 3614 151 3614 156L3610 163L3618 168L3603 166C3607 172 3613 176 3618 181L3617 187L3635 189C3632 191 3630 195 3628 198L3618 190L3623 199C3618 197 3611 196 3609 202C3611 208 3616 212 3618 218C3618 221 3615 222 3614 225C3619 231 3626 235 3627 243H3621L3630 250C3634 256 3635 263 3636 269L3655 282L3650 285L3659 297L3657 303C3651 304 3646 306 3640 304C3632 302 3627 294 3622 288C3624 298 3630 305 3635 313C3639 319 3648 317 3652 324C3658 331 3663 340 3672 344C3679 347 3684 353 3688 359L3700 356L3699 351L3689 344L3690 338C3698 343 3706 347 3715 345V344L3716 341L3717 340L3705 331L3698 336C3690 330 3681 324 3679 314C3690 314 3699 327 3711 322C3707 315 3700 311 3693 307L3691 295C3684 294 3679 290 3676 284C3682 283 3687 281 3692 278C3700 286 3711 293 3723 289L3719 284L3704 282L3707 270C3701 267 3696 262 3698 255L3711 262C3718 266 3725 265 3731 268C3736 270 3743 273 3747 269C3753 265 3759 263 3765 263V254L3757 255C3752 258 3749 262 3744 264H3730L3731 259C3738 259 3746 257 3752 254C3751 251 3750 248 3747 246L3735 247L3730 256C3728 253 3725 250 3721 248L3720 237C3716 239 3712 241 3707 241C3702 235 3698 228 3695 221L3698 201C3702 204 3707 207 3712 208C3719 210 3721 220 3730 219L3731 211C3740 208 3751 206 3753 196L3732 190C3725 186 3718 181 3713 174C3722 175 3729 180 3738 181L3731 170C3726 161 3714 156 3713 145C3724 148 3731 157 3740 161C3743 157 3745 152 3746 148L3751 152C3753 149 3753 145 3752 141L3744 146L3732 133L3738 128L3732 119C3744 123 3755 124 3767 122C3766 111 3752 111 3747 104H3769L3770 96C3774 100 3779 102 3784 104L3786 89C3794 98 3790 111 3794 121C3790 124 3783 128 3785 134C3793 128 3802 123 3812 120L3801 141C3793 142 3790 149 3786 154L3796 156L3800 162C3805 160 3811 160 3816 160C3813 172 3800 180 3797 192C3805 192 3812 188 3819 185C3816 188 3813 192 3813 197C3818 196 3822 192 3825 189C3832 184 3840 181 3848 178L3845 189H3854L3860 196L3866 193L3860 200L3864 204L3875 200C3873 206 3874 212 3875 218L3870 219C3873 223 3878 225 3882 227C3878 231 3873 235 3871 240C3872 247 3874 254 3873 261C3883 262 3893 261 3902 258L3904 262L3898 270C3903 273 3909 273 3914 272C3913.33 273.329 3912.66 274.663 3912 276H3916L3914 282L3903 276L3904 284H3909V289L3918 288L3920 296L3900 300L3902 303L3896 309L3897 314L3884 322C3891 333 3906 326 3914 335L3898 334V342C3908 341 3920 338 3929 344C3925 346 3922 349 3920 352L3938 354L3936 363L3930 366L3924 362L3929 372L3917 379L3908 368C3909 372 3908 376 3910 380L3918 386L3909 385L3905 371L3887 370L3884 378L3892 377C3894 382 3895 387 3901 389C3912 394 3925 395 3938 397C3943 392 3948 386 3951 379L3943 372C3945 359 3963 356 3962 343L3950 339C3951 330 3962 328 3967 321C3974 313 3975 301 3976 290C3981 279 3992 272 4000 263V1287.5ZM3136 461C3134 463 3132 466 3132 469C3135 468 3140 467 3142 463L3136 461ZM3493 462L3494 465L3497 464C3497 461 3495 461 3493 462ZM3234 452L3241 460C3247 458 3253 452 3251 444C3244 445 3239 449 3234 452ZM2895 455C2894 456 2894 458 2896 458H2900C2902 455 2897 452 2895 455ZM3043 454V458C3044 459 3046 459 3047 457C3049 454 3044 452 3043 455V454ZM3361 448C3363 450 3363 454 3366 454C3368 452 3368 448 3369 445L3361 448ZM3527 447L3524 450C3523 451 3522 452 3523 454C3526 455 3531 448 3527 447ZM3498 445L3506 452L3508 444L3498 445ZM3256 444L3262 451L3268 444H3256ZM3084 442C3085 445 3087 447 3090 448L3098 450C3096 444 3089 444 3084 442ZM3736 440L3734 443C3734 445 3735 446 3736 446C3739 446 3739 440 3736 440ZM2593 417L2592 424C2585 421 2577 419 2570 422C2571 426 2574 431 2579 432C2580 435 2581 438 2584 440C2589 442 2595 443 2601 443C2597 440 2592 436 2592 430C2598 431 2603 436 2608 439L2611 436L2597 417H2593ZM3600 430C3600 433 3602 435 3604 437L3612 442C3608 438 3605 433 3600 430ZM2695 438L2696 441L2697 440C2698 438 2698 437 2695 438ZM3266 418L3267 425L3275 426V440L3281 432L3279 422L3266 418ZM2643 436L2642 439L2650 436L2652 433L2643 436ZM3503 434L3504 437L3505 436C3506 434 3506 433 3503 434ZM2496 428L2497 435C2500 436 2504 436 2507 434L2496 428ZM2880 431V434H2883C2884 431 2883 430 2880 431ZM2933 427C2932 427 2931 428 2931 430V433C2935 436 2938 424 2933 427ZM2870 410C2866 417 2872 426 2880 426C2887 430 2895 437 2903 431C2903 427 2898 425 2895 422C2896 417 2900 420 2902 422C2906 424 2910 424 2914 424L2916 420L2908 415H2895L2887 410C2887 414 2889 419 2891 422L2887 421C2887 417 2886 414 2884 410C2880 412 2875 411 2870 410ZM3652 404C3651 408 3652 415 3657 417L3684 432L3670 419C3668 417 3668 413 3665 410H3656C3654 409 3652 406 3652 404ZM3509 427L3520 432C3521 429 3521 425 3523 422C3517 422 3512 423 3509 427ZM3724 428V431H3728C3729 428 3728 427 3724 428ZM2532 423L2522 422L2510 426L2534 429C2539 425 2541 419 2544 414C2540 417 2537 422 2532 423ZM3365 424C3364 425 3365 427 3366 427H3369C3371 425 3367 422 3365 424ZM2938 419L2939 426C2943 426 2943 421 2944 419L2942 418H2938V419ZM3581 412C3582 418 3588 422 3592 426C3591 419 3589 412 3584 407L3581 412ZM3492 418L3493 425L3496 426V418H3492ZM3704 419V423H3709C3712 420 3707 416 3704 419ZM3731 417C3729 418 3730 420 3731 421H3735C3737 418 3733 414 3731 417ZM3260 398L3254 403L3263 401L3260 410C3268 405 3276 401 3285 401L3280 409L3285 407L3286 419C3293 417 3300 418 3306 422L3309 417C3311 416 3314 415 3313 412H3312L3310 411H3309C3298 412 3291 400 3280 399C3273 399 3267 400 3261 398H3260ZM3323 407L3322 419L3338 421L3339 416L3326 412C3332 408 3338 407 3344 405C3337 405 3330 405 3323 407ZM2493 418L2494 421L2495 419C2496 418 2496 417 2493 418ZM3509 395C3516 395 3523 393 3530 396V401C3523 404 3516 404 3510 408L3504 407C3507 415 3515 421 3524 419L3533 407C3531 401 3536 396 3533 390C3525 388 3515 388 3509 395ZM2021 416C2021 418 2022 419 2023 419L2027 418C2027 415 2022 415 2021 416ZM3632 354L3629 367C3634 372 3639 377 3646 380C3655 382 3660 392 3667 397C3676 402 3683 409 3690 416C3694 417 3694 413 3694 410C3689 404 3686 397 3680 392C3671 384 3677 371 3671 362L3661 359C3659 363 3657 367 3653 368L3643 356L3642 362H3636C3636 359 3634 356 3632 353V354ZM1988 408L1989 415L2002 416L1988 408ZM3623 410C3622 412 3623 413 3625 414C3626 416 3628 416 3629 416C3630 413 3625 409 3623 410ZM3490 402L3494 407L3490 413L3497 415C3497 411 3499 406 3502 403H3509C3506 396 3496 399 3490 402ZM3271 410C3268 412 3268 413 3270 414C3271 415 3274 415 3275 413C3277 410 3272 409 3271 410ZM3729 409C3727 411 3729 412 3731 412C3733 412 3735 412 3735 409C3735 406 3730 407 3729 409ZM2916 406L2914 408L2916 410C2919 409 2919 407 2916 406ZM2900 405L2905 407L2910 408C2910 403 2903 406 2900 405ZM2953 396L2956 407L2963 408V400C2960 397 2957 396 2953 396ZM3904 403C3903 405 3905 407 3907 407H3911C3910 404 3907 402 3904 403ZM2034 376L2026 381L2020 376L2023 382L2006 396C2012 398 2020 397 2027 396C2021 400 2014 402 2008 404L2010 408C2019 407 2027 405 2036 402L2035 397H2036L2038 396H2039V391L2047 389C2049 385 2053 381 2050 376L2037 377L2034 385L2029 388C2032 385 2035 381 2035 376H2034ZM2635 394V402L2640 396L2635 394ZM3100 395C3101 398 3103 402 3107 402V394L3100 395ZM3359 375L3342 390C3335 392 3327 389 3322 395C3327 394 3333 395 3337 398L3344 393C3347 398 3352 401 3358 402L3354 396L3371 395C3370 391 3365 392 3362 391C3367 389 3374 390 3378 385C3373 383 3369 379 3368 374L3379 376V365C3373 369 3366 373 3359 375ZM2443 396L2444 401C2448 402 2451 401 2453 398L2443 396ZM2150 396C2148 397 2148 398 2149 399C2150 400 2152 401 2153 400C2158 398 2153 393 2150 396ZM1939 396C1937 398 1938 399 1939 400L1943 399C1945 396 1940 394 1939 396ZM3616 388L3614 393L3626 400L3616 388ZM2135 392C2133 394 2137 395 2138 397L2145 396L2148 387L2158 391L2159 387C2151 386 2143 387 2135 392ZM2918 396L2928 394L2919 387L2918 396ZM2955 388V393L2966 396L2965 386L2955 388ZM2200 383C2207 383 2211 389 2212 395C2215 394 2217 393 2218 391L2212 389L2216 382C2211 381 2204 377 2200 383ZM2905 393L2914 395L2910 385C2908 387 2903 389 2905 393ZM3686 385V391L3693 394C3697 392 3695 388 3695 385H3686ZM1858 390V393H1861C1862 390 1861 389 1858 390ZM1589 385C1585 386 1584 389 1582 392C1587 395 1589 391 1591 387L1598 389L1600 385H1589ZM2253 374V382L2244 384C2247 386 2248 390 2250 393L2261 392L2263 389C2259 390 2254 390 2249 388L2257 382L2253 374ZM1828 385L1836 387L1846 392C1843 384 1835 381 1828 385ZM3772 388L3779 391L3786 390C3784 384 3777 386 3772 388ZM2086 368C2088 376 2093 383 2098 389C2101 388 2104 386 2107 387C2114 387 2121 385 2128 383C2123 383 2118 381 2114 377C2110 379 2105 381 2100 380C2094 378 2090 373 2086 368ZM3529 352C3525 357 3520 360 3515 363C3517 367 3517 371 3516 376L3511 377C3505 376 3498 375 3492 372L3491 388C3494 389 3498 390 3500 386L3497 382L3514 384L3525 377L3534 376L3540 371L3535 369C3534 363 3529 357 3533 351L3529 352ZM2946 381V384C2946 385 2947 386 2949 384C2951 383 2949 378 2946 381ZM2232 378C2230 379 2230 381 2230 382C2231 384 2232 385 2234 384C2237 383 2236 377 2232 378ZM2968 375C2963 374 2959 376 2956 378C2957 386 2969 387 2971 379L2978 382C2978 376 2972 370 2968 375ZM1971 380L1970 384L1980 383C1978 381 1974 381 1971 380ZM2277 370C2276 374 2275 378 2270 378L2268 372L2262 382C2267 384 2274 383 2279 382C2279 378 2280 373 2277 370ZM1601 365L1598 371L1604 375L1606 382C1607 380 1608 376 1607 373L1601 369L1606 364L1601 365ZM1703 373L1701 382H1705V378L1712 373H1703ZM1722 373L1731 380V373H1722ZM1566 376C1563 379 1565 380 1568 380C1570 380 1573 379 1573 376H1566ZM2932 374V378C2932 380 2934 380 2935 379C2938 377 2935 372 2932 374ZM3281 372L3273 373V374L3272 376L3284 378V372H3281ZM3935 374H3937V375C3936 377 3935 377 3935 374ZM3549 374L3550 376L3551 375C3552 374 3552 373 3549 374ZM2220 367C2220 371 2222 372 2225 374L2234 376C2230 372 2226 367 2220 367ZM3826 374C3830 373 3833 370 3836 368V358C3834 364 3828 368 3826 374ZM3548 365L3553 368V373C3562 373 3562 363 3564 357C3558 359 3552 360 3548 365ZM3742 368V372H3746C3747 368 3746 367 3742 368ZM1802 366C1804 367 1805 369 1806 372L1817 370L1818 360C1813 361 1807 363 1802 366ZM1595 364L1609 359L1611 370L1622 371L1628 366L1606 358C1601 357 1597 359 1595 364ZM1635 363L1632 370L1642 371L1643 369L1635 366L1642 362L1635 363ZM1788 362L1792 365L1786 371L1796 369L1795 363L1788 362ZM3492 362L3495 370C3499 369 3504 368 3506 364L3492 362ZM2229 363L2228 368L2234 369L2238 363H2229ZM3786 357L3787 361C3791 364 3796 370 3801 366C3801 362 3803 358 3800 356L3786 357ZM1579 360C1577 361 1576 362 1576 364C1576 366 1578 367 1580 366C1583 365 1583 359 1579 360ZM1846 361V365H1849C1852 363 1848 359 1846 361ZM3750 361C3749 361 3748 362 3749 364C3749 365 3750 366 3752 366C3755 365 3754 360 3750 361ZM3299 364C3305 365 3310 366 3316 365L3313 361L3299 364ZM3366 360L3364 362L3366 364C3369 363 3369 362 3366 360ZM1949 354L1945 357V361C1948 363 1952 355 1949 354ZM3740 360C3740.82 357.374 3741.49 354.703 3742 352C3737 352 3735 358 3740 360ZM1504 353C1505 356 1509 357 1511 358V352L1504 353ZM1912 354V357H1916C1917 354 1916 353 1912 354ZM3543 352C3542 354 3543 355 3544 355H3547C3549 352 3544 350 3543 352ZM1952 346V351C1953 353 1954 354 1956 354C1957 351 1958 345 1952 346ZM1398 351L1406 354L1404 348L1398 351ZM2200 347L2208 352C2211 353 2214 352 2216 348C2211 346 2205 347 2200 347ZM3804 347V351C3806 352 3808 353 3809 351C3812 348 3807 344 3804 347ZM3743 348V351H3746C3746 348 3745 347 3743 348ZM2223 348V351L2225 349C2226 348 2225 347 2223 348ZM1984 346L1985 350H1988C1989 347 1988 346 1984 346ZM3746 338L3750 349C3755 348 3753 342 3755 337L3746 338ZM3340 348C3343 348 3348 351 3349 346L3345 342L3340 348ZM1421 342L1417 344L1418 347C1422 349 1427 342 1421 342ZM1819 343V346C1820 347 1822 347 1823 345C1825 342 1820 340 1819 343ZM1602 343L1610 346L1608 340L1602 343ZM3801 342L3802 345L3805 344C3805 341 3803 341 3801 342ZM1346 339V344C1353 343 1359 339 1362 333C1357 335 1352 340 1346 339ZM3822 339L3810 340H3809V343L3808 344C3814 343 3820 342 3823 339H3822ZM3793 338C3792 340 3793 341 3794 342H3798C3800 339 3795 336 3793 338ZM1285 336C1291 338 1297 344 1303 340C1300 335 1295 333 1292 328C1288 327 1287 333 1285 336ZM3728 337V340H3731C3732 337 3731 336 3728 337ZM1625 334L1621 336L1622 339C1626 341 1631 334 1625 334ZM1860 327C1863 333 1869 336 1876 337L1875 334L1860 327ZM2960 329C2955 331 2960 339 2965 337C2971 337 2974 333 2978 329C2972 331 2966 330 2960 329ZM1968 318L1970 324L1967 328L1970 336H1976C1976 331 1974 327 1971 323L1979 324L1977 316L1968 318ZM1920 330C1918 331 1917 332 1918 334C1918 335 1920 337 1922 336C1926 335 1923 329 1920 330ZM3813 319C3810 323 3805 326 3800 327C3809 326 3815 333 3823 336V329C3826 326 3828 322 3828 318L3834 314C3827 316 3820 320 3813 319ZM886 332V336H890C891 332 889 331 886 332ZM2945 330C2943 330 2942 332 2941 333C2940 335 2941 336 2943 336C2947 336 2950 330 2945 330ZM1550 331V336C1557 335 1563 331 1566 325C1561 327 1556 332 1550 331ZM1252 300C1245 300 1239 302 1233 306C1241 307 1249 304 1256 308L1255 313L1228 320C1234 327 1243 329 1252 331C1251 325 1255 321 1259 317L1256 314C1259 310 1261 306 1262 301L1255 300L1257 292L1252 300ZM2043 320L2042 326C2046 327 2051 329 2056 329C2054 325 2052 320 2053 315L2043 320ZM3716 328L3719 325L3720 320C3716 321 3713 325 3716 328ZM1281 317L1277 327L1288 324L1287 319L1281 317ZM1933 316L1934 326L1942 324L1933 316ZM1215 321V324H1222V320L1215 321ZM3768 308C3769 313 3770 318 3773 323L3781 324V313C3777 309 3773 306 3768 308ZM1924 320V323H1928C1929 320 1928 319 1924 320ZM3732 317L3730 319L3732 322C3735 322 3735 317 3732 317ZM1215 316C1219 318 1224 319 1227 315L1235 314L1230 311C1224 311 1217 309 1215 316ZM1208 315V317H1210C1211 316 1211 315 1208 315ZM3555 308C3557 310 3556 311 3555 312C3553 314 3551 314 3550 314C3543 314 3553 309 3555 308ZM1196 310V313L1199 314C1200 310 1199 309 1196 310ZM3298 308L3296 311C3296 312 3296 313 3298 314C3302 315 3303 306 3298 308ZM1984 304C1979 306 1971 303 1969 310C1972 314 1977 313 1981 314L1983 309L1992 310C1990 307 1987 302 1984 304ZM1960 310V313H1962C1963 312 1964 311 1960 310ZM1334 309L1333 312L1336 313C1338 311 1337 309 1334 309ZM3832 262C3822 257 3814 266 3805 269L3804 272L3826 270L3841 274L3839 283C3832 284 3823 285 3820 292L3810 287L3809 296C3804 297 3799 290 3794 294C3795 299 3799 299 3803 300L3805 307C3813 312 3823 314 3833 311V304C3839 300 3843 294 3848 289L3841 286C3843 278 3851 273 3852 264L3840 261C3839 263 3839 267 3837 268C3836 261 3840 257 3844 252C3839 255 3835 258 3832 262ZM2934 305L2942 310L2937 303L2934 305ZM1950 310C1949.91 307.334 1949.91 304.666 1950 302C1944 301 1944 311 1950 310ZM1313 306V309L1315 308C1316 306 1316 305 1313 306ZM3721 307C3725 307 3730 307 3734 305C3729 302 3726 298 3723 294C3720 298 3721 303 3721 307ZM1093 284H1075L1079 291L1075 289C1075 286 1075 283 1073 281H1062L1061 285C1062 289 1066 293 1071 293V298L1075 299L1072 302C1079 304 1087 306 1095 306V303H1086L1102 298C1098 294 1095 290 1094 285L1105 288L1103 277C1099 278 1096 281 1093 284ZM3770 297L3771 303L3786 306L3783 294L3770 297ZM3882 286V299L3881 300L3878 302L3877 303L3879 305C3886 306 3892 303 3898 301L3896 291C3891 290 3885 291 3882 286ZM1920 296L1918 304L1921 305L1924 298L1920 296ZM3700 302C3704 305 3709 306 3714 304L3710 292C3705 294 3703 298 3700 302ZM1538 301L1537 304L1540 305C1542 303 1541 301 1538 301ZM1517 298V301L1519 300C1520 298 1520 297 1517 298ZM1252 264C1248 268 1245 272 1240 274C1241 279 1242 283 1241 287C1233 289 1224 288 1217 283V300L1226 298L1222 294L1240 296C1245 293 1249 287 1255 289C1260 290 1263 286 1264 282L1260 281C1260 276 1254 269 1259 264C1257 263 1254 261 1252 264ZM1940 287L1936 284L1926 294C1934 295 1942 299 1950 299L1965 293L1964 287C1958 288 1954 291 1950 294C1946 295 1939 296 1940 291L1951 289C1955 289 1956 285 1953 283C1949 280 1942 282 1940 287ZM3696 294L3695 295L3694 297C3696 304 3704 293 3696 294ZM972 289C976 289 979 292 982 295C986 297 989 299 993 296C987 291 980 289 972 289ZM894 292C893 292 892 294 893 295C893 296 894 297 896 297C899 296 897 290 894 292ZM3758 292C3760 292 3761 291 3762 289L3763 285C3759 285 3759 289 3758 292ZM1335 282V291H1339L1342 284L1335 282ZM3789 281C3786 280 3783 276 3779 279C3775 280 3770 284 3774 288C3778 291 3782 292 3787 291C3789 289 3791 286 3791 283L3801 287C3801 285 3802 284 3804 283L3794 276C3791 276 3790 279 3789 281ZM1912 262L1911 267L1912 268H1915L1916 269L1907 277L1910 280L1900 291C1905 289 1911 289 1916 288L1940 278C1934 277 1929 276 1924 278L1912 262ZM1020 284L1009 283L998 287L1023 291L1032 276C1028 279 1025 283 1020 284ZM3336 286L3334 288L3336 290C3339 289 3339 288 3336 286ZM1880 278C1881 281 1880 288 1885 287L1887 280L1880 278ZM3739 277L3738 284L3744 286C3745 283 3746 279 3744 276L3739 277ZM1539 275C1539.38 277.66 1539.72 280.327 1540 283H1543L1546 276L1539 274V275ZM2938 276V280C2939 282 2940 282 2942 281C2944 279 2942 274 2938 276ZM979 278V281H982C983 278 982 277 979 278ZM1217 274L1218 280C1224 281 1229 279 1232 275L1217 274ZM1206 275V278H1209C1210 275 1209 274 1206 275ZM991 274V277L993 276C994 274 994 273 991 274ZM758 269L756 275L766 276L763 269H758ZM2322 253C2324 259 2325 266 2319 269C2325 270 2332 267 2338 266L2334 258C2329 258 2325 256 2322 253ZM1972 260C1972 263 1972 268 1976 268C1982 269 1986 265 1990 261L1972 260ZM926 256C926 260 928 262 931 261L938 257L926 256ZM3840 196L3837 197C3832 201 3824 204 3827 211C3822 212 3816 212 3814 217C3811 221 3817 225 3819 228C3817 231 3817 234 3817 238C3813 238 3809 239 3806 242L3797 236L3793 242C3787 238 3781 232 3774 231C3773 238 3772 245 3775 251L3772 258C3777 263 3788 262 3790 254L3782 250L3802 252C3806 253 3811 254 3815 252L3833 239C3836 238 3838 242 3840 243C3847 240 3853 235 3857 229C3852 227 3847 229 3842 230L3850 225L3848 218L3842 219C3844 216 3846 212 3845 209L3840 204V203L3842 201H3849C3846 199 3843 196 3840 196ZM1199 253V257L1203 258C1204 255 1201 252 1199 253ZM645 254C644 256 646 257 648 258C649 258 652 258 652 256C651 253 647 252 645 254ZM3839 251H3843C3845 248 3840 246 3839 248V251ZM665 248L666 251L669 250C669 247 667 246 665 248ZM635 239L636 247H643L642 238L635 239ZM3724 239V242H3727C3728 239 3727 238 3724 239ZM1951 235H1950L1948 237L1956 242L1951 235ZM3568 224L3564 234C3571 235 3578 240 3586 237C3579 234 3578 226 3581 220C3578 224 3573 225 3568 224ZM3746 231V234H3749C3750 231 3749 230 3746 231ZM497 226C496 227 497 229 498 230H501C503 227 499 224 497 226ZM3775 215C3774 221 3777 228 3784 227C3792 227 3797 221 3802 217C3793 218 3784 216 3775 215ZM658 219L638 216V221C646 219 654 221 661 226V212L658 219ZM3752 223V225H3753C3755 224 3755 223 3752 223ZM3702 222V225H3704C3705 224 3706 222 3702 222ZM3756 219C3755 220 3756 221 3757 222H3761C3763 219 3758 216 3756 219ZM517 220V223L519 222C520 220 520 219 517 220ZM1952 209V213C1953 214 1954 215 1955 214C1958 212 1955 206 1952 209ZM538 208C537 209 536 210 537 211C537 212 538 213 540 213C543 212 541 207 538 208ZM603 173L593 181V183L592 186V187L603 183C604 188 600 191 597 194L599 202C597 206 592 208 590 212C595 211 599 207 603 204L601 200C604 196 609 192 606 186L612 177L603 173ZM387 202V206H391C393 203 389 200 387 202ZM498 201V203H500C501 202 501 201 498 201ZM369 194V202C374 202 376 198 376 194H369ZM578 186L579 195C584 194 587 189 584 185L578 186ZM3748 185V188C3749 190 3750 190 3752 189C3755 187 3751 182 3748 185ZM380 168L379 181C384 182 388 180 392 178L389 188L396 187L397 178L380 168ZM404 182L402 184L404 186C407 185 407 184 404 182ZM3743 181V185C3744 186 3746 186 3747 184C3750 182 3745 178 3743 181ZM297 168C296 170 296 171 298 172C299 173 300 173 301 171C304 169 299 166 297 168ZM431 160V168C436 168 439 163 436 159L431 160ZM273 151V158L266 161C272 161 278 163 283 166L292 161L281 160L293 156C290 149 280 149 273 151ZM317 160V164H320C321 160 320 159 317 160ZM3788 161V163H3789C3791 162 3792 161 3788 161ZM332 153V155H334C335 154 336 153 332 153ZM433 152V155L435 154C436 152 436 151 433 152ZM303 144C306 146 305 151 305 154C311 153 309 146 309 142C306 140 305 143 303 144ZM331 141L327 143C326 145 326 146 328 147C332 148 334 142 331 141ZM3757 142L3758 144L3759 143C3760 142 3760 140 3757 142ZM200 124C203 131 207 137 212 142L214 135L200 124ZM298 133L296 136C300 137 306 142 308 136C307 132 302 134 298 133ZM321 133V136H324C325 133 324 131 321 133ZM26 122C23 123 23 127 22 130C27 130 29 126 31 122L38 125L40 121C35 121 30 120 26 122ZM38 104C42 108 46 112 46 117L49 115L48 107L38 104ZM4 111L3 116C6 115 10 114 12 111H4ZM153 109C152 111 153 112 155 112C157 113 159 112 159 110C159 107 154 107 153 109ZM298 106C298 112 304 109 307 110V105L298 106ZM51 93C52 97 50 102 53 105L64 107L70 101L51 93ZM77 97V105H87L79 99L86 96L77 97ZM19 94C17 94 16 95 15 97C14 98 14 100 16 100C20 101 23 95 19 94ZM162 91L160 94C160 96 160 97 162 98C166 98 167 90 162 91ZM166 82L167 86H172L174 81L166 82ZM45 74C44 76 46 78 47 78C49 79 51 78 52 76C51 73 47 72 45 74ZM0 28L2 30L0 32V28Z" fill="#001B33"/>
</svg>
