<svg width="7398" height="843" viewBox="0 0 7398 843" fill="none" xmlns="http://www.w3.org/2000/svg">
<path d="M91 51.5C55.4922 85.9138 30.5986 138.446 0 139.458V408H1517.15V198.164C1496.64 202.55 1419.4 196.949 1274.55 139.458C1093.48 67.594 1067.5 51.9999 1025 74.4999C952.162 113.061 880.5 163.054 880.5 117L798.5 74.4999L711 51.4999C699.399 54.8738 667.481 25.1239 600.5 6.49993C516.774 -16.78 486.077 31.9999 419.5 31.9999L263.5 32C218.712 32 152.87 36.1488 91 51.5Z" fill="#052B4F"/>
<path d="M1517 197.86C1567.87 195.84 1742.41 175.068 1790.89 162.336C1857.59 144.818 2011.55 190.956 2099.64 180.18H2380.1C2390.88 172.434 2441.45 133.3 2504.92 180.18C2568.39 227.059 2803.57 173.276 2906.15 111.477C2931.25 119.559 2976.79 75.2056 3014.79 65.5064C3052.79 55.8071 3267.96 188.767 3281.61 180.179C3348.82 218.409 3331.13 111.477 3580.26 162.336C3832.97 213.927 4008.27 223.624 4076.49 216.552L4215.96 144.818C4237.33 128.665 4288.8 102.956 4323.66 129.347C4358.53 155.738 4649.45 216.871 4790.55 244.139L6338.98 303.531L7406 244.139V407H4215.96H1517V197.86Z" fill="#052B4F"/>
<rect y="407" width="7398" height="436" fill="#052B4F"/>
</svg>
