<svg width="7388" height="828" viewBox="0 0 7388 828" fill="none" xmlns="http://www.w3.org/2000/svg">
<path d="M2125 827.657H0V291.657C26.6667 292.657 93.5 284.457 143.5 243.657C206 192.657 220.5 156.157 231.5 167.157C242.5 178.157 276.5 190.157 350 192.657C381.815 193.739 406.233 189.896 423 184.662C426.771 180.674 434.348 172.86 434.975 172.987C434.806 172.646 434.85 171.573 439.5 170.5C444.7 169.3 448 170 449 170.5C497 221.333 641.9 321.357 859.5 328.157C1077.1 334.957 1339.17 172.657 1443 90.657C1459 79.4903 1502.9 57.657 1550.5 59.657C1610 62.157 1632 3.15687 1703 0.156869C1759.8 -2.24313 1781.67 23.4902 1785.5 36.6569C1798.67 44.3236 1831.8 59.657 1859 59.657C1886.2 59.657 1957 80.3237 1989 90.657C2056 169.824 2244.9 328.157 2464.5 328.157C2486.17 334.657 2544.2 343.757 2601 328.157C2614 315.99 2649.2 291.657 2688 291.657C2736.5 291.657 2981 107.657 3017.5 107.657C3019.83 107.438 3025.2 106.5 3028 104.5C3030.8 102.5 3033.5 102.333 3034.5 102.5C3035.67 103.5 3038.3 105.5 3039.5 105.5C3041 105.5 3042.5 103.343 3045.5 105.5C3047.9 107.225 3051.83 104.219 3053.5 102.5C3055.6 101.696 3061.87 101.33 3070.15 106.294C3087.57 113.065 3121.7 127.924 3118.87 133.194C3116.05 138.465 3145 145.638 3159.83 148.566C3227.62 147.687 3288.34 165.767 3310.23 174.917C3411.44 228.717 3630.1 336.318 3695.07 336.318C3760.03 336.318 3817.69 287.275 3838.41 262.754C3877.01 255.068 3966.64 249.03 4016.35 286.36C4066.06 323.691 4164.16 335.22 4207 336.318L4594.5 328.157C4662.67 315.441 4808.2 284.557 4845 262.754C4881.8 240.951 5009.33 225.167 5068.5 220L5692.5 336.318C5710.33 346.379 5753 366.5 5781 366.5C5809 366.5 6288.33 297.336 6524.5 262.754C6555.33 253.836 6619.3 236.7 6628.5 239.5C6637.7 242.3 7138.33 299.771 7387.5 328.157V827.657H4207H2125Z" fill="#1B60A5"/>
</svg>
