<svg width="7393" height="661" viewBox="0 0 7393 661" fill="none" xmlns="http://www.w3.org/2000/svg">
<path d="M173.5 116.5L1 137V660.5H7393V1.5C6941.83 65.6667 6009.3 180.1 5888.5 124.5C5767.7 68.9002 4712.5 96.0002 4200 116.5C4019.83 123.334 3606.8 137 3396 137C3185.2 137 3056.17 123.334 3018 116.5L2890.5 124.5L2840.5 137L2814.5 144H2763.5C2696.17 137.5 2548.3 122.9 2495.5 116.5C2442.7 110.1 2350.17 119.167 2310.5 124.5L2253 137L2232.5 144L2220 124.5L2195.5 116.5C2141.83 119.167 2023.2 127 1978 137C1932.8 147 1692.5 145.834 1578 144L1540 137L1510.5 124.5L1473 137C1455.83 132.834 1418.1 124.5 1404.5 124.5C1390.9 124.5 1360.5 132.834 1347 137L1298 144L1249 137C1247.33 132.834 1224.9 122.9 1148.5 116.5C1072.1 110.1 985.333 119.167 951.5 124.5L916 137H862.5C854.333 132.834 833.8 122.9 817 116.5C800.2 110.1 785.667 113.834 780.5 116.5L745 124.5L707 137H668C649.167 130.167 606.1 118.1 584.5 124.5C562.9 130.9 514.5 127.167 493 124.5L424.5 116.5L391.5 108.5H358.5L326.5 116.5C311 123.334 276.6 137 263 137C249.4 137 224.667 128.667 214 124.5L173.5 116.5Z" fill="#121212" stroke="black"/>
</svg>
