<svg width="7392" height="267" viewBox="0 0 7392 267" fill="none" xmlns="http://www.w3.org/2000/svg">
<path d="M0 136L172.5 115.5L213 123.5C223.667 127.667 248.4 136 262 136C275.6 136 310 122.334 325.5 115.5L357.5 107.5H390.5L423.5 115.5L492 123.5C513.5 126.167 561.9 129.9 583.5 123.5C605.1 117.1 648.167 129.167 667 136H706L744 123.5L779.5 115.5C784.667 112.834 799.2 109.1 816 115.5C832.8 121.9 853.333 131.834 861.5 136H915L950.5 123.5C984.333 118.167 1071.1 109.1 1147.5 115.5C1223.9 121.9 1246.33 131.834 1248 136L1297 143L1346 136C1359.5 131.834 1389.9 123.5 1403.5 123.5C1417.1 123.5 1454.83 131.834 1472 136L1509.5 123.5L1539 136L1577 143C1691.5 144.834 1931.8 146 1977 136C2022.2 126 2140.83 118.167 2194.5 115.5L2219 123.5L2231.5 143L2252 136L2309.5 123.5C2349.17 118.167 2441.7 109.1 2494.5 115.5C2547.3 121.9 2695.17 136.5 2762.5 143H2813.5L2839.5 136L2889.5 123.5L3017 115.5C3055.17 122.334 3184.2 136 3395 136C3605.8 136 4018.83 122.334 4199 115.5C4711.5 95.0002 5766.7 67.9002 5887.5 123.5C6008.3 179.1 6940.83 64.6667 7392 0.5V492.5H4199H0V136Z" fill="black"/>
</svg>
